/* XPM */
static char *result[] = {
/* columns rows colors chars-per-pixel */
"64 64 238 2 ",
"   c #3E3C18",
".  c #532E0E",
"X  c #572F0C",
"o  c #582F0B",
"O  c #4A3F0E",
"+  c #5F3107",
"@  c #5E3606",
"#  c #5B3807",
"$  c #5D3008",
"%  c #553A0A",
"&  c #533C0B",
"*  c #513C0C",
"=  c #503D0D",
"-  c #472B16",
";  c #462A17",
":  c #472A17",
">  c #4D2C12",
",  c #492B15",
"<  c #4B2C14",
"1  c #432A18",
"2  c #452A18",
"3  c #442A19",
"4  c #643202",
"5  c #653202",
"6  c #653302",
"7  c #643203",
"8  c #643303",
"9  c #653303",
"0  c #653403",
"q  c #613205",
"w  c #603106",
"e  c #653304",
"r  c #663304",
"t  c #623405",
"y  c #653404",
"u  c #653405",
"i  c #663404",
"p  c #663504",
"a  c #663405",
"s  c #663505",
"d  c #663506",
"f  c #663607",
"g  c #673805",
"h  c #643807",
"j  c #683905",
"k  c #6A3C07",
"l  c #6B3D07",
"z  c #643808",
"x  c #6B3E08",
"c  c #2D4C1B",
"v  c #334818",
"b  c #334C1A",
"n  c #065226",
"m  c #00572A",
"M  c #00582A",
"N  c #00582B",
"B  c #00592B",
"V  c #005A2C",
"C  c #135626",
"Z  c #185927",
"A  c #1B5826",
"S  c #224725",
"D  c #215120",
"F  c #265220",
"G  c #265321",
"H  c #006633",
"J  c #424313",
"K  c #6C4109",
"L  c #6D4209",
"P  c #6E430A",
"I  c #6E440A",
"U  c #6F470B",
"Y  c #6F440C",
"T  c #70470B",
"R  c #71480C",
"E  c #724C0F",
"W  c #744E0E",
"Q  c #75500F",
"!  c #6E4015",
"~  c #6E4115",
"^  c #6E4116",
"/  c #6F4116",
"(  c #6F4117",
")  c #6F4216",
"_  c #6F4217",
"`  c #6F4317",
"'  c #6F4218",
"]  c #6F4318",
"[  c #704218",
"{  c #704318",
"}  c #704319",
"|  c #704419",
" . c #724719",
".. c #70441A",
"X. c #71441A",
"o. c #71451A",
"O. c #71441B",
"+. c #71451B",
"@. c #72481A",
"#. c #755010",
"$. c #765311",
"%. c #775411",
"&. c #7A5913",
"*. c #795914",
"=. c #7B5A14",
"-. c #7B5B14",
";. c #7B5B15",
":. c #7D5E15",
">. c #7D5F16",
",. c #7C6118",
"<. c #7F6318",
"1. c #7D5C20",
"2. c #7A752E",
"3. c #806318",
"4. c #816519",
"5. c #82671A",
"6. c #82681A",
"7. c #83691A",
"8. c #806D1E",
"9. c #856D1C",
"0. c #866E1C",
"q. c #89741F",
"w. c #8B7720",
"e. c #8A7721",
"r. c #8C7921",
"t. c #8D7B22",
"y. c #8E7D23",
"u. c #8B7528",
"i. c #847E2D",
"p. c #908024",
"a. c #918225",
"s. c #928527",
"d. c #938527",
"f. c #908729",
"g. c #928929",
"h. c #958928",
"j. c #968A28",
"k. c #978E2B",
"l. c #978F2B",
"z. c #96952F",
"x. c #9A922C",
"c. c #9E992F",
"v. c #939333",
"b. c #959631",
"n. c #A19E31",
"m. c #9FB13D",
"M. c #A6A835",
"N. c #A8AA37",
"B. c #A6A639",
"V. c #A7AB38",
"C. c #A3AE3B",
"Z. c #A9AE39",
"A. c #AAAE38",
"S. c #A0B23E",
"D. c #A4B63F",
"F. c #ABB139",
"G. c #A9B03A",
"H. c #ADB43B",
"J. c #AAB33D",
"K. c #AEB63C",
"L. c #AFB83C",
"P. c #9FB24E",
"I. c #A5B740",
"U. c #A9BC41",
"Y. c #AABC41",
"T. c #ABBE41",
"R. c #ACBD41",
"E. c #AEBD42",
"W. c #ACBF42",
"Q. c #ADBF42",
"!. c #A0B44D",
"~. c #A2B54D",
"^. c #A3B64D",
"/. c #A4B74C",
"(. c #A4B74D",
"). c #ABBF4B",
"_. c #ACBF4B",
"`. c #ADC042",
"'. c #AEC142",
"]. c #ACC04B",
"[. c #AFC34A",
"{. c #AEC24B",
"}. c #AFC24B",
"|. c #B0C343",
" X c #B4C141",
".X c #B4C241",
"XX c #B6C442",
"oX c #B6C542",
"OX c #B7C542",
"+X c #B7C643",
"@X c #B1C444",
"#X c #B2C644",
"$X c #B3C644",
"%X c #B4C644",
"&X c #B4C744",
"*X c #B7C644",
"=X c #B8C743",
"-X c #B8C744",
";X c #B4C845",
":X c #B5C845",
">X c #B6C945",
",X c #B7C945",
"<X c #B6CA45",
"1X c #B7CA45",
"2X c #B7CB46",
"3X c #B9C944",
"4X c #BACB45",
"5X c #B8CB46",
"6X c #BBCC45",
"7X c #B8CC46",
"8X c #B9CC46",
"9X c #B9CD46",
"0X c #BACD46",
"qX c #BBCD46",
"wX c #BACE46",
"eX c #BACE47",
"rX c #BBCF47",
"tX c #BCCE47",
"yX c #BCCF47",
"uX c #B0C34A",
"iX c #B0C44A",
"pX c #B1C44A",
"aX c #B1C54A",
"sX c #B2C54A",
"dX c #B2C64A",
"fX c #B4C74A",
"gX c #B5C849",
"hX c #B7CB49",
"jX c #B9CD48",
"kX c #B9CD49",
"lX c #BACE48",
"zX c #BBCF48",
"xX c #BCD047",
"cX c #BDD047",
"vX c #BDD147",
"bX c #BCD048",
"nX c #BDD148",
"mX c #BED248",
/* pixels */
"9 4 4 e y _ y 9 9 9 9 9 9 9 9 9 9 9 9 9 y ] | | +.a 4 9 9 9 9 9 9 9 9 9 9 9 4 4 e y 4 4 4 y y y e 4 9 9 9 9 9 9 9 9 9 9 9 9 9 9 ",
"9 4 y ] ` a 4 9 9 9 9 9 9 9 9 9 9 9 9 9 4 y r d { ( y 9 9 9 9 9 9 9 9 9 9 9 9 9 / ' y e u / { { _ 4 9 9 9 9 9 9 9 9 9 9 9 9 9 9 ",
"9 e ..} y 4 9 9 9 9 9 9 9 9 9 9 9 9 9 9 9 9 9 4 9 9 4 9 9 9 9 9 9 9 9 9 9 9 4 4 9 9 | X.} y 9 9 9 4 4 9 9 9 9 9 9 9 9 9 9 9 9 9 ",
"9 9 { a 4 9 9 9 9 9 9 9 9 9 9 9 9 9 9 9 9 9 9 9 9 9 9 9 9 9 9 9 9 9 9 9 9 9 9 4 9 4 y y 0 9 9 9 9 4 9 9 9 9 9 9 9 9 9 9 9 4 e i ",
"9 4 y 4 9 9 9 9 9 9 9 9 9 9 9 9 9 9 9 9 9 9 9 9 9 9 9 9 9 9 9 9 9 9 9 9 9 9 9 9 9 9 9 9 9 9 9 9 9 9 9 9 9 9 9 9 9 9 9 9 9 9 ] | ",
"9 9 9 9 9 9 9 9 9 9 9 9 9 9 9 9 9 9 9 9 9 9 9 9 9 9 9 9 9 4 y i y 4 9 9 9 9 9 9 9 9 9 9 9 9 9 9 9 9 9 9 4 y 4 4 9 9 9 9 9 4 a ' ",
"9 9 9 9 9 9 9 9 9 9 9 9 4 9 4 9 9 9 9 9 9 9 9 9 9 9 9 4 9 e { { ' s 9 4 4 9 9 9 9 9 9 9 9 9 9 9 9 9 9 9 y ^ 9 4 9 9 9 9 9 9 4 y ",
"9 9 9 9 9 9 9 9 9 9 9 4 4 9 4 4 9 9 9 9 9 9 9 9 9 9 9 y { X.{ u X.X.} a 4 9 9 9 9 9 9 9 9 9 9 9 9 9 9 9 4 9 | r 9 9 9 9 9 9 9 9 ",
"9 9 9 9 9 9 9 9 9 9 9 4 a ) 9 9 9 9 9 9 9 9 9 9 9 9 9 4 9 r 9 4 r r i ! y 9 9 9 9 9 9 9 9 9 9 9 9 9 9 9 9 9 | d 4 9 9 9 9 9 9 9 ",
"9 9 9 9 9 9 9 9 9 4 4 8 | ..e 9 9 9 9 9 9 9 9 9 9 9 9 9 9 9 9 9 9 4 4 e 4 9 9 9 9 9 9 9 9 9 9 9 9 9 9 9 9 9 O.] 9 4 4 9 9 9 9 9 ",
"9 9 9 9 9 9 9 9 9 4 ....| ' e 9 9 9 9 9 9 9 9 9 9 9 9 9 9 9 9 9 9 9 6 9 6 9 9 9 9 9 9 9 9 9 9 9 9 9 9 9 9 4 d | { _ y 9 9 9 9 9 ",
"9 9 9 9 9 9 9 9 9 4 ..} a y 4 9 9 9 9 9 9 9 9 9 9 9 9 9 9 9 9 9 9 9 9 9 9 9 9 9 9 9 9 9 9 9 9 9 9 9 9 9 9 8 [ { a y 4 9 9 9 9 9 ",
"9 9 9 9 9 9 9 9 9 4 ' s 4 4 9 9 9 9 9 9 9 9 9 9 9 9 9 9 9 9 9 9 9 9 9 9 9 9 9 9 4 9 9 4 9 9 9 9 9 9 9 9 9 4 4 4 4 4 9 9 9 9 9 9 ",
"9 9 9 9 9 9 9 9 9 4 a _ 4 9 9 9 9 9 9 9 9 9 9 9 9 * c G F b % 9 9 9 9 q > : 7 9 i / ' y 9 9 9 9 9 9 9 9 9 9 9 9 4 9 9 9 9 9 9 9 ",
"9 9 9 9 9 9 9 9 9 9 i [ 4 9 9 9 9 9 9 9 9 9 9 9 9 & m H H H H A # 9 + ; 2 X 9 9 4 e { a 9 9 9 9 9 9 9 9 9 9 9 9 9 9 9 9 9 9 9 9 ",
"9 9 9 9 9 9 9 9 9 9 4 8 4 9 9 9 9 9 9 9 9 9 9 9 9 9 D V H H H H Z 7 , - w 9 9 4 d _ ` y 9 9 9 9 9 9 9 9 9 9 9 9 9 9 9 9 9 9 9 9 ",
"9 9 9 9 9 9 9 9 9 9 9 9 9 9 9 9 9 9 9 9 9 9 4 9 9 9 @ C B H H H H   3 $ 9 9 9 9 ) d y 4 9 9 9 9 9 9 9 9 9 9 9 9 9 9 9 9 9 9 9 9 ",
"9 9 9 9 9 9 9 9 9 9 9 9 9 9 9 9 9 9 9 9 9 6 4 e e e e t v n M N m S < 9 9 9 9 9 / e 9 9 9 9 9 9 9 9 9 9 9 9 9 9 9 9 9 9 9 9 9 9 ",
"9 9 9 9 9 9 9 9 9 9 9 9 9 9 9 9 9 9 9 9 9 9 e / ] | .. .Y h O J = 1 . 9 9 9 9 4 e 4 9 9 9 9 9 9 9 9 9 4 9 9 9 9 4 9 9 9 9 9 9 9 ",
"9 9 9 9 9 9 9 9 9 9 9 9 9 9 9 9 9 9 9 9 9 6 4 9 3.B.-XmXmXcXF.w.z 3 o *.f.C.T.XXH.g.%.9 9 9 9 9 9 9 4 9 4 4 4 4 4 4 9 9 9 9 9 9 ",
"9 9 9 9 9 9 9 9 9 9 9 9 9 9 9 9 9 9 9 9 9 9 Q A.jX).!.sXmXmXmXmXJ.3 i.mX5XxXmXcXmX:X'.b.I 9 9 9 9 9 9 4 _ ..X.{ 9 9 9 9 9 9 9 9 ",
"9 9 9 9 9 9 9 9 9 9 9 9 9 9 9 9 5 9 9 9 9 y.yX).P.}.lXmXmXmXmXmXmX2.E.mXmXvXxXW.mXrXmXyXoX=.9 9 9 9 9 4 d } +...y 4 5 9 9 9 9 9 ",
"9 9 9 9 9 9 9 9 9 9 9 9 9 4 e e 4 9 9 9 p.zX~.iXmXmXmXmXmXmXmXmXmXmXmXmXmXmXmXmXmXmX8X>XU.R.<.9 9 9 9 9 4 9 | ..+.u 4 9 9 9 9 9 ",
"9 9 9 9 9 9 9 9 9 9 9 9 4 s ] / y 9 9 5.lX!.hXmXmXmXmXmXmXmXmXmXmXmXmXmXmXmXmXmXmXmXxX<XxXmX4XW 9 9 9 9 4 4 r d } / e 9 9 9 9 9 ",
"9 9 9 9 9 9 9 9 9 9 9 4 9 } +.e 4 9 x =X^.kXmXmXmXmXmXmXmXmXmXmXmXmXmXmXmXmXmXmXmXmXmXvXxXxXW.Z.9 9 9 9 9 9 9 4 9 9 4 9 9 9 9 9 ",
"9 9 9 9 9 9 9 9 9 4 r u ..[ u 4 4 9 d.aX].mXmXmXmXmXmXmXmXmXmXmXmXmXmXmXmXmXmXmXmXmXmXmXmXmXmXvX3.9 9 9 9 9 9 9 9 9 9 9 9 9 9 9 ",
"9 9 9 9 9 9 9 9 9 4 } | ..d 4 4 9 p +X(.nXmXmXmXmXmXmXmXmXmXmXmXmXmXmXmXmXmXmXmXmXmXmXmXmXmXrXmXV.9 9 9 9 9 9 9 9 9 9 9 9 9 9 9 ",
"9 9 9 9 9 9 9 9 9 4 | +.{ e 9 9 9 -.bX/.mXmXmXmXmXmXmXmXmXmXmXmXmXmXmXmXmXmXmXmXmXmXmXmXmXS.;XwXxXk 9 9 9 9 9 9 9 9 9 9 9 9 9 9 ",
"9 9 9 9 9 9 9 9 9 4 s _ i 9 9 9 9 t.fX_.mXmXmXmXmXmXmXmXmXmXmXmXmXmXmXmXmXmXmXmXmXmXmXmXmXrXxXmXxX:.9 0 4 9 9 9 9 9 9 9 9 9 9 9 ",
"9 9 9 9 9 9 9 9 9 9 4 9 4 4 9 9 9 j.pX{.mXmXmXmXmXmXmXmXmXmXmXmXmXmXmXmXmXmXmXmXmXmXmXmXmX#XrXm.rX9.y } 9 9 9 9 9 9 9 9 9 9 9 9 ",
"9 9 9 9 9 9 9 9 9 9 9 9 4 9 9 9 9 h.[.uXmXmXmXmXmXmXmXmXmXmXmXmXmXmXmXmXmXmXmXmXmXmXmXmXmX>XwXeXyXu.{ } 9 9 9 9 9 9 9 9 9 9 9 9 ",
"9 9 9 9 9 9 9 9 9 9 9 9 9 9 9 9 9 q.dXgXmXmXmXmXmXmXmXmXmXmXmXmXmXmXmXmXmXmXmXmXmXmXmXmXmXmXrXrX&X,.y y 4 9 9 9 9 9 9 9 9 9 9 9 ",
"9 9 9 9 9 9 9 9 9 9 9 9 9 9 9 9 9 Q mXmXmXmXmXmXmXmXmXmXmXmXmXmXmXmXmXmXmXmXmXmXmXmXmXmXmXmX9XvXwXK 9 9 9 9 9 9 9 9 9 9 9 9 9 9 ",
"9 9 9 9 9 9 9 9 9 9 9 9 9 9 9 9 9 9 OXmXmXmXmXmXmXmXmXmXmXmXmXmXmXmXmXmXmXmXmXmXmXmXmXmXmXrXmX;XG.9 9 9 9 9 9 9 9 9 9 9 9 9 9 9 ",
"9 9 9 9 9 9 9 9 9 9 9 9 9 9 9 9 9 9 c.mXmXmXmXmXmXmXmXmXmXmXmXmXmXmXmXmXmXmXmXmXmXmXmXmX$XxX9XwXs.9 9 9 9 9 9 9 9 9 9 9 9 9 9 9 ",
"9 9 9 9 9 9 9 9 9 9 9 9 9 9 9 9 9 9 6.mXmXmXmXmXmXmXmXmXmXmXmXmXmXmXmXmXmXmXmXmXmXmXmXmXY.9XmXyXQ 9 9 9 9 9 9 9 9 9 9 9 9 9 9 9 ",
"9 9 9 9 9 9 9 9 9 9 9 9 9 9 9 9 9 9 j 3XmXmXmXmXmXmXmXmXmXmXmXmXmXmXmXmXmXmXmXmXmXmXmXmXmXyX@XK.9 9 9 9 9 9 9 9 9 9 9 9 9 9 9 9 ",
"9 9 9 9 9 9 9 9 9 9 9 9 9 9 9 9 9 9 9 x.mXmXmXmXmXmXmXmXmXmXmXmXmXmXmXmXmXmXmXmXmXmXmXmXQ.mXI.r.9 9 9 9 9 4 i e 4 9 9 9 9 9 9 9 ",
"9 9 9 9 9 9 9 9 9 9 9 9 9 9 9 9 9 9 9 #.mXmXmXmXmXmXmXmXmXmXmXmXmXmXmXmXmXmXmXmXmXmXvXmXvX1X6Xx 9 9 9 9 4 y } ] 9 9 9 9 9 9 9 9 ",
"9 9 9 9 9 9 9 9 9 9 9 4 9 4 9 9 9 9 9 9 M.mXmXmXmXmXmXmXmXmXmXmXmXmXmXmXmXmXmXmXmXmXyXcX8X|.l.9 9 9 9 9 y { +...9 9 9 9 9 9 9 9 ",
"9 9 9 9 9 9 9 9 9 9 4 u { e 9 9 9 9 9 9 &.mXmXmXmXmXmXmXmXmXmXmXmXmXmXmXmXmXmXmXmXyXmX|.>X,XR 9 9 9 9 9 4 y +...a 4 9 9 9 9 9 9 ",
"9 9 9 9 9 9 9 9 9 4 y ] ..e 9 9 9 9 9 9 9 n.mXmXmXmXmXmXmXmXmXmXmXmXmXmXmXmXmXmXD.:X0XmXmXk.9 9 9 9 9 9 9 9 +.+.| 9 9 9 9 9 9 9 ",
"9 9 9 9 9 9 9 9 9 4 | { 9 4 9 9 9 9 9 9 9 L *XmXmXmXmXmXmXmXmXmXmXmXmXmXmXmXmXmX2XxXmXxX Xx 9 9 9 9 9 9 9 4 y ..} 9 9 9 9 9 9 9 ",
"9 9 9 9 9 9 9 9 9 4 _ f 4 4 9 9 9 9 9 9 9 4 ;.yXmXmXmXmXmXmXmXmXmXmXmXmX8XrXrXW.>XrXD.rX>.9 9 9 9 9 9 9 9 9 e _ a 4 9 9 9 9 9 9 ",
"9 9 9 9 9 9 9 9 4 4 u ] 4 9 9 9 9 9 9 9 9 9 4 7.cXmXmXmXmXmXmXmXmXmXxXmXmX`.xX8X`.rX:Xe.9 9 9 9 9 9 9 9 9 9 4 4 4 4 9 9 9 9 9 9 ",
"9 9 9 9 9 9 9 9 9 9 a { 4 9 9 9 9 9 9 9 9 9 9 9 :.XXmXmXmXmXmXmXmXmXW.mX7XxXmXmX9X%X0.9 9 9 9 9 9 9 9 9 9 9 9 9 4 9 9 9 9 9 9 9 ",
"9 9 9 9 9 9 9 9 9 9 i [ 4 4 9 9 9 9 9 9 9 9 9 9 9 l a.L.mX9XnX.Xz.4.8.N.qXyX7XtXv.E 4 9 9 9 9 9 9 9 9 9 9 9 9 9 9 9 9 9 9 9 9 9 ",
"9 9 9 9 9 9 9 9 9 9 4 d _ e 9 9 9 9 9 9 9 9 9 9 9 9 9 9 P T U 9 9 9 9 4 g $.1.@.d _ 8 9 9 9 9 9 9 9 9 9 9 9 9 9 9 9 9 9 9 9 9 9 ",
"9 9 9 9 9 9 9 9 9 9 y ~ y 4 9 9 9 9 9 9 9 9 9 9 9 9 9 9 9 9 9 9 9 9 9 9 9 4 y y 9 y 4 9 9 9 9 9 9 9 9 9 9 9 9 9 9 9 9 9 9 9 9 9 ",
"9 9 9 9 9 9 9 9 9 9 4 4 4 9 9 9 9 9 9 9 9 9 9 9 9 9 9 9 9 9 9 9 9 9 9 9 9 9 9 9 9 9 9 9 9 9 9 9 9 9 9 9 9 9 9 9 9 9 9 9 9 9 9 9 ",
"9 9 9 9 9 9 9 9 9 9 9 9 4 9 9 9 9 9 9 9 9 9 9 9 9 9 9 9 9 9 9 9 9 9 9 9 9 9 9 9 9 9 9 9 9 9 9 9 9 9 9 9 9 9 9 9 9 9 9 9 9 9 9 9 ",
"9 9 9 9 9 9 9 9 9 9 9 9 9 9 9 9 9 9 9 9 9 9 9 9 9 9 9 9 9 9 9 9 9 9 9 9 9 9 9 9 9 9 9 9 9 9 9 9 9 9 9 9 9 9 9 9 9 9 9 9 9 9 9 9 ",
"9 9 9 9 9 9 9 9 9 9 9 9 9 9 9 9 9 9 9 9 9 9 9 9 9 9 9 9 9 9 9 9 9 9 9 9 9 9 9 9 9 9 9 9 9 9 9 9 9 9 9 9 9 9 9 9 9 9 9 9 9 9 9 9 ",
"9 9 9 9 9 9 9 9 9 9 9 9 9 9 9 9 9 9 9 9 9 9 9 9 9 9 6 9 9 9 9 9 9 9 9 9 9 9 9 9 9 9 9 9 9 9 9 9 9 9 9 9 9 9 9 9 9 9 9 9 9 9 9 9 ",
"9 9 9 9 9 9 9 9 9 9 9 9 9 9 9 9 9 9 9 9 9 9 9 9 9 9 4 e 4 9 9 9 9 9 9 9 9 9 9 9 9 9 9 9 9 9 9 9 9 9 9 9 9 9 9 9 9 9 9 9 9 9 9 9 ",
"9 9 9 9 9 9 9 9 9 4 e 4 4 9 9 9 9 9 9 9 9 9 9 9 9 4 y _ r 9 9 9 9 9 9 9 9 9 9 9 9 9 4 4 e 9 9 9 9 9 9 9 9 9 9 9 9 9 9 9 9 9 9 9 ",
"9 9 9 9 9 9 9 9 9 4 ` y 4 4 9 9 9 9 9 9 9 9 9 9 9 y } | i 9 9 9 9 9 9 9 9 9 9 9 9 9 4 9 } e 9 4 9 9 9 9 9 9 9 9 9 9 9 9 9 9 9 9 ",
"9 9 9 9 9 9 9 9 9 4 ..} 4 9 9 9 9 9 9 9 9 9 9 9 9 y ] ] d i 4 9 9 9 9 9 9 9 9 9 9 9 y ) } ..X.u i y 4 9 9 9 9 9 9 9 9 9 9 9 9 9 ",
"9 9 9 9 9 9 9 9 4 9 X.| 4 9 9 9 9 9 9 9 9 9 9 9 9 4 y s _ ] 9 9 9 9 9 9 9 9 9 9 9 9 4 y a } o.} } ` e 9 9 9 9 9 9 9 9 9 9 9 9 9 ",
"9 9 9 9 9 9 4 e s { ] y 4 9 9 9 9 9 9 9 9 9 9 9 9 9 9 4 4 7 4 9 9 9 9 9 9 9 9 9 9 9 9 4 4 4 7 7 7 7 4 9 9 9 9 9 9 9 9 9 9 9 9 9 ",
"9 9 9 9 9 9 9 _ / s r 4 4 9 9 9 9 9 9 9 9 9 9 9 9 9 9 9 9 9 9 9 9 9 9 9 9 9 9 9 9 9 9 9 9 9 9 9 9 9 9 9 9 9 9 9 9 9 9 9 9 9 9 9 ",
"9 9 9 9 9 9 4 9 9 4 6 9 9 9 9 9 9 9 9 9 9 9 9 9 9 9 9 9 9 9 9 9 9 9 9 9 9 9 9 9 9 9 9 9 9 9 9 9 9 9 9 9 9 9 9 9 9 9 9 9 9 9 9 9 ",
"9 9 9 9 9 9 9 9 9 4 9 9 9 9 9 9 9 9 9 9 9 9 9 9 9 9 9 9 9 9 9 9 9 9 9 9 9 9 9 9 9 9 9 9 9 9 9 9 9 9 9 9 9 9 9 9 9 9 9 9 9 9 9 9 ",
"9 9 9 9 9 9 9 9 9 9 9 9 9 9 9 9 9 9 9 9 9 9 9 9 9 9 9 9 9 9 9 9 9 9 9 9 9 9 9 9 9 9 9 9 9 9 9 9 9 9 9 9 9 9 9 9 9 9 9 9 9 9 9 9 "
};
