/* XPM */
static char *ebcb3b7ced4e4d3ca01b6a01eed3db2e7SDd2LuO37UefQdY[] = {
/* columns rows colors chars-per-pixel */
"64 64 213 2 ",
"   c #3E1A02",
".  c #281C17",
"X  c #3B2E24",
"o  c #411B04",
"O  c #421D09",
"+  c #4E1F08",
"@  c #4E2305",
"#  c #452109",
"$  c #4E2909",
"%  c #502506",
"&  c #5D2C06",
"*  c #542809",
"=  c #532C09",
"-  c #5C2D0A",
";  c #5F3006",
":  c #5D310B",
">  c #4D2C1B",
",  c #592E12",
"<  c #5C3311",
"1  c #5D391D",
"2  c #612C07",
"3  c #6D2F06",
"4  c #642D09",
"5  c #682909",
"6  c #7A2D0C",
"7  c #653303",
"8  c #683607",
"9  c #633409",
"0  c #6B340C",
"q  c #6C3B0D",
"w  c #74360E",
"e  c #78370D",
"r  c #623512",
"t  c #6C3412",
"y  c #653816",
"u  c #6C3C12",
"i  c #643D1D",
"p  c #693A19",
"a  c #743611",
"s  c #753A15",
"d  c #7A3A14",
"f  c #773A19",
"g  c #573823",
"h  c #442E32",
"j  c #4A3136",
"k  c #573A37",
"l  c #6A3D25",
"z  c #723D23",
"x  c #623C35",
"c  c #6F4217",
"v  c #6F4318",
"b  c #704419",
"n  c #764719",
"m  c #7D421E",
"M  c #764A1D",
"N  c #584135",
"B  c #6A4325",
"V  c #794A27",
"C  c #7D5025",
"Z  c #674737",
"A  c #624639",
"S  c #744436",
"D  c #4B3C4A",
"F  c #3F4666",
"G  c #56454D",
"H  c #44425D",
"J  c #684848",
"K  c #6E564D",
"L  c #7F6745",
"P  c #424565",
"I  c #474866",
"U  c #42456B",
"Y  c #484B72",
"T  c #555273",
"R  c #575779",
"E  c #51547F",
"W  c #6A5665",
"Q  c #655A75",
"!  c #6B6268",
"~  c #7A6365",
"^  c #77697B",
"/  c #8B2F0D",
"(  c #8A360E",
")  c #913A14",
"_  c #9B3A10",
"`  c #A3350E",
"'  c #B43B0E",
"]  c #B93D0E",
"[  c #A73B11",
"{  c #864617",
"}  c #905119",
"|  c #AB4E19",
" . c #BC5219",
".. c #844825",
"X. c #805428",
"o. c #8B5030",
"O. c #8A5432",
"+. c #835D38",
"@. c #BF592F",
"#. c #8A623A",
"$. c #95693A",
"%. c #AA6728",
"&. c #A77025",
"*. c #CC5615",
"=. c #C35118",
"-. c #D55614",
";. c #D45913",
":. c #D95916",
">. c #D7621B",
",. c #D76E2B",
"<. c #DE7532",
"1. c #8A614D",
"2. c #966D4D",
"3. c #9D7244",
"4. c #9A7958",
"5. c #A17646",
"6. c #A27556",
"7. c #A17953",
"8. c #8E776C",
"9. c #CD7846",
"0. c #D57B44",
"q. c #BD8235",
"w. c #9C815F",
"e. c #B58B47",
"r. c #B28659",
"t. c #9F846A",
"y. c #A68667",
"u. c #B78962",
"i. c #B49164",
"p. c #AD9175",
"a. c #B19171",
"s. c #BB9C7D",
"d. c #BDA07D",
"f. c #DD8546",
"g. c #D3954E",
"h. c #CC8B5B",
"j. c #E48B47",
"k. c #E38B4C",
"l. c #E39453",
"z. c #DAB057",
"x. c #EDB44A",
"c. c #C39967",
"v. c #DC9968",
"b. c #E48D71",
"n. c #E49376",
"m. c #D5AB78",
"M. c #ECAC71",
"N. c #E9B97C",
"B. c #525581",
"V. c #565A86",
"C. c #5C5C84",
"Z. c #5A5D8B",
"A. c #5D5F91",
"S. c #605E83",
"D. c #5D618E",
"F. c #5E6190",
"G. c #776F92",
"H. c #696DA4",
"J. c #6E73AB",
"K. c #7575A7",
"L. c #777BB0",
"P. c #777EBA",
"I. c #797DBA",
"U. c #837B94",
"Y. c #7E82B2",
"T. c #B79C81",
"R. c #BD9E82",
"E. c #BF9F83",
"W. c #BCA388",
"Q. c #BDA993",
"!. c #8388BA",
"~. c #9693B9",
"^. c #ABA0A6",
"/. c #B3ABB6",
"(. c #C09F83",
"). c #D5AD82",
"_. c #DCB485",
"`. c #C4AF96",
"'. c #C8AD92",
"]. c #C3B099",
"[. c #C9B39E",
"{. c #E7B982",
"}. c #ECBD85",
"|. c #E9BF8C",
" X c #F3BD86",
".X c #CBB6A2",
"XX c #D1BBA0",
"oX c #EEC287",
"OX c #EAC28C",
"+X c #F3C385",
"@X c #F4C58B",
"#X c #F5C98B",
"$X c #F8C88B",
"%X c #EAC89F",
"&X c #F7C891",
"*X c #F4CA91",
"=X c #D7C4AC",
"-X c #D6C4B0",
";X c #D8C8B6",
":X c #DACDB9",
">X c #EDD2AE",
",X c #E6D2B7",
"<X c #EAD3BA",
"1X c #EBD5BA",
"2X c #D9CBC2",
"3X c #D4CBCB",
"4X c #E8D8C6",
"5X c #EDDCC5",
"6X c #F0DCC5",
"7X c #F6E3CC",
"8X c #F9E5CB",
"9X c #FAE6D2",
"0X c #FCE8D0",
/* pixels */
"7 7 7 7 7 c 7 7 7 7 7 7 7 7 7 7 7 7 7 7 7 v b b b 7 7 7 7 7 7 7 7 7 7 7 7 7 7 7 7 7 7 7 7 7 7 7 7 7 7 7 7 7 7 7 7 7 7 7 7 7 7 7 ",
"7 7 7 v c 7 7 7 7 7 7 7 7 7 7 7 7 7 7 7 7 7 7 7 b c 7 7 7 7 7 7 7 7 7 7 7 7 7 7 c v 7 7 7 c b b c 7 7 7 7 7 7 7 7 7 7 7 7 7 7 7 ",
"7 7 b b 7 7 7 7 7 7 7 7 7 7 7 7 7 7 7 7 7 7 7 7 7 7 7 7 7 7 7 7 7 7 7 7 7 7 7 7 7 7 b b b 7 7 7 7 7 7 7 7 7 7 7 7 7 7 7 7 7 7 7 ",
"7 7 b 7 7 7 7 7 7 7 7 7 7 7 7 7 7 7 7 7 7 7 7 7 7 7 7 7 7 7 9 9 9 7 7 7 7 7 7 7 7 7 7 7 7 7 7 7 7 7 7 7 7 7 7 7 7 7 7 7 7 7 7 7 ",
"7 7 7 7 7 7 7 7 7 7 7 7 7 7 7 7 7 7 7 7 7 7 7 7 7 7 7 7 7 7 s s s s 0 7 7 7 7 7 7 7 7 7 7 7 7 7 7 7 7 7 7 7 7 7 7 7 7 7 7 7 v b ",
"7 7 7 7 7 7 7 7 7 7 7 7 7 7 7 7 7 7 7 7 7 7 7 7 7 7 7 7 q u d &.q.d u u 7 7 7 7 7 7 7 7 7 7 7 7 7 7 7 7 7 7 7 7 7 7 7 7 7 7 7 v ",
"7 7 7 7 7 7 7 7 7 7 7 7 7 7 7 7 7 7 7 7 7 7 7 7 7 7 7 9 u d d q.g.d d s 9 7 7 7 7 7 7 7 7 7 7 7 7 7 7 7 7 c 7 7 7 7 7 7 7 7 7 7 ",
"7 7 7 7 7 7 7 7 7 7 7 7 7 7 7 7 7 7 7 7 7 7 7 7 7 7 9 a a e e e e e a e a 0 7 7 7 7 7 7 7 7 7 7 7 7 7 7 7 7 b 7 7 7 7 7 7 7 7 7 ",
"7 7 7 7 7 7 7 7 7 7 7 7 7 c 7 7 7 7 7 7 7 7 7 7 7 2.p.s.W.E.E.E.E.E.E.(.E.s.y.u 7 7 7 7 7 7 7 7 7 7 7 7 7 7 b 7 7 7 7 7 7 7 7 7 ",
"7 7 7 7 7 7 7 7 7 7 7 7 b b 7 7 9 9 9 7 7 7 7 7 u '.<X<X1X1X1X1X1X1X1X1X1X,X=XC 7 7 7 7 7 9 9 9 7 7 7 7 7 7 b v 7 7 7 7 7 7 7 7 ",
"7 7 7 7 7 7 7 7 7 7 b b b v 7 7 : - < 9 7 7 7 0 f m { V ..m m m m m m m V m m f q 7 7 7 7 : - - 9 7 7 7 7 7 7 b b c 7 7 7 7 7 7 ",
"7 7 7 7 7 7 7 7 7 7 b b 7 7 9 : 9 : - : : : - 9 t t 0 0 ( _ _ _ _ _ _ ) w t t t 9 : : : : - : 9 : : 7 7 7 7 b b 7 7 7 7 7 7 7 7 ",
"7 7 7 7 7 7 7 7 7 7 v 7 7 7 : : 9 : - & & - - - 2 3 3 3 ` ] ] ] ] ] ] [ 6 0 3 2 2 & 2 & - 2 : 9 : : 7 7 7 7 7 7 7 7 7 7 7 7 7 7 ",
"7 7 7 7 7 7 7 7 7 7 7 c 7 7 7 9 : - & 2 2 2 & 2 4 | *.*.;.-.-.-.-.;.-.-.*.*. .0 - & & 2 & 2 - - 9 7 7 7 7 7 7 7 7 7 7 7 7 7 7 7 ",
"7 7 7 7 7 7 7 7 7 7 7 b 7 7 7 7 ; & @ @ % @ @ - ( =.>.k.k.k.k.k.k.j.,.:.:.:.-.( 3 @ @ @ @ % = ; 7 7 7 7 7 7 7 7 7 7 7 7 7 7 7 7 ",
"7 7 7 7 7 7 7 7 7 7 7 7 7 7 7 7 7 = o o       5 ' -.<.@X*X#X#X#X$X+Xf.>.>.>.-.] / o       o $ 7 7 7 7 7 7 7 7 7 7 7 7 7 7 7 7 7 ",
"7 7 7 7 7 7 7 7 7 7 7 7 7 7 7 7 7 9 ; # o     5 ' -.<.@X@X@X#X#XN.,.l.M.N.j.-.] /       o & 9 7 7 7 7 7 7 7 7 7 7 7 7 7 7 7 7 7 ",
"7 7 7 7 7 7 7 7 7 7 7 7 7 7 7 7 7 7 7 = @     t 9.0.l.@Xi.y.@X#XoXj.r.w.*XM.f.9...    # % 7 7 7 7 7 7 7 7 7 7 7 7 7 7 7 7 7 7 7 ",
"7 7 7 7 7 7 7 7 7 7 7 7 7 7 7 7 7 7 7 7 & o   V *X}.}.@XN X OX#X#X*XK . OX@X}.*X7.o O $ 7 7 7 7 7 7 7 7 7 7 7 7 7 7 7 7 7 7 7 7 ",
"7 7 7 7 7 7 7 7 7 7 7 7 7 7 7 7 7 7 7 7 7 ; o V #X}.}.$X_.).@X#X#X#X_.).+XoX{.#X7.O & 9 7 7 7 7 7 7 7 7 7 7 7 7 7 7 7 7 7 7 7 7 ",
"7 7 7 7 7 7 7 7 7 7 7 7 7 7 7 7 7 7 7 7 7 7 = B u.h.v.@X#X#X#X@X@X$X$X*X@XM.h.u.+.$ 9 7 7 7 7 7 7 7 7 7 c b b b 7 7 7 7 7 7 7 7 ",
"7 7 7 7 7 7 7 7 7 7 7 7 7 7 7 7 7 7 7 7 7 7 7 &   / @.}.@X#X$X@X@X*X#X$X@X9.` O = 7 7 7 7 7 7 7 7 7 7 7 7 b b b 7 7 7 7 7 7 7 7 ",
"7 7 7 7 7 7 7 7 7 7 7 7 7 7 7 7 7 7 7 7 7 7 7 9 9 | ,.}.@X Xb.b.b.b.{.$X@Xk. .9 9 7 7 7 7 7 7 7 7 7 7 7 7 7 b b b 7 7 7 7 7 7 7 ",
"7 7 7 7 7 7 7 7 7 7 7 7 7 7 v c 7 7 7 7 7 7 7 7 7 { %.N.@X}.n.n.n.n.{.@XoXh.o.0 7 7 7 7 7 7 7 7 7 7 7 7 7 7 7 7 b c 7 7 7 7 7 7 ",
"7 7 7 7 7 7 7 7 7 7 7 7 7 b b 7 7 7 7 7 7 7 7 7 7 7 C _.|.|. XoXoXoXOX|.OX8.G 9 7 7 7 7 7 7 7 7 7 7 7 7 7 7 7 7 7 7 7 7 7 7 7 7 ",
"7 7 7 7 7 7 7 7 7 7 7 7 b b 7 7 7 7 7 7 7 7 7 7 7 7 i W ! 8.N.{.{.N.t.! ! Z r 7 7 7 7 7 7 7 7 7 7 7 7 7 7 7 7 7 7 7 7 7 7 7 7 7 ",
"7 7 7 7 7 7 7 7 7 7 b b b 7 7 7 7 7 7 7 7 7 7 7 7 B Z T E Q T.s.E.s.~ D D N B 7 7 7 7 7 7 7 7 7 7 7 7 7 7 7 7 7 7 7 7 7 7 7 7 7 ",
"7 7 7 7 7 7 7 7 7 7 b b b 7 7 7 7 7 7 7 7 7 7 7 u ^ L.I.I.J.I I I I k - - W G.u 7 7 7 7 7 7 7 7 7 7 7 7 7 7 7 7 7 7 7 7 7 7 7 7 ",
"7 7 7 7 7 7 7 7 7 7 7 c 7 7 7 7 7 7 7 7 7 7 7 X.W.U.P.I.P.P.H.H.K.^.1.a a l J w.+.7 7 7 7 7 7 7 7 7 7 7 7 7 7 7 7 7 7 7 7 7 7 7 ",
"7 7 7 7 7 7 7 7 7 7 7 7 7 7 7 7 7 7 7 7 7 7 b y.3X~.P.I.K.K.I.!.~.2X6.d } d p [.4.C q 7 7 7 b b 7 7 7 b 7 7 7 7 7 7 7 7 7 7 7 7 ",
"7 7 7 7 7 7 7 7 7 7 7 7 7 7 7 7 7 7 7 7 7 8 '.3XY.I.I.I.J x L./.;X;X6.{ x.&.p .X:X=XM 7 7 7 7 b b b b b 7 7 7 7 7 7 7 7 7 7 7 7 ",
"7 7 7 7 7 7 7 7 7 7 7 7 7 7 7 7 7 7 7 7 M E.5X4X/.~ J J l V /.2X5X:X6.d %.{ p .X4X7X'.#.7 7 7 7 b 7 7 7 7 7 7 7 7 7 7 7 7 7 7 7 ",
"7 7 7 7 7 7 7 7 7 7 7 7 7 7 7 7 7 7 7 c 4.9X9X,XW.V 2 2 w O.-X5X8X:X6.d d 0 y p.=X7X9Xs.n 7 7 7 7 7 7 7 7 7 7 7 7 7 7 7 7 7 7 7 ",
"7 7 7 7 7 7 7 7 7 7 7 7 7 7 7 7 7 7 7 XX8X0X:Xp.7 : 4 s d O.-X5X8X:X6.d d 0 - 9 4.;X7X0X4XM 7 7 7 7 7 7 7 7 7 7 7 7 7 7 7 7 7 7 ",
"7 7 7 7 7 7 7 7 7 7 7 7 7 7 7 7 7 M a.6X0X0X:Xp.7 : 4 f f O.-X5X8X:X6.d f 0 - 9 4.;X7X0X7Xa.#.7 7 7 7 7 7 7 7 7 7 7 7 7 7 7 7 7 ",
"7 7 7 7 7 7 7 7 7 7 7 7 7 7 7 7 7 3.8X8X8X7X[.4.7 : 4 f d O.-X6X8X:X6.d d 0 - 7 #.].5X8X8X8Xd.7 7 7 7 7 7 7 7 7 7 7 7 7 7 7 7 7 ",
"7 7 7 7 7 7 7 7 7 7 7 7 7 7 7 7 7 $.*X$X%X-XM 7 7 : 4 f d O.-X6X8X:X6.d f 0 - 7 7 u `.%X#X*Xr.7 7 7 7 7 7 7 7 7 7 7 7 7 7 7 7 7 ",
"7 7 7 7 7 7 7 7 7 7 7 7 7 7 7 0 $.c.$X#X%X-XV 7 7 : 4 f d O.-X5X7X;X6.d d 0 - 7 7 q XX>X$X@Xm.5.q 7 7 7 7 7 7 7 7 7 7 7 7 7 7 7 ",
"7 7 7 7 7 7 7 7 7 7 7 7 7 7 7 s c.N.@X#X|.Q.b 7 v : 4 f s o.[.,X1X.X2.s f 0 - 7 7 q '.%X@X$X}.m.M 7 7 7 7 7 b v 7 7 7 7 7 7 7 7 ",
"7 7 7 7 7 7 7 7 7 7 7 7 7 7 7 7 q 3.@X@Xi.u 7 7 b r 4 s * O > e.z.> # + s 0 - 9 7 7 u 5.@X@Xr.c 7 7 7 7 7 b b b 7 7 7 7 7 7 7 7 ",
"7 7 7 7 7 7 7 7 7 7 7 7 b 7 7 7 7 M 5.3.#.7 7 7 v : r x j h h L 4.h h h k i : 7 7 7 7 M 5.3.X.7 7 7 7 7 7 7 b b 7 7 7 7 7 7 7 7 ",
"7 7 7 7 7 7 7 7 7 7 7 v b 7 7 7 7 7 7 7 7 7 7 v b < g H U F U P P U P P P k : 9 7 7 7 7 7 7 7 7 7 7 7 7 7 7 b b b 7 7 7 7 7 7 7 ",
"7 7 7 7 7 7 7 7 7 7 b b 7 7 7 7 7 7 7 7 7 7 b b b 9 l R Z.V.V.Z.Z.V.V.V.V.A 9 7 7 7 7 7 7 7 7 7 7 7 7 7 7 7 7 b b 7 7 7 7 7 7 7 ",
"7 7 7 7 7 7 7 7 7 7 c 7 7 7 7 7 7 7 7 7 7 7 7 c 7 7 i C.D.A.Z.V.B.Z.A.D.D.A 7 7 7 7 7 7 7 7 7 7 7 7 7 7 7 7 7 c 7 7 7 7 7 7 7 7 ",
"7 7 7 7 7 7 7 7 7 7 7 v 7 7 7 7 7 7 7 7 7 7 7 7 7 7 i C.D.Z.D.Y U D.D.D.Z.A 7 7 7 7 7 7 7 7 7 7 7 7 7 7 7 7 7 7 7 7 7 7 7 7 7 7 ",
"7 7 7 7 7 7 7 7 7 7 7 b 7 7 7 7 7 7 7 7 7 7 7 7 7 7 i C.D.Z.Y U P Y B.D.D.A 7 b b v 7 7 7 7 7 7 7 7 7 7 7 7 7 7 7 7 7 7 7 7 7 7 ",
"7 7 7 7 7 7 7 7 7 7 7 b 7 7 7 7 7 7 7 7 7 7 7 7 7 7 i C.D.V.P P P U E D.D.K b b b 7 7 7 7 7 7 7 7 7 7 7 7 7 7 7 7 7 7 7 7 7 7 7 ",
"7 7 7 7 7 7 7 7 7 7 7 7 c 7 7 7 7 7 7 7 7 7 7 7 7 7 i C.D.V.P H P P E D.D.A v b 7 c 7 7 7 7 7 7 7 7 7 7 7 7 7 7 7 7 7 7 7 7 7 7 ",
"7 7 7 7 7 7 7 7 7 7 7 c 7 7 7 7 7 7 7 7 7 7 7 7 7 7 i C.D.V.P g < H E D.Z.A 7 7 7 7 7 7 7 7 7 7 7 7 7 7 7 7 7 7 7 7 7 7 7 7 7 7 ",
"7 7 7 7 7 7 7 7 7 7 7 7 7 7 7 7 7 7 7 7 7 7 7 7 7 7 i C.D.V.P 1 9 H B.F.D.A 7 7 7 7 7 7 7 7 7 7 7 7 7 7 7 7 7 7 7 7 7 7 7 7 7 7 ",
"7 7 7 7 7 7 7 7 7 7 7 7 7 7 7 7 7 7 7 7 7 7 7 7 7 7 i C.D.V.P 1 9 H B.D.D.A 7 7 7 7 7 7 7 7 7 7 7 7 7 7 7 7 7 7 7 7 7 7 7 7 7 7 ",
"7 7 7 7 7 7 7 7 7 7 7 7 7 7 7 7 7 7 7 7 7 7 7 7 7 7 i C.D.V.P 1 9 H B.D.A.A 7 7 7 7 7 7 7 7 7 7 7 7 7 7 7 7 7 7 7 7 7 7 7 7 7 7 ",
"7 7 7 7 7 7 7 7 7 7 7 7 7 7 7 7 7 7 7 7 7 7 7 7 7 7 y W S.V.D 1 9 D T D.Q B 7 7 7 7 7 7 7 7 7 7 7 7 7 7 7 7 7 7 7 7 7 7 7 7 7 7 ",
"7 7 7 7 7 7 7 7 7 7 7 7 7 7 7 7 7 7 7 7 7 7 7 7 7 7 9 f W T , 9 9 - G Q z t 7 7 7 7 7 7 7 7 7 7 7 7 7 7 7 7 7 7 7 7 7 7 7 7 7 7 ",
"7 7 7 7 7 7 7 7 7 7 7 7 7 7 7 7 7 7 7 7 7 7 7 7 7 7 0 s S Z - 9 9 - l S f 0 7 7 7 7 7 7 7 7 7 7 7 7 7 7 7 7 7 7 7 7 7 7 7 7 7 7 ",
"7 7 7 7 7 7 7 7 7 7 7 7 7 7 7 7 7 7 7 7 7 7 7 7 7 7 0 d d w & 9 9 - t d d 0 7 7 7 7 7 7 7 7 7 7 7 7 7 7 7 7 7 7 7 7 7 7 7 7 7 7 ",
"7 7 7 7 7 7 7 7 7 7 c 7 7 7 7 7 7 7 7 7 7 7 7 7 7 7 b s f a - 9 9 - 0 f d 0 7 7 7 7 7 7 b 7 7 7 7 7 7 7 7 7 7 7 7 7 7 7 7 7 7 7 ",
"7 7 7 7 7 7 7 7 7 7 b b 7 7 7 7 7 7 7 7 7 7 7 9 : 0 b f w 9 - 9 9 - 4 0 d 0 : 7 7 7 7 c b b b 7 7 7 7 7 7 7 7 7 7 7 7 7 7 7 7 7 ",
"7 7 7 7 7 7 7 7 7 7 b b 7 7 7 7 7 7 7 7 7 7 7 9 - a a e r < & 9 9 - - : s 0 - 9 7 7 7 7 7 b b b b c 7 7 7 7 7 7 7 7 7 7 7 7 7 7 ",
"7 7 7 7 7 7 7 7 7 b v 7 7 7 7 7 7 7 7 7 7 7 7 9 - & & - 9 9 - 9 9 , : 9 , - 2 - : 7 7 7 7 7 7 7 7 7 7 7 7 7 7 7 7 7 7 7 7 7 7 7 ",
"7 7 7 7 7 7 7 c c 7 7 7 7 7 7 7 7 7 7 7 7 7 7 7 : : ; ; 9 7 ; 9 7 : 9 7 : 9 9 9 9 7 7 7 7 7 7 7 7 7 7 7 7 7 7 7 7 7 7 7 7 7 7 7 ",
"7 7 7 7 7 7 7 7 7 7 7 7 7 7 7 7 7 7 7 7 7 7 7 7 7 7 7 7 7 7 7 7 7 7 7 7 7 7 7 7 7 7 7 7 7 7 7 7 7 7 7 7 7 7 7 7 7 7 7 7 7 7 7 7 ",
"7 7 7 7 7 7 7 7 7 7 7 7 7 7 7 7 7 7 7 7 7 7 7 7 7 7 7 7 7 7 7 7 7 7 7 7 7 7 7 7 7 7 7 7 7 7 7 7 7 7 7 7 7 7 7 7 7 7 7 7 7 7 7 7 ",
"7 7 7 7 7 7 7 7 7 7 7 7 7 7 7 7 7 7 7 7 7 7 7 7 7 7 7 7 7 7 7 7 7 7 7 7 7 7 7 7 7 7 7 7 7 7 7 7 7 7 7 7 7 7 7 7 7 7 7 7 7 7 7 7 "
};
