/* XPM */
static char *result[] = {
/* columns rows colors chars-per-pixel */
"64 64 226 2 ",
"   c #201D1E",
".  c #261D23",
"X  c #302C2F",
"o  c #59300E",
"O  c #593112",
"+  c #653303",
"@  c #683307",
"#  c #64350B",
"$  c #6B340B",
"%  c #6D390E",
"&  c #6E2F11",
"*  c #732F15",
"=  c #762D1B",
"-  c #792E1D",
";  c #6E3111",
":  c #6E3A11",
">  c #723213",
",  c #713B14",
"<  c #79361C",
"1  c #753E1A",
"2  c #403B3D",
"3  c #7D2D24",
"4  c #7E2D28",
"5  c #793822",
"6  c #6F4217",
"7  c #6F4318",
"8  c #71431A",
"9  c #78411E",
"0  c #754522",
"q  c #7B4324",
"w  c #7C4727",
"e  c #674B38",
"r  c #183044",
"t  c #213C4C",
"y  c #284455",
"u  c #334652",
"i  c #1E516F",
"p  c #2E4C62",
"a  c #53474E",
"s  c #4A4D54",
"d  c #4E6A79",
"f  c #69606D",
"g  c #832D27",
"h  c #832C2B",
"j  c #86352A",
"k  c #8B2B34",
"l  c #8D293A",
"z  c #942A3D",
"x  c #94283E",
"c  c #8B3635",
"v  c #95363B",
"b  c #80462A",
"n  c #82492C",
"m  c #884A34",
"M  c #8C4E3D",
"N  c #825135",
"B  c #8D523C",
"V  c #982944",
"C  c #9D2B4C",
"Z  c #9B3546",
"A  c #A22A4B",
"S  c #A2344C",
"D  c #A7384D",
"F  c #A82956",
"G  c #AC2D5A",
"H  c #B12A5F",
"J  c #A83553",
"K  c #B4395B",
"L  c #B52B64",
"P  c #B42F6C",
"I  c #BA2969",
"U  c #BC2A6B",
"Y  c #BA3467",
"T  c #BC2F73",
"R  c #C1296E",
"E  c #C23A6A",
"W  c #C62977",
"Q  c #CC2C7C",
"!  c #D12F7D",
"~  c #C63675",
"^  c #CA3D75",
"/  c #CD3B7A",
"(  c #D2337D",
")  c #D23C7B",
"_  c #935345",
"`  c #96534A",
"'  c #995A4D",
"]  c #9A5C53",
"[  c #BC415F",
"{  c #A25C59",
"}  c #9D6255",
"|  c #A3625C",
" . c #BE4266",
".. c #AA5965",
"X. c #A85171",
"o. c #916E76",
"O. c #AB6567",
"+. c #B16B6F",
"@. c #B36673",
"#. c #B96B78",
"$. c #B87778",
"%. c #C14662",
"&. c #CA466E",
"*. c #C94373",
"=. c #D4447C",
"-. c #D6487A",
";. c #C06F7F",
":. c #337190",
">. c #4D728F",
",. c #6A788E",
"<. c #D32E80",
"1. c #CA3A81",
"2. c #D53583",
"3. c #D63B84",
"4. c #DB3C84",
"5. c #DD3E89",
"6. c #BD7483",
"7. c #BE7B80",
"8. c #B4778D",
"9. c #CE4587",
"0. c #DD4384",
"q. c #DB4589",
"w. c #DA4988",
"e. c #CD568F",
"r. c #D75995",
"t. c #E14386",
"y. c #E4448B",
"u. c #E6488A",
"i. c #E64A8C",
"p. c #EA4B8E",
"a. c #F0508F",
"s. c #E54991",
"d. c #ED4E91",
"f. c #F04E92",
"g. c #EF5092",
"h. c #EB5999",
"j. c #F05194",
"k. c #C46D84",
"l. c #C7768C",
"z. c #CA689B",
"x. c #D6639A",
"c. c #CA7B93",
"v. c #CC7995",
"b. c #D57A9A",
"n. c #E8669E",
"m. c #D976A3",
"M. c #E968A3",
"N. c #F063A2",
"B. c #E677A9",
"V. c #568FA7",
"C. c #76A4B8",
"Z. c #7EC8F1",
"A. c #948F9A",
"S. c #AC8695",
"D. c #9A94A4",
"F. c #AB9CAD",
"G. c #99ACB1",
"H. c #B2ADB4",
"J. c #CD8595",
"K. c #C78990",
"L. c #D1849C",
"P. c #E38290",
"I. c #D584A3",
"U. c #D58AA4",
"Y. c #DB87A9",
"T. c #DD8DAD",
"R. c #CC9CAB",
"E. c #DC96AA",
"W. c #E087AF",
"Q. c #E19BAE",
"!. c #E38CB5",
"~. c #E98AB5",
"^. c #F289B5",
"/. c #E695B5",
"(. c #E694BC",
"). c #E994BD",
"_. c #E79AB9",
"`. c #EA9BBC",
"'. c #F39BBF",
"]. c #CEA4B7",
"[. c #D9A9BB",
"{. c #EAACB0",
"}. c #E8A6BA",
"|. c #ECA3BE",
" X c #FCF19B",
".X c #F7CDB6",
"XX c #FDE1A7",
"oX c #BE9FC5",
"OX c #95BCCF",
"+X c #A9BFD9",
"@X c #C69EC1",
"#X c #E899C1",
"$X c #EB9AC2",
"%X c #F49FC6",
"&X c #D1AFC5",
"*X c #C3B7C4",
"=X c #C2BFD5",
"-X c #D8BBD1",
";X c #EDA5C1",
":X c #EEABC2",
">X c #EAAFCA",
",X c #F1A4C3",
"<X c #F2ACC5",
"1X c #F4ADC9",
"2X c #FBAECE",
"3X c #EAB6C8",
"4X c #EBBBCD",
"5X c #F3B1C6",
"6X c #F2BEC5",
"7X c #F6B5CA",
"8X c #F9B6CD",
"9X c #F6B9CB",
"0X c #F8B9CC",
"qX c #E8BAD1",
"wX c #F4BDD1",
"eX c #ACC5DD",
"rX c #8AC5E7",
"tX c #97C7E5",
"yX c #B3D7E0",
"uX c #CDC8D4",
"iX c #EDCCCF",
"pX c #E5C9D3",
"aX c #F6C5D4",
"sX c #EFDCE6",
"dX c #EBEEF4",
"fX c #F7FAFA",
/* pixels */
"+ + + + + 7 + + + + + + + + + + + + + + + 7 8 8 8 @ + + + + + + + + + + + + + + + + + + + + + + + + + + + + + + + + + + + + + + ",
"+ + + 6 6 + + + + + + + + + + + + + + + + + $ > w 1 $ + + + + + + + + + + + + + 7 7 + + + 7 7 7 8 + + + + + + + + + + + + + + + ",
"+ + 7 7 + + + + + + + @ + + + + + + + + + 5 G 2.5.! U c > + + + + + + + + + + + + + 7 8 7 + + + + + + + + + + + + + + + + + + + ",
"+ @ 7 @ + + + + = 4 g j c c g = + + + + >  .j.j.d.d.d.y.J > + + + + + + + + + + + + + + + + + + + + + + + + + + + + + + + + + + ",
"+ + + + + + & 4 P <.2.t.p.i.2.Y j ; h 3 Z y.d.j.f.f.g.f.i.Z @ + + + + + + + + + + + + + + + + + + + + + + + + + + + + + + + 7 7 ",
"+ + + + + + h T q.d.d.a.j.a.a.p.) K 2.~ &.d.g.d.f.d.g.g.p./ % + + + + + + + + + + + + + + + + + + + + + o + + + + + + + + + + 7 ",
"+ + + + + = L s.g.g.g.j.f.j.f.p.y.p.3.d.d.d.g.d.d.g.g.d.j.-.b 6 7 @ + + + + + + + + + + + + + + + + + + + 6 + + + + + + + + + + ",
"+ + + + + k 3.d.g.g.g.g.f.j.j.u.( i.5.d.g.d.j.d.g.d.g.d.i.-.b 4 C Z 1 + + + + + + + + + + + + + + + + + + + 8 + + + + + + + + + ",
"+ + + + + k 3.g.j.g.g.g.d.g.g.d.y.f.d.d.d.d.j.d.d.j.f.u.y.( K *.3./ G c + + + + + + + + + + + + + + + + + + 8 + + + + + + + + + ",
"+ + + + + k 2.g.a.a.d.i.<.Q Q 2.i.Q 2.d.j.d.y.i.d.f.y.p.p.y.y.f.g.d.q.U 3 + + + + + + + + + + + + + + + + + 8 7 + + + + + + + + ",
"+ + + + + > Y j.g.g.~ v b j 3 h G Q y.d.d.d.d.d.d.g.p.p.f.f.p.j.g.d.d.2.z @ + + + + + + + + + + + + + + + + + 7 7 7 + + + + + + ",
"+ + + + + + V t.g.( c 8 @ + + o 5 X.5.j.f.j.d.d.d.d.d.p.p.f.j.a.g.d.d.d.R g + + + + + + + + + + + + + + + + 7 7 + + + + + + + + ",
"+ + + + + + 3 E d.S 9 @ + + o O w 6.M.d.p.i.a.j.g.i.p.t.a.g.g.h.h.M.g.g.1.k + + + + + + + + + + + + + + + + + + + + + + + + + + ",
"+ + + + @ $ @ C 0.Z ; 6 + + O O o.|.W.5.s.9.9.B.~.e.w.i.g.g.n.|.<X`.n.g.2.k + + + 6 7 + + + + + + + + + + + + + + + + + + + + + ",
"+ + + + c D < - E W 3 8 + # e >.>.2X<X).5X<X|.5X7X<X1XW.h.M.<X7X0X<XM.g.3.z + + + + 7 @ + + + + + + + + + + + + + + + + + + + + ",
"+ + + + j ^ t.Y R y.v $ @ e d C.,.7X0X7X9X0X0X0X0X0X8X1X~.>X9X0X0X|.M.g.y.v + + + 6 7 + + + + + + + + + + + + + + + + + + + + + ",
"+ + + + $ Z w.p.a.a.R = 9 f s sX3X9X0X0X0X0X0X0X0X0X0X0X0X0X0X7X1X,XM.d.3.k + + , + + + + + + + + + + + + + + + + + + + + + + + ",
"+ + + + + $ z %.&.&.G < o.s f pX9X0X7X7X0X0X0X0X9X9X0X0X0X0X0X5X_.,XN.d.2.k + + , + + + + + + + + + + + + + + + + + + + + + + + ",
"+ + + + + + + + + + o % F.A.o.}.9X0X9X3XR.S.S.}.9X9X9X0X0X0X8X2X7X^.d.y.E g + + # + + + + + + + + + + + + + + + + + + + + + + + ",
"+ + + + + + + + + + + 6 G.a S.8X9X9XaXpXA.u t D.4X9X9X0X0X0X0X8X;Xn.p./ h + + + + + + + + + + + + + + + + + + + + + + + + + + + ",
"+ + + + + + + + w } ] N F.8.:X0X.X[.pXOXC.:.V.yXF.[.iX9X0X0X0X7X^.d.q.Z $ + + + + + + + + + + + + + + + 6 7 8 8 + + + + + + + + ",
"+ + + + + + + + O.|.}.J.@X7X0X0X3X*XC.:.y t G.fXH.].3X6X0X0X1X^.h.d.w.K v * + + + + + + + + + + + + + + + 7 8 7 + o + + + + + + ",
"+ + + + + + + + @.;X}.1X8X0X9XaXsXeXi r . a uXfXfXpX3X>Xz.r.r.w.d.d.j.f.0.C & + + + + + + + + + + + + + + + 7 7 8 + + + + + + + ",
"+ + + + + + + + O.|.<X0X8X8X0XaXfXrXV.X 2 2 H.fXsX].X.x.w.0.4.i.d.g.g.j.d.~ 3 + + + + + + = x C z < @ + + + + + 6 6 + + + + + + ",
"+ + + + + + + + 9 l.5X7XK.3X0XaXdXrXd X X   t ,.&Xe.T r.g.g.g.d.d.j.g.g.j.( g + + + $ C F / 0.t.4.~ F l $ + + + + + + + + + + + ",
"+ + + + + + + + + 9 B B } {.0XaXdXyXd   . X u A.z.3.d.g.g.g.g.g.g.j.g.g.a.( g + @ V Y t.y.d.d.f.d.p.5./ H 3 + + + + + + + + + + ",
"+ + + + + + + + + + 6 0 l.}.0X0XpXOX:.p y ,.H.>Xr.i.g.g.g.g.g.f.g.g.g.f.p.Y = @ A 4.i.p.d.d.d.d.p.f.d.p.y.L = + + + + + + + + + ",
"+ + + + + + + + + + 8 _ E.7X0X9X6XpX].H.S.&X2X2XN.d.g.g.g.g.j.d.g.g.j.p.) k & A 4.d.j.u.d.d.d.d.p.p.f.d.d.! 4 + + + + + + + + + ",
"+ + + + + + + + + + + 0 | Q.5X9X0X0X7X6X3X:X,X%XN.d.d.f.f.d.f.f.a.a.p.0.Z > C 4.p.j.j.p.d.g.g.d.f.d.j.d.d.d.c @ + + + + + + + + ",
"+ + + + + + + + + + + + % n l.{.}.<X0X0X7XY.r.h.d.3.p.f.f.d.y.y.u.w.^ z $ z 4.p.u.p.g.g.g.g.g.g.j.g.d.j.j.d.S ; + + + @ + + + + ",
"+ + + + + + + + + + + + + + % 8 { l.Q.7X5XB.y.f.2.y.d.y.d.i.Q I A 3 % @ >  .p.d.d.a.d.f.g.a.a.g.g.g.d.g.f.j.Z ; > = = > + + + + ",
"+ + + + + + + + + + + + + + + + @ 8 +.0X0XB.s.f.s.d.p.4.p.d.y.H $ + + + Z y.i.p.d.d.f.p.p.g.j.g.g.g.j.y.i.h.Z j I W W U - + + + ",
"+ + + + + + + + + + + + + + + + $ ' ;X9XwXm.9.i.d.d.d.d.j.d.f.-.c q + $ K p.d.f.g.y.*.Q i.d.g.g.g.j.d.u.p.p.~ y.d.d.p.d.T - + + ",
"+ + + + + + + + + + + + + + + + q U.0X;X).^.w.q.j.d.d.d.g.g.g.t.1.l.M Z ~ u.d.y.*.A k =.d.f.j.d.g.g.f.u.u.4.u.f.g.f.j.d.i.F + + ",
"+ + + + + + + + + + + + + + + @ B 1X7XB.q.d.d.g.g.g.g.j.g.d.a.i.b.<X).m.q.d.t.G > $ H i.j.g.g.j.j.d.g.g.j.j.a.j.g.g.g.j.a.Y + + ",
"+ + + + + + + + + + + + + + + 1 7.9X_.r.g.u.s.d.g.j.g.g.f.d.t.P.XX.X7X$XM.0.F * @ $ *.d.g.g.g.g.j.j.i.d.u.t.y.p.d.j.g.d.g.%.+ + ",
"+ + + + + + + + + + + + + + + q T.9X|.x.d.d.q.1.2.y.p.4.) 9.b.{. X.X7X1X~.X.& + + > -.g.d.j.g.g.d.j.d.i.p.t.y.d.u.a.g.g.g.%.+ + ",
"+ + + + + + + + + + + + + + + q `.9X7X~.3.d.q.T x.~.^.W.m.Y.1X.XXX6XqX2X`.` + + + , -.j.j.g.g.g.g.g.g.d.d.d.d.d.u.g.g.g.g.[ + + ",
"+ + + + + + + + + + + + + + @ n |.9X8X;Xx.5.d.w.h.!.1X0X7XqXeX=X6X9X=XtX].` + + + $ ^ d.g.g.d.j.g.g.g.g.d.g.j.g.g.0.a.g.g.%.+ + ",
"+ + + + + + + + + + + + + + + q W.9X7X7X|.(.r.Q <./ `.8X7XqXZ.rXqXqXtXrXoX` + + + $ I u.a.g.j.d.a.a.a.g.f.g.d.j.d.q.a.g.g.%.+ + ",
"+ + + + + + + + @ + + + 7 @ @ w !.7X0X0X7X7X|./././.5X0X0X3XrXrX7XqX+X+X`.` + + + + V 3.d.f.d.d.y.4.p.2.4.d.g.g.d.t.p.j.g.[ + + ",
"+ + + + + + + @ $ $ : w } k.c.I.(.<X0X0X0X0X0X0X9X0X0X0X0X9X-XeXwXqXqXqX`.` + + + + * H 4.i.i.! s.p.f.p.( t.g.g.d.d.p.g.t.z + + ",
"+ + : , , , , M #.v.I.U.T.(.#X$X).).8X7X7X0X0X0X0X0X0X0X0X0X9X3XwX0X8X0XK.w + + + + + * V I ! y.s.f.d.p.( 4.g.g.d.f.d.t.H $ + + ",
"+ % l.v.b.U.Y.T.(.#X$X$X#X$X$X$X`.!.!.;X:X7X8X0X0X0X0X9X7X,X1X9X0X0X0X8X$.: + + + + + + & V Q Q <.2.( Q 5.d.g.d.t.p.t.G > + + + ",
"+ : #X#X`.$X$X$X$X$X$X$X$X$X$X$X(.k.| `.7X0X8X7X7X7X5X5X}.$X).1X0X0X0X|.I.{ % + + + + + - ~ i.i.s.d.p.p.p.j.f.f.a.i.D g $ + + + ",
"+ : #X$X$X$X$X$X$X$X$X$X$X$X/.L.@.1 ] ,X9X0X7XU.L.L.l.k.O.b.(._.1X0X9X|.|.:X| 9 8 , + $ F q.g.g.f.f.f.f.j.p.p.j.g.a.i.=.c + + + ",
"+ : T.$X$X$X$X$X$X$X$X$X(.L.#., @ w T.0X0X0XE.M @ @ $ @ @ 9 c.(.).1X7X7X9X0X_.| 0 + + > U p.j.g.f.f.d.d.d.y.i.g.g.g.d.p.E ; + + ",
"@ @ | (.$X$X$X$X$X#X(.Y.6.q @ + % | wX0X0X7X$., + + + + + + 9 c.).).<X8X9X9X0X_.m 6 + > / p.j.a.d.d.d.i.i.g.j.g.g.g.j.d.q.l + + ",
"+ + 0 6.!.$X$X$X#XI.6.` $ + + @ M `.8X0X0X1X| + + + + + + + + q v.).(.1X0X0X0X8X| : + > / d.g.g.d.d.d.d.j.j.d.d.f.g.a.p.y.A + + ",
"+ + + , | L.!.L.#._ $ + + + + 8 K.7X7X0X0X_._ + + + + + + + + + B ).(.$XwX0X0X0X_.n + & R p.g.g.j.g.p.i.d.f.t.4.i.d.j.j.t.V + + ",
"+ + + + @ n ..m $ + + + + + % O.3X0X0X0X0XJ.n + + + + + + + + + 1 k.$X$X1X7X0X0X0X+.: & L d.g.g.g.g.j.f.j.t.( ( i.5.p.a./ = + + ",
"+ + + + + + @ + + + + + + + m _.9X0X0X0X5X| + + + + + + + + + + + B !.(.`.0X0X0X7X!.q @ k 2.d.a.g.j.g.d.j.4.y.d.d.4.( t.Z @ + + ",
"+ + + + + + + + + + + + + % ;.7X0X0X0X0X'.{ + + + + + + + + + + + q 6.).,X8X0X0X0X}.' @ $ z 2.g.d.f.g.g.g.a.p.y.2.! R v ; + + + ",
"+ + + + + + + + + + + + % +.{.0X0X0X0X9XK.q + + + + + + + + + + + $ } $X`.1X0X0X0X5Xl., + $ z 2.d.g.i.p.a.g.f.i.t.) ~ > + + + + ",
"+ + + + + + + + + + + + w Q.0X0X0X0X0X5X+.@ + + + + + + + + + + + + ' $X~.|.0X0X0X7XU.8 + + $ h J Q 5.g.g.t.s.f.f.p.R ; & = + + ",
"+ + + + + + + + + + @ % 6.5X0X0X0X0X0X'.| + + + + + + 6 + + + + + + ' $X!.|.0X0X0X7X}.q + + + + $ 3 3 j j &.d.f.p.t.h + * z + + ",
"+ + + + + + + + + + 8 #.}.0X0X0X0X0X7XK., + + + + + 7 7 + + + + + @ ' $X~.;X7X0X0X0X5XO.w + + + + + + + z =.a.p.K c & < F g + + ",
"+ + + + + + + + + + N E.0X0X0X0X0X9X|.+.+ + + + + @ 7 7 @ + + + + 1 6.#X!.|.9X0X0X0X5Xv.w 7 8 # + + + + x 4.f.f.t.~ E =.E $ + + ",
"+ + + + + + + + + % 6.:X0X0X0X0X9X9XE.M + + + + + + + + 6 6 + + + M W.$X).;X9X0X0X0X3Xb.8 7 8 7 8 6 + + $ J t.d.a.d.y.=.V + + + ",
"+ + + + + + + + + ] U.:X<X1X1X5X<X}.+.$ + + + + + + + + + + + + + m I.Y.$X8X9X0X0X0X7Xb.: + @ + + + + + + ; A Y -.-.L k $ + + + ",
"+ + + + + + + 6 6 % _ k.l.l.c.l.l.O.% + + + + + + + + + + + + + + @ , { (.<X1X<X<X<X<Xl., + + + + + + + + + @ $ ; $ $ @ + + + + ",
"+ + + + + + + + + + @ @ @ $ $ $ @ + + + + + + + + + + + + + + + + + + m @.@.@.+.@.@.@.` $ + + + + + + + + + + + + + + + + + + + ",
"+ + + + + + + + + + + + + + + + + + + + + + + + + + + + + + + + + + + + + + + + + + + + + + + + + + + + + + + + + + + + + + + + ",
"+ + + + + + + + + + + + + + + + + + + + + + + + + + + + + + + + + + + + + + + + + + + + + + + + + + + + + + + + + + + + + + + + "
};
