/* XPM */
static char *result[] = {
/* columns rows colors chars-per-pixel */
"64 64 221 2 ",
"   c #4C2B0D",
".  c #4D2B11",
"X  c #4C331B",
"o  c #397E3A",
"O  c #65421E",
"+  c #68411E",
"@  c #544422",
"#  c #5A5530",
"$  c #644221",
"%  c #684825",
"&  c #764C25",
"*  c #6F5A34",
"=  c #5E643D",
"-  c #5F6F39",
";  c #5E713E",
":  c #646532",
">  c #696734",
",  c #656837",
"<  c #65673C",
"1  c #6D613D",
"2  c #74653B",
"3  c #7C643D",
"4  c #7F5F41",
"5  c #696A41",
"6  c #7C6442",
"7  c #786746",
"8  c #736B44",
"9  c #6D7246",
"0  c #697A47",
"q  c #757646",
"w  c #80572F",
"e  c #845A32",
"r  c #855D3B",
"t  c #88653B",
"y  c #966C3E",
"u  c #866843",
"i  c #846A42",
"p  c #956C43",
"a  c #996E43",
"s  c #897449",
"d  c #8A754B",
"f  c #967146",
"g  c #9C7246",
"h  c #9D744A",
"j  c #947A4F",
"k  c #8C7351",
"l  c #927B56",
"z  c #9C7D52",
"x  c #A07547",
"c  c #A2764C",
"v  c #A37A4D",
"b  c #A57B51",
"n  c #A97E52",
"m  c #35822F",
"M  c #3C8333",
"N  c #3C843C",
"B  c #3F8B3A",
"V  c #458D35",
"C  c #448738",
"Z  c #438C3C",
"A  c #498D3C",
"S  c #4D923B",
"D  c #52923B",
"F  c #5C993C",
"G  c #70853D",
"H  c #5DA03E",
"J  c #68A33B",
"K  c #75AA3D",
"L  c #3B8541",
"P  c #388945",
"I  c #438B44",
"U  c #498B44",
"Y  c #438E4A",
"T  c #498C49",
"R  c #469147",
"E  c #549A45",
"W  c #5A9B43",
"Q  c #58914E",
"!  c #6A8246",
"~  c #71854A",
"^  c #738B4C",
"/  c #679F4C",
"(  c #779444",
")  c #799644",
"_  c #799845",
"`  c #75964D",
"'  c #79964A",
"]  c #749C4B",
"[  c #788955",
"{  c #7C9452",
"}  c #7C9B55",
"|  c #5DA247",
" . c #62A445",
".. c #67A646",
"X. c #6BAA45",
"o. c #66A94C",
"O. c #6BAB4C",
"+. c #73A544",
"@. c #75AD45",
"#. c #74AD4B",
"$. c #7AA84B",
"%. c #6BB148",
"&. c #75B145",
"*. c #7BB446",
"=. c #7DB946",
"-. c #75B24B",
";. c #7CB54B",
":. c #77B94F",
">. c #7DBA4C",
",. c #68A952",
"<. c #7DA252",
"1. c #7BAD52",
"2. c #6DB258",
"3. c #75B452",
"4. c #7BB551",
"5. c #75B953",
"6. c #7DBB52",
"7. c #7EB959",
"8. c #7E8B6E",
"9. c #7FC14C",
"0. c #9D8359",
"q. c #819C52",
"w. c #A28155",
"e. c #AD8355",
"r. c #A3825A",
"t. c #AE865A",
"y. c #AE885C",
"u. c #B08656",
"i. c #B1865A",
"p. c #B58B5D",
"a. c #B98D5F",
"s. c #83BA46",
"d. c #86BC46",
"f. c #82B64C",
"g. c #83BC4C",
"h. c #8ABE4D",
"j. c #90BD49",
"k. c #82AA57",
"l. c #83B552",
"z. c #84BC52",
"x. c #8ABD51",
"c. c #85BA5A",
"v. c #8CBC59",
"b. c #92BD54",
"n. c #93BE5C",
"m. c #9F8763",
"M. c #A68C66",
"N. c #B68C61",
"B. c #B98E62",
"V. c #AA936D",
"C. c #BD9365",
"Z. c #B59369",
"A. c #BD956A",
"S. c #B19973",
"D. c #95BD65",
"F. c #C09566",
"G. c #C29867",
"H. c #C19669",
"J. c #C3986A",
"K. c #8BC246",
"L. c #86C24C",
"P. c #8CC34D",
"I. c #8DC84E",
"U. c #91C34E",
"Y. c #94C84C",
"T. c #86C152",
"R. c #8CC351",
"E. c #8DC852",
"W. c #86C55B",
"Q. c #8BC45A",
"!. c #8BCA5C",
"~. c #92C453",
"^. c #99C453",
"/. c #93C854",
"(. c #99CA55",
"). c #94C65B",
"_. c #9AC65C",
"`. c #95C95B",
"'. c #9AC95C",
"]. c #9DD05D",
"[. c #A2CA5A",
"{. c #A6D05E",
"}. c #89C461",
"|. c #95C462",
" X c #98C563",
".X c #96C962",
"XX c #9BCA62",
"oX c #98C269",
"OX c #9DCB6A",
"+X c #A4C662",
"@X c #A2C968",
"#X c #AAD467",
"$X c #B3D365",
"%X c #B2D46A",
"&X c #ABCC79",
"*X c #B1CC78",
"=X c #AAD172",
"-X c #B2D779",
";X c #D5DD5A",
":X c #DBE15D",
">X c #D3DE66",
",X c #CEDE72",
"<X c #D7E265",
"1X c #D5E57B",
"2X c #BADA8A",
"3X c #BEDE94",
"4X c #C6DD8C",
"5X c #C1DD9D",
"6X c #CAE18B",
"7X c #D6E586",
"8X c #C7E296",
"9X c #D3E49B",
"0X c #D4E79B",
"qX c #C8DDB4",
"wX c #CAE6A6",
"eX c #D2E8A5",
"rX c #D3E6AC",
"tX c #CFE7B1",
"yX c #D5E6B4",
"uX c #D5E9B5",
"iX c #D5E6BA",
/* pixels */
"+ . r y a.p.n i.F.e.i.> P.R.R.J d.P.R.R.R.Y.P.~.R.P.K.R.P.P.K.~.P.P.R.L.P.K.R.P.P.P.L.R.g.L.R.R.U.P.U.T.;.h.h.P.U.E.P.P.K.R.d.R.",
"+ . r g n G.p.G.a.a.i.> U.P.R.h.R.I.R.P.P.P.~.%X~.R.R.R.R.P.K.P.~.P.P.R.P.P.R.R.T.K.P.>.I z.R.x.R.R.P.P.P.P.T.U.~.~.P.P.~.~.L.P.",
"O : 1 a g i.a.a.a.C.d ` ~.U.h.R.R.P.P.K.T.K.T./.P.z.R.R.R.~.K.P.R.P.P.P.K.R.R.P.P.L.2.%.-.P.P.P.U./.I.P.P.P.R.U.~.L.P.L.P.K.R.~.",
"O ( ] 8 g N.N.B.C.s ] P.P.P.P.P.P.x.h.h.| s.P.R.d.K h.K.Y.R.~.P.P.I.P.P.E.P.R.R.R.*.P 6.h.h.P.R./.$XE.P.R.R.P.P.L.L.T.o.L.P.P.P.",
"$ _ R.<.2 w e w 3 } x.U.R.~.P.P.P.h.o.l.,.g.P.P.R.P.R.L.P.E.R.~.R.P.K.U.(.P.P.K.R.T.4.R.R.P.R.R.R.~.R.~.U.K.P.P.L.O.g.W >.R.R.R.",
"$ ' E.^ u b n b 0.~ x.P.P.R.P.P.P.=.5.T.f.K.P.P.P.P.R.R.P.P.T.T.z.L.~.~.R.P.R.P.K.U.R.K.U.P.P.P.K.~.h.h.R.R.P.P.>.W.x.-.P.P.T.R.",
"O _ 0 6 c e.e.e.F.w.~ P.R.R.P.U.P.R.R.L.K.R.P.P.R.~.R.).R.x.!.6.U #.P.P.R.P.P./.P.P.~.P.P.R.P.P.g.R.3.h.R.E.R.P.P.R.R.P.R.P.R.P.",
"+ @ 3 x a N.C.C.u.C.w.0 P.P.P.P.P._.`.R.P.R.R.P.P.P.^.2X).g.R.T.&.h.P.U.P.P.P.R.R.P.~./.P.P.P.>.Z &.E 6.P.P.R.P.P.R.R.U./.R.P.d.",
"+ . r a p.J.t.A.C.i.t.: R.R.P.P.(.<X8X/.R.P.P.P.R.P.c.2X).P.P.P.L.L.R.P.P.P.~.R.P.~.@X3X).K.R.s.>.g.3.T.P.I.P.R.R.R.R.~.%X~.h.J ",
"% X 7 k V.M.0.M.S.M.M.= >.!.~.R.XX9XXXK.d.K.>.W.R.h.g.x.P.P.P.P.R.h.P.R.P.E.E.R.P.`.tX7X(.R.P.h.>.x.x.R.P.P.P.R.P.P.U.~./.E.P.x.",
"% X 6 z l Z.Z.A.N.Z.M.= I XX~.P.P./.P.z. .X.C >.P.R.R.h.P.R.R.K.x.+.K.P.R.E.P.P.K.R.`./.R.R.R.~.P.h.P.U.P.P.P.P.R.R.x.L.>.7.L.R.",
"+ 0 5 u x t.e.u.C.p.q Q I l.U.R.P.P.).~.3.P C ;.R.R.R.P.P.R.R.R.P.h.L.h.~._.R.R.R.~.R.d.K.P.h.E.R.R.R.U.K.R.~.{.~.R.| | P 4.P.~.",
"O _ f.9 p N.N.C.N.q 1.;.z.R.P.R.R.).8X`.g.@.>.R.~.(.P.P.K.E.R.R.R.P.R./.XXiX.XP.d.g.#.| =.K.P.P.K.R.P.P.R.R.`.(.~.E.>.E #.h.h.P.",
"$ ) h.z.1 & & + * l.h.P.P.P.P.P.R.D.4X`.P.K.P.(.1X6X`.~.Y.].Y.K.L.P.~.P.`.9X).R.4.M L -.P.Y.x.P.R.~.~.K.T./.8X,X).T.L.h.P.P.R.R.",
"O ) c.9 f B.A.F.p.8 c.R.L.P.P.R.P.R.x.K.P.P.R.'.wXoXR.P.P.~.R.P.P.x.R.P.z.b.~.R.6.M +.g.P.P.R.P.R.R.P.h.f.P.OXrXXXU.P.R.R.R.P.T.",
"O G = u c n e.e.A.N.q l.P.:.P.W.R.K.h.P.Q.R.P.P.`.R.P.P.g.P.P.R.K.P.g.g. .l.P.K.P.>.d.R.R.P.P.P.P.K.P.R.P.R.R.).R.P.P.P.L.3.L.!.",
"+ X r h h F.A.H.p.C.y.< l.S >.T.;.P.P.P.).P.P.P.P.L.>.4.Y f.P.P.P.s.U *.o.h.P.P.P.~.~.E.$X~.K.g.K.;.L.R.R.K.P.R.P.R.P.R.g.D g.W.",
"+   e p B.B.n B.F.t.y.: P.-.h.R.P.K.P.P.P.R.P.R.R.>.L ,.>.h.P.R.K.=.>.L.;.h.P.R.~.%X/.I.~.~.g.A  .Z >.R.R.R.P.E.P.P.h.P.R.-.x.R.",
"+   r p B.p.n i.C.e.u.> R.P.R.R.P.K.P.d.P.R.L.R.h.$.C ;.d.P.U.~.R.P.>.h.L.h.'.+X~.~.P.R.P.P.P.@.o o >.P.P.U.~.P.P.d.@.K.R./.P.R.",
"+   r g b H.B.J.B.N.i.< ~.U.U.U.U.R.z.+.h.K.P.P.P.P.;.~.x.U.Y.$X~.R.R.K.L.`.eX>XY.~.R.R.~.K.x.;.#.;.P.R.U.P.P.P.K.P.h.P.P.I.P.P.",
"O , 1 f g i.p.N.a.C.d k.2X+X{./.~.P.R.h.K.R.~.P.P.R.R.x.R.P.R.U.P.T.P.U.U.P..X&X~.P.P.g.P.P.R.P.~.~.U.P.R.R.K.R.P.P.R.~.P./.P.P.",
"$ ' ] 8 h i.p.B.Z.s <.=X;X+X`.R.R.P.>.P.K.R.P.P.P.P.d.*.P.P.R.R.U.P.P.R./.R.P.~.P.R.T.O.>.L.E.~.U.P.P.L.R.E.P.P.P.R.E.U./.#X~.~.",
"$ ) `.k.7 e e e t <.~.Q.b.P.R.P.L.&.D d.K.P.P.P.P.Y.h.P.P.P.P.P.P.R.P.K.E.R.P.P.R.W.z.W *.P.P.~.P.P.L.+.K.R.R.R.P.T.E.U.~.~.P.P.",
"$ q.8X[ u v n n z ~ x.P.x.K.R.L.@.I #.P.R.P.R./.~.P.R.P.P.P.R.h.>.K.g.L.L.R.P.P.g.v.h.;.h.R.XX~.R.K.P.h.P.P.P.P.R.6.x.K.x.P.P.P.",
"$ { 8.i c n e.i.H.r.q E.R.P.R.>.M o.*.;.P.4.}.~.K.R.E.R.g.h.~.g.V @.V s.K./.P.U.P.R.P.P.R.OXuXXXP.P.P.P.P.P.L.E.6.B &.P.P.P.P.P.",
"+ @ 4 c p B.F.F.u.C.r.0 U.P.P.g.C *.=.A 3.P z.P.R.R.R.K.K h.K.R.6.g.V &./.$XE.R.P.R.R.K.~.8X<X^.~.`.E.R.R.P.h.R.x.*.z.h.U.R.P.P.",
"+ . r p p.F.e.F.A.i.p.> U.P.P.R.g.L.P.*.,.1.h.P.K.P.R.P.d.R.R.E.g.P.g.P.~.U.P.R.I.R.R.R.R.).h.h.).yXXX/.'.U.P.P.P.P.K.R.P.P.P.P.",
"+   r y a.i.n e.F.e.t.8 ~.R.P.P.U.XX~.d.).=X~.x.P.x.h.R.U.P.R.~.R.~.h.h.R.P.~.K.P.P.L.P.P.P.f.P._.1X-X/.~.R.P.j.P.R.>.P.6.g.R.R.",
"+ . r p i.G.e.C.C.u.y., x.L.P.P.XXiXOXQ.2X;X^.R.h.+.L.P.K.P.~.P.P.P.h.+.d.P.U.P.R.R./.).R.P.P.R.x.h.E.).(.~.h.h.P.>.Y #.P >.P.P.",
"+ @ 3 h p B.C.C.p.C.b ; d.5.h.P._.0X@XR.).+XR.P.P.z.P.P.P.P.P.R.P.P.P.L.R.R.~.R.R.Q.8X7XY.P.P.P.P.K.).wX6X~.@.h.P.x.;.W ,.6.P.P.",
"O ( ! 3 v y.u.t.C.b ! ,.L.5.*.).Q.b.R.U.~.%X~.P.`.U.P.~.R.P.P.K.P.R.P.~.P.R.E.R.P.P.D.3X/.P.P.P.g.T.R.Q.&X~.L.K.K.x.4.;.T.~.P.L.",
"$ _ R.~ t h b b z ~ x.;.L.W._.eX@XR.P.h.R.~.U._.wX@X/.~.P.P.R.P.P.R.P.K.P.R.P.R.K.R.OX3X).g.d.;.A l.).R.Q.R.R. X.X~.R.~.R.R.P.P.",
"$ _ P.<.3 e e e 6 } h.P.L.R.[.>X0X`.h.+.L.P.P.U.>XeXXXK.>.R.R.R.P.I.P.P.~.T.T.4.K.|.tX7Xz.D o.T #.).5X(.R.P.`.uXrX'.R.E.P.U.R.R.",
"O ( ] 8 h p.C.B.C.d ' U.R.h.R.h.).~.U.~.R.P.~.P.j.|.>.=.L ;.P.K.P.P.h.h.R.R.9.I &.P.`.b.P.&.P O.*.v.5X_.z.P.E.XXXXE.P.E.R.P.P.P.",
"+ : 2 p g e.p.p.a.C.s ` R.~.P.L.P.T._.0X'.U.R.E.K.>.S o.C -.R.P.U.P.R.@.g.h.9.3.h.P.R.x.h.g.@.d.h.K.c.z. .g.P.P.R.~.P.R.P.R.P.R.",
"+   r h b G.B.F.a.a.p.: P.~.U.P.P.P.|.iX XP.P.P.P.P.;.W ;.x.P.R.P.R.x.h.R.P.R.x.P.P.L.E.R.P.P.x.U.T.5.>.o.&.P.P.R.d.P.x.P.P.R.P.",
"% . 4 s N.M.w.y.Z.y.y.= P.R.R.P.P.P.P.c.x.l.R.R.P.R.L.g.R.P.I.~.R.K.s.h.R.P.R.g.T.g. .T.P.P.P.U.~.g.6.P.z.h.P.P.L.| ;. .d.P.P.P.",
"% X 7 l m.S.V.S.S.V.M.< P.K.P.L.+.h.9.P 2.Y l.K.R.P.L.R.P.P.P.K.R.h.K.P.~.R.>.Z z.Q.x.R.P.R.P.P.P.P.j.R.R.P.T.P.L.T.g.W -.R.E.R.",
"O : 7 f g i.p.N.p.Z.d ] R.P.h.P.P.P.P.4.2.2.h.Y.P.U.R.P.P.R.P.R.R.P.E.OX-XE.g.>.L.E.x.R.U.P.P.P.P.P.U.P.U.P.K.L.P.g.h.d.P.P.R.R.",
"O ( ] 7 h N.B.B.C.s <.T.P.P.P.P.K.R.d.g.z.R.L.x.R.K.P.R.R.R.P.R.K.R. XyX7X(.h.;.g.E.R.P.P.P.R.K.P.P.R.P.P.>.h.z.L.R.R.R.K.P./.U.",
"$ ( P.1.3 w e e 6 <.-.H g.P.R.P.R.P.R.P.P.P.R.~.P.h.+.h.~.P.T.6.W.P.R.`./.E.E.R.h.P.U.P.P.P.h.>.L.P.R.R.g.I #.N *.R.R.P.P.P.R.U.",
"$ ( h.~ u v n n z 0 T -.h.P.R.P.R.R.R.~.R.P.P.P.P.P.d.~.P.R.h.U >.~.P.P.'.XX). XXXP.R.P.P.z.>.C f.U.L.R.h.>.6.M &.R.R.R.R.P.R.P.",
"O ( 0 7 c e.e.i.F.r.0 l.K.K.P.h.d.R./.$X/.U.I.P.P.E.).U.P.P.R.>.h.~.R.Y.1XtX@XyXiXXXR.P.=.V >.6.g.h.K.P.R.s.R.;.L.P.~./.R.R.R.P.",
"O @ 3 h a B.C.C.i.C.r.0 P.d.K.6.%.T.R.Y.Y.P.E.P.P.W.>.P.~.P.L.R.XX'.R.~.=XoXT.c.|.R.R.R.>.F 6.x.h.R.~.P.R.h.R.P.K.h.R.K.R.K.g.P.",
"+   e p B.H.e.H.F.i.i.: g.S ..I *.P.P.P.K.P.P.P.d.z.R ;.R.P.P._.rXiX_.R.b.g.-.Z >.P.R.P.P.g.h.P.K.P.g.T.L.L.P.P.d.+.L.R.g.&.I z.",
"+ . r p B.e.b n C.e.p.> T.#.L | l.R.U.U.P.P.R.d.U 6.>.h.~.U.h.P.).).R.R.&.m m @.P.P.P.R.^.b.h.R.~.d.F f.o.d.P.I.P.z.R.4.N C -.L.",
"+   r p N.H.u.H.F.u.y., P.>.&.g.P.P.P.P.P.L.P.*.C >.g.P.K.R.R.U.x.^.'.R.#.N o.;.P.P.P.P.d.R.P.P.T.h.3.g.o.;.R.P.P.R.P.l.N X.>.P.",
"+ @ 3 h a B.C.C.u.F.0.! K.K.P.L.P.P.P.P.P.R.P.L.>.x.R.P.P.P.P.x.^.<X6X/.L.g.h.h.P.P.L.P.+.h.P.~.P.P.6.d.L.h.R.U.P.~.OX2Xx.L.P.R.",
"$ ^ 0 3 x t.e.i.A.z ~ z.5.7.R.P.P.d.U.P.P.E.R.P.K.P.R.R.P.K.R.P. XrX XP.P.T.P.P.P.P.P.R.z.K.P.U.R.z.R.P.`.'.~.~.P.|.rX1X/.P.R.P.",
"$ - g.^ u x h v z ^ 4.E P &.L.I.P.~.R.~.R.L.P.h.x.U.U.P.f.K.z.Q.R..XR.R.R.P.P.P.P.T.P.P.R.R.P.P.h.+.x.R.2X<X).x.P.~._._.P.P.R.R.",
"$ ; g./ 3 r t r t <.6.F ;.XXR.P.R.[.'.R.U.P.K.^.~.E.P.g.D -.R 6.R.P.R.K.P.P.g.h.g.6.R.R.R.K.P.P.P.L.K.h.XX8X).P.P.g.P.j.K.P.K.R.",
"$ 0 ` 7 x i.a.B.C.j } h.P./.(.K.^.:X8X/.P.R.R.R.g.R.R.h.6.c.1.x.K.I.R.K.U.f.U 2.I 4.P.E.g.P.h.P.P.~.P.h.P.).L.g.&.A >./.R.K.P.R.",
"+ # 1 f a i.B.a.a.C.k } ).-X7X(.b.*X).P.P.R.R.g. .g.P.P.g.P.P.P.P.R.R.P.P.R.1.L E f.P.h.| >.E 6.P.R.Q. XR.d.X.U L &.XX-X/.x.R.P.",
"+ . r a n H.p.J.N.N.y.8 ).).qX Xz.E.T.P./.R.7.R.>.h.P.~.R.L.U.P.R.R.~.P.R.R.d.-.z.R.R.h.>.3.P &.b.~.|.iXXXR.;.L +.v.yX1X(.d.P.P.",
"+ . r y B.i.b i.F.e.i.8 /.l.Q 3.M >.R.OX-X4.A ;.g.d.R.R.P./.#X~.P.R.K.P.R.P.R.K.K.U.K.T.h.c.g.R.P.P.).9X).R.R.g.T.T.XXn.P.R.P.~.",
"+ . r y N.H.n C.F.e.i.> K.l.x.;.M -./.iX7X~.-.P.R.R.P.R.K.U.E.U.P.R.g.h.L.P.R.P.R.R.R.R.L.R.T.d.g.K.>.x.x.P.R.P.R.R.L.P.P.R.R.P.",
"+ . u v p C.F.G.u.C.i., P.x.b.T.g.L.L.`.~.P.P.P.R.R.R.~.P.K.P.R.P.g.W ;.,.z.P.P.P.R.R.~.L.P.P.>.Z &.V *.P.U.R.x.x.|.`.R.P.E.R.P.",
"$ 0 = t v n e.e.C.a.5 $.K. XeXXXL.K.K h.P.E.P.P.P.R.K.R.R.P.P.R.P.T.4.g.O.;.P.R.T.P.U.~.P.P.K.R.4.f.V ;.P.P.P.~.).eXrX'.R.P.R.P.",
"$ 0 l.9 p p.B.B.M.8 x.L.K.n.iX_.P.P.h.~.R.R.~.L.R.P.P.T.R.K.P.L.R.L.f.P.L.P.K.~.P.P.R.P.P.h.z.L.g.T.g.R.P.P.R.K.P.'.XXR.I.K.P.P.",
"$ ^ T.k.1 & & & 2 k.h.P.R.R.v.T.6.P.R.R.P./.].I.P.U.R.E.P.R.R.3.h.R.R.R.P.P.U.R.I.P.R.c.*. .W L.P.P.K.R.P.P.P.R.h.R.h.L.=.W.P.R.",
"$ [ ] 5 f N.B.B.a.q k.T.R.f.T -.U f.K.R.P.P.U.P.R.~.P.R.K.5.W.l.P.P.P.~.P.U.P.P.P./.~.>.P B ;.P.U.P.R.P.P.P.R.R.P.9.Y #.L l.P.E.",
"$ < < u c e.e.e.C.a.q l.x.h.>.z.o.T.T.R.U.R.P.P.R.P.P.P.*.S 6.g.L.P.P.P.P.R.R.K.P.E.R.g.,.-.h.~.R.P.P.U.E.~.P.R.P.P.3.E  .h.z.R.",
"$ . r c g C.C.F.u.C.y., U.h.;.P.h.L.R.P.P.R.R.P.R.U.R.P.R.4.x.P.P.P.R.P.f.R.R./.U.E.R.K.6.x.P.I.R.P.P.P.R.P.R.P.P.K.f.;.h.P.P.P.",
"%   r p B.C.w.C.A.e.y.: P.P.R.P.R.P.U.U.P.R.P.P.P.P.P.K.R.b.~.P.R.R.R.K.P.P.E.P.P.R.R.K.P.P.P.P.P.P.P.P.R.P.R.P.K.~.P.L.E.L.P.P."
};
