/* XPM */
static char *result[] = {
/* columns rows colors chars-per-pixel */
"64 64 220 2 ",
"   c #4C2A0D",
".  c #4D2B11",
"X  c #502F15",
"o  c #4C331B",
"O  c #397E3A",
"+  c #65421E",
"@  c #68411E",
"#  c #71471F",
"$  c #544423",
"%  c #544A27",
"&  c #585B2F",
"*  c #5B5E38",
"=  c #644221",
"-  c #664927",
";  c #744A21",
":  c #675B34",
">  c #5C6439",
",  c #646433",
"<  c #686633",
"1  c #6D613D",
"2  c #646B3D",
"3  c #69683B",
"4  c #75653D",
"5  c #7C633D",
"6  c #75683B",
"7  c #4D6F47",
"8  c #57724B",
"9  c #6A6A43",
"0  c #7C6342",
"q  c #736B44",
"w  c #7C674B",
"e  c #6A7646",
"r  c #647E43",
"t  c #777748",
"y  c #81572F",
"u  c #845A32",
"i  c #855D3B",
"p  c #86643A",
"a  c #966C3E",
"s  c #816744",
"d  c #836A41",
"f  c #8B6942",
"g  c #956D43",
"h  c #9A6E44",
"j  c #936E49",
"k  c #897549",
"l  c #8B754B",
"z  c #9C7246",
"x  c #977348",
"c  c #9D744A",
"v  c #8D7651",
"b  c #927B55",
"n  c #9C7D52",
"m  c #A07547",
"M  c #A2764D",
"N  c #A47A4D",
"B  c #A57B51",
"V  c #A97E52",
"C  c #35822F",
"Z  c #3C8332",
"A  c #3B8739",
"S  c #3C843C",
"D  c #458C36",
"F  c #448738",
"G  c #428D3D",
"H  c #4A8C3B",
"J  c #4C9236",
"K  c #4E923D",
"L  c #53923B",
"P  c #5C993C",
"I  c #68833C",
"U  c #68A33B",
"Y  c #74A93D",
"T  c #3A8542",
"R  c #388945",
"E  c #448B43",
"W  c #4A8B44",
"Q  c #428D4A",
"!  c #469146",
"~  c #549846",
"^  c #599C44",
"/  c #6A8644",
"(  c #728746",
")  c #659A4A",
"_  c #799645",
"`  c #799845",
"'  c #74954C",
"]  c #759848",
"[  c #7D9E4F",
"{  c #798852",
"}  c #779953",
"|  c #5DA247",
" . c #62A446",
".. c #67A647",
"X. c #6BA946",
"o. c #66A94C",
"O. c #6BAB4D",
"+. c #72A544",
"@. c #75AD45",
"#. c #74AD4A",
"$. c #79A84A",
"%. c #6BB148",
"&. c #75B145",
"*. c #7AB446",
"=. c #7DB946",
"-. c #75B24B",
";. c #7CB54B",
":. c #77B94F",
">. c #7DBA4C",
",. c #68AA52",
"<. c #7BA953",
"1. c #6DB257",
"2. c #75B451",
"3. c #7CB551",
"4. c #74B954",
"5. c #7DBB52",
"6. c #7FBC58",
"7. c #7FC14D",
"8. c #9D8259",
"9. c #839A56",
"0. c #A28155",
"q. c #AD8355",
"w. c #A3825B",
"e. c #AE865A",
"r. c #AE895D",
"t. c #B08757",
"y. c #B1865A",
"u. c #B48B5D",
"i. c #B98D5F",
"p. c #84BB46",
"a. c #86BC46",
"s. c #81B64B",
"d. c #84BC4C",
"f. c #8ABE4D",
"g. c #83AC52",
"h. c #83B553",
"j. c #85BC52",
"k. c #8ABE52",
"l. c #84BA5A",
"z. c #8DBC5B",
"x. c #92BC54",
"c. c #90BA59",
"v. c #968968",
"b. c #A68C66",
"n. c #B68C61",
"m. c #B98E62",
"M. c #AA936D",
"N. c #BD9365",
"B. c #B49368",
"V. c #BC966B",
"C. c #AE9571",
"Z. c #B19973",
"A. c #8ABD61",
"S. c #94BE63",
"D. c #C09567",
"F. c #C19669",
"G. c #C3986A",
"H. c #8AC347",
"J. c #86C24D",
"K. c #8CC34D",
"L. c #8FC94E",
"P. c #91C34E",
"I. c #94C84C",
"U. c #85C252",
"Y. c #8CC351",
"T. c #8DC852",
"R. c #86C55B",
"E. c #8BC45A",
"W. c #8BCA5C",
"Q. c #92C453",
"!. c #99C453",
"~. c #93C854",
"^. c #99CA55",
"/. c #94C65B",
"(. c #9AC65C",
"). c #95C95B",
"_. c #9AC95C",
"`. c #9DD05D",
"'. c #A2CA5A",
"]. c #A6D05E",
"[. c #89C461",
"{. c #94C462",
"}. c #9AC663",
"|. c #96C962",
" X c #9BCA63",
".X c #9CC96A",
"XX c #A4C662",
"oX c #A2C968",
"OX c #ACD466",
"+X c #A3D16A",
"@X c #B3D365",
"#X c #B2D46A",
"$X c #ABCC79",
"%X c #B0CD78",
"&X c #ABD274",
"*X c #B2D878",
"=X c #D4DC59",
"-X c #DBE15D",
";X c #D3DE68",
":X c #CEDE72",
">X c #D7E265",
",X c #D9E673",
"<X c #D4E37E",
"1X c #BCDC84",
"2X c #B8D98C",
"3X c #BEDE94",
"4X c #CDDE87",
"5X c #C1DD9D",
"6X c #CAE18B",
"7X c #D6E686",
"8X c #C6E297",
"9X c #D3E69A",
"0X c #C3DCAB",
"qX c #CBE5A7",
"wX c #D2E8A6",
"eX c #D3E6AC",
"rX c #CFE7B1",
"tX c #D4E6B4",
"yX c #D5E9B5",
"uX c #D5E6BA",
/* pixels */
"Y.J.K.Y.J.K.K.K.K.Y.Y.L.K.Y.Y.U a.K.Q.Y.K.P.K.Q.Y.K.J.K.J.K.L.K.K.K.Y.J.K.K.K.K.K.J.K.Y.d.J.K.Y.K.K.P.U.;.f.K.K.K.Q.K.K.K.J.J.L.",
"K.K.K.Y.Y.J.J.d.Y.K.K.P.K.K.Y.f.Y.K.K.Y.L.K.T.#XQ.Y.Y.Y.Y.P.H.P.Y.P.K.Q.K.K.Y.K.Y.J.K.>.E j.Q.k.Y.Y.K.K.K.K.Y.K.Q.T.Y.K.Q.x.K.J.",
"!.Q.K.K.>.5.X.H d.K.K.K.Q.P.f.Y.K.Y.K.K.U.K.d.!.K.J.Y.Q.K.Q.K.Y.Y.J.K.K.K.Y.Y.K.K.J.1.%.-.K.K.Y.P.~.L.K.K.K.Y.P.Q.J.K.J.K.P.K.Q.",
"K.K.Y.Y.2.T A &.K.K.K.K.K.K.K.K.K.f.f.d.| p.K.Y.a.Y d.K.P.Y.L.K.K.L.K.K.Y.P.Y.Y.Y.*.R ;.f.f.J.K.!.@XY.Y.Y.Y.K.K.K.7.d.O.a.J.K.K.",
"K.T.K.x.s.^ @.d.Y.Y.K.Y.Q.P.K.K.K.d.O.j.o.s.K.Y.K.f.K.J.L.K.K.Y.Y.K.K.Q.^.K.J.K.K.U.>.Y.P.K.Y.Y.Y.~.Y.Q.Y.K.K.K.J.O.;.^ >.K.Y.Y.",
"K.Y.Y.K.k.J.K.K.Y.Q.K.Y.K.Y.K.K.K.=.4.U.s.K.K.K.Y.K.Y.K.Y.K.U.Y.j.J.P.Q.K.K.K.K.K.K.Y.K.Y.K.K.K.K.Y.f.K.K.Y.K.K.>.R.Y.;.K.K.T.Y.",
"P.P.Q.Y.K.K.K.Y.K.Y.K.P.Y.Y.K.K.K.Y.Y.J.K.K.Y.H.P.P.Y.(.Y.k.W.5.W #.H.K.T.K.K.~.K.K.Q.K.K.Y.K.K.d.K.:.K.Y.T.Y.K.K.Y.Y.K.Y.K.Y.K.",
"K.K.K.K.K.K.K.Y.K.K.K.P.K.K.Y.K.K.(._.K.K.Y.Y.L.Y.K./.2X).d.Y.j.&.d.K.P.K.K.K.Y.Y.L.Q.~.K.K.K.>.G &.W d.K.K.Y.K.K.Y.Y.P.Q.K.K.d.",
"K.T.Y.K.K.U.k.K.P.K.K.Y.Y.K.K.K.!.>X8X~.Y.K.K.K.K.f.l.2X!.K.J.K.K.K.Y.P.K.K.Q.Y.K.Q.+X3X(.K.K.=.>.s.2.Y.K.L.K.K.Y.K.T.Q.#XQ.d.U ",
"Y.U.T.j.3.D ;.K.Y.Y.d.f.d.W.Q.Y. X9X XK.d.H.>.R.Q.K.s.k.Y.K.K.K.Y.d.K.K.Y.T.T.Y.P.~.rX7X^.Q.K.d.>.k.k.Y.Y.K.K.Q.Y.K.P.Q.~.T.k.k.",
"K.K.>.R ^ -.Y.K.Y.d.! O.E  XQ.K.K.~.Y.d. .X.F *.K.Y.Q.k.K.K.Y.K.K.+.d.K.Y.T.K.K.K.Q._.Q.K.K.f.Q.K.K.K.K.K.K.K.K.Y.K.j.J.>.l.K.Y.",
"H.K.h.~ ;.d.K.K.K.K.*.~ ! h.P.Y.K.Y.~.Y.:.T D ;.K.Y.Y.J.L.Y.K.Y.K.d.K.K.Q._.K.K.K.Y.K.d.K.K.f.T.Y.Y.K.P.K.K.Q.].Q.Y. .| R 3.K.P.",
"K.J.K.a.K.K.K.Y.Y.K.d.>.>.Q.K.U.Y./.qX/.d.&.>.K.Q.^.Y.K.K.L.K.Q.Y.K.L.Q. XuX|.K.f.=.@.| =.K.K.K.K.Q.K.K.Y.Y.).~.E.T.=.^ #.f.K.K.",
"P.K.K.K.J.K.K.P.K.K.J.K.K.K.J.K.Y.S.6XQ.K.J.K.!.,X6X_.T.P.`.L.H.d.K.~.K.|.9X/.Y.4.Z T -.K.H.k.Y.K.Y.K.K.J./.8X:X).Y.U.j.K.K.Y.Y.",
"f.K.T.Y.K.K.K.K.K.K.Y.K.K.K.P.Y.K.f.j.K.K.K.Y._.rX{.Y.J.K.Q.Y.K.K.K.k.K.d.x.K.Y.h.Z +.d.K.K.Y.K.Y.K.K.f.;.K..XeX_.P.K.K.K.Y.J.U.",
"K.H.K.Y.Y.K.Y.Y.Y.Y.K.K.J.:.J.W.K.K.K.K.Q.Y.K.K./.Y.Y.K.d.K.K.Y.K.K.d.s.) j.K.K.K.>.f.K.P.L.K.K.K.K.K.P.K.Y.T.(.K.K.K.K.K.2.J.[.",
"K.K.K.U.Y.Y.Q.K.Y.Y.K.Y.d.W d.R.s.f.K.K./.K.K.K.K.J.d.5.Q s.P.K.J.s.L *...K.Y.K.K.~.Y.T.#XQ.K.p.J.>.U.Y.Y.K.K.Y.K.Y.H.K.d.L d.R.",
"Y.=.5.R.J.T.K.d.k.l.U.K.K.-.d.Y.K.H.J.K.K.K.K.Y.Y.s.T ,.*.f.K.Y.H.=.2.J.;.f.K.K.T.#X!.L.~.K.d.H U S >.K.Y.K.K.K.K.K.f.K.Y.;.f.Y.",
">.G 2.k.z.(.s.L @.H ;.Y.K.K.K.Y.K.H.K.a.K.K.K.Y.f.$.F -.d.K.K.Q.P.K.>.f.J.d.(.XXQ.Q.K.Y.K.K.K.+.O O >.K.K.P.L.K.K.K.Y f.Y.~.Y.Y.",
"Y.-.d.E.4X=Xc.j.J.#.k.Y.Q.P.I.Y.P.K.j.+.f.K.K.K.K.K.s.P.Y.P.I.@XQ.Y.K.J.Y._.wX;XI.Q.K.K.Q.K.Y.;.#.d.K.Y.Q.K.K.K.J.J.K.K.K.K.K.K.",
"K.K.K.Y./.%Xz.U.K.K.Y._.1X X].~.Q.K.Y.d.K.K.K.K.K.Y.K.k.Y.K.Y.P.P.T.K.K.P.K.|.$XQ.K.K.d.L.K.Y.K.Y.Q.K.K.K.Q.K.P.Y.K.Y.Y.L.Q.T.K.",
"d.Y.K.Y./.(.Y.K.K.K.Q.&X=XXX(.Q.Y.K.d.K.H.K.Y.K.K.P.f.&.K.K.Y.K.P.K.J.K.~.Y.K.T.K.Y.U.O.>.K.Y.Q.P.K.K.J.K.T.J.K.K.K.T.P.~.OXQ.Y.",
"U P.).|.2X;X(.x.K.Y.Q.Y.x.Y.U.K.J.@.L a.K.K.P.K.K.I.K.K.K.K.K.K.K.K.K.J.T.K.K.Y.K.R.j.^ *.K.K.Q.K.K.d.+.a.Y.Y.Y.K.Y.T.P.Q.Q.K.K.",
"d.(.8X/.}.yX X_. XY.Q.Y.f.f.K.K.&.E #.K.K.P.Y.T.Q.K.Y.J.K.Y.K.K.p.K.s.K.Y.K.K.K.>.z.f.;.d.Q. XQ.Y.K.K.K.K.P.K.K.Y.5.f.K.k.K.K.K.",
"K.z.0X).K.A.).tXtX/.Y.Y.Y.K.T.>.C ..*.s.J.5.[.~.K.K.T.Y.d.f.Q.s.D &.D a.K.L.K.P.J.Y.K.K.K..XyX XK.K.K.K.P.P.J.T.5.A &.Y.K.K.K.K.",
"K.K.R.>.-.K >.z.S.T.(._.P.K.K.d.F ;.=.H 2.R h.P.K.K.Y.K.Y f.K.Y.j.>.D &.Q.@XL.Y.Y.Y.K.K.~.8X>X!.Y._.T.Y.Y.K.d.K.Y.&.d.K.P.Y.J.Y.",
"K.K.;.T ~ Y K.K.Y.(.tX XP.K.K.Y.d.d.K.>.,.<.f.K.K.K.K.K.a.Y.Y.T.d.K.d.K.Y.P.Y.K.K.Y.K.Y.P./.a.f.(.tX X~._.P.K.K.Y.P.K.K.K.K.K.K.",
"Y.K.;.~ @.d.Y.Y.T. X<X&XQ.Y.K.K.P. XY.a./.&XQ.Q.K.f.f.Y.P.K.P.~.k.K.Y.f.Y.K.P.K.K.L.J.Y.K.Y.s.Y.(.<X*X~.Q.Y.K.K.K.K.>.f.j.d.Y.K.",
"K.K.K.d.K.K.K.J.f.k.k.k.f.J.K.K. XuX.XE.1X=Xx.Y.d.+.K.K.K.f.Y.K.K.K.f.+.J.K.P.K.Y.K.).!.L.K.f.Y.U.f.K.).^.Q.K.K.K.>.Q #.R *.Y.L.",
"P.K.K.Y.U.K.P.K.K.K.p. .a.4.d.K._.9XoXY.(.XXY.K.K.d.K.K.K.J.P.K.P.J.K.K.Y.Y.Q.Y.f.E.8X7XI.J.K.K.K.K.~.qX6Xx.+.f.K.Y.;.^ ,.5.J.K.",
"K.K.~.K.Y.Q.OXQ.K.K.Y.O.d.5.*./.Q.z.k.P.Q.#XQ.K._.P.K.Y.Y.K.K.K.J.K.J.Q.K.Y.Q.Y.K.K.S.5X^.K.K.K.>.U.Y.z.$XQ.J.K.J.P.h.$.R.Y.K.Y.",
"K.Y.K.K.Y.K.k.K.Y.P.f.>.J.R._.wX+XY.K.f.T.Q.P./.qX+XQ.Q.K.K.K.K.L.Y.K.K.K.Y.K.K.K.Y. X3XW.d.f.;.H d./.Y.E.K.K.}. XK.K.Q.K.Y.K.K.",
"K.P.J.H.T.K.K.K.P.Y.K.K.J.Y.'.;X9X_.f.+.J.K.K.P.>XwX(.K.>.Y.Y.K.J.L.K.P.Q.R.J.5.K.(.rX7Xf.K o.W #.(.5X_.Y.K.).yXyX_.Y.T.K.P.Y.K.",
"K.L.K.d.Y.6.R.J.K.J.K.K.K.f.Y.f.~.Q.P.Q.Y.K.Q.K.f.{.>.>.T >.K.K.K.P.f.f.Q.U.5.G &.K.W.x.K.@.R X.;.k.5X(.d.K.T. X XL.Y.Y.Y.K.K.K.",
"K.K.s.K 1.E >.K.K.Y.j.J.Y.Q.K.J.Y.U.(.9X(.P.Y.Y.K.=.J X.F ;.Y.K.P.f.Y.@.d.k.j.-.K.K.Y.k.f.s.&.f.f.d.l.5. .d.K.K.Y.P.K.Y.K.Y.Y.Y.",
"P.K.f.>.O.O.j.Q.K.K.+.Y.P.Q.K.P.K.Y.|.uX}.K.K.K.K.K.-.^ ;.k.K.K.K.Y.Y.d.Y.f.K.K.K.K.d.T.Y.K.K.k.P.J.4.J.o.&.K.Y.Y.d.K.f.K.K.K.K.",
"T.K.Y.K.d.f.P.K.K.K.f.Y.J.K.Y.K.K.K.K.j.k.h.Y.U.K.Y.d.d.K.K.K.Y.K.K.p.K.Y.Y.Y.d.K.d. .U.K.K.L.P.Q.d.j.K.j.f.J.K.J.| *. .d.L.Y.K.",
"Y.Y.J.K.K.K.K.K.Q.Y.K.K.K.H.K.J.+.d.7.R 2.Q j.K.K.K.J.Y.K.K.K.K.K.d.H.Y.Q.K.>.G 5.W.k.Y.Y.K.K.J.K.K.f.K.f.K.K.K.J.U.s.^ *.Y.Y.Y.",
"Y.K.K.Y.P.Q.K.J.~.K.K.J.Y.K.K.K.f.K.Y.5.1.1.d.K.K.K.Q.K.K.Q.K.Y.Y.J.Y. X*XT.d.=.J.~.k.Y.K.K.K.K.K.K.I.K.K.K.K.K.J.J.f.f.K.Y.Y.Y.",
"Q.K.Y.K.K.J.K.Y.K.P.K.d.K.P.f.K.J.K.f.s.j.Y.K.Q.K.K.K.K.Y.Y.K.J.P.Y.}.uX7X^.f.s.d.Y.Y.K.K.K.Y.K.K.K.Y.K.K.>.d.j.J.Y.K.K.K.K.L.K.",
"K.K.K.K.Y.K.Q.Y.s.k.-.U >.Y.Y.K.K.P.K.K.K.K.Y.K.K.f.+.K.K.K.Y.6.U.Y.Y.).~.Y.T.Y.K.K.Q.K.K.J.f.s.K.K.Y.K.>.E #.F *.K.K.K.P.K.K.Q.",
"K.K.K.K.K.Y.Y.j.E o.E &.K.K.Y.f.Y.Y.Y.!.Y.Y.L.K.K.K.f.x.K.Y.d.W 5.P.K.P.(. X/.{. XK.K.K.f.j.=.F ;.P.J.P.K.>.3.O @.Y.Y.K.Y.K.K.K.",
"K.P.Y.Y.K.Y.Y.K.&.E X.d.K.H.K.J.d.K.~.@XL.P.K.K.Y.Y.T.P.K.K.K.>.K.f.K.L.<XeX+XuXuX XY.K.=.J 5.>.d.f.J.K.K.s.Y.>.K.f.Q.T.Y.Y.Y.K.",
"K.K.K.Y.Y.K.K.K.d.;.k.K.K.a.f.>.%.Y.K.L.P.K.T.Y.Y.T.5.K.Q.K.J.Y. X XP.~.&X}.U.l.{.Y.Y.Y.s.P 5.k.f.Q.Q.K.Y.K.Y.K.K.K.Y.K.K.K.d.K.",
"K.K.K.Q.Y.Y.K.K.K.P.K.P.d.L ..E *.K.K.K.K.L.K.K.s.5.! ;.Y.K.Y.(.eXuX(.Y.Y.s.&.G >.K.Y.K.K.f.K.J.K.K.d.Y.J.J.K.K.d.+.f.K.d.&.E j.",
"K.K.K.L.Y.K.K.K.K.K.K.Y.U.&.T | h.Y.K.P.K.K.K.d.K 6.d.f.Q.P.f.K./.(.Y.Y.-.C Z X.J.K.K.K.!.x.f.Y.K.a.P ;...d.K.L.K.k.K.5.S F -.J.",
"K.J.K.K.K.K.K.K.K.K.K.K.Y.;.&.d.K.K.K.K.K.K.K.&.F >.d.J.K.K.K.P.k.!.(.Y.@.S  .;.f.K.J.K.f.Y.K.Y.Y.d.-.d.o.;.f.K.K.Y.K.l.A ..>.K.",
"K.P.K.K.P.K.Y.K.~.Q.Y.K.J.H.K.K.J.K.K.K.K.K.K.K.=.k.Q.K.K.K.K.k.!.>X6X^.J.j.f.K.Y.K.K.K.+.a.K.P.K.Y.;.J.J.f.Y.P.K.Q. X2Xk.J.K.Y.",
"K.j.f.P.K.K.Y.~.OXQ.T.5.6.6.U.L.J.K.K.K.K.Y.Y.K.K.K.K.Y.K.K.P.K.}.eX}.J.Y.Y.K.K.K.L.K.Q.f.K.K.K.Y.d.U.K.~._.Q.Q.K.{.eX<X~.K.Y.K.",
"a.I s.T.Y.U.K.K.~.L.j.K R &.J.L.K.x.K.Q.K.K.K.K.k.P.P.K.s.K.j.E.T.(.Y.K.Y.K.K.K.K.U.K.K.Y.Y.K.Y.f.$.k.Y.2X>X(.k.K.Q.(.!.K.K.Y.T.",
"s./ d.6.d.4.U.K.Y.|.d.P -._.Y.K.Y.].).Y.P.K.J.!.Y.Y.K.d.L %.Q j.Y.J.K.L.K.f.s.J.d.5.Y.K.K.J.Y.K.K.K.K.f. X8XE.K.K.d.Y.K.K.H.K.K.",
"a.' d.d.o.R #.U. XqX_.f.P.~.^.J.!.-X8X~.K.K.P.K.d.Y.Y.f.d.6.<.k.K.K.K.K.P.s.W 1.E ;.J.Y.d.K.d.j.K.K.P.f.Y./.K.d.&.H >.!.K.J.K.Y.",
", > h.k.:.*.;.3 4 t 3 } /.*X<X(.e 6 9 2 g.Y.Y.f.) 2 < < , [ f.f.K.~.e < < < e R ~ h.K.' & , * ' K.Y.R.{.e < , & 7 #. X&X/.] < < ",
"e.e.9 j.k.h.t r.y.y.y.v [ S.0Xt 0.u.b.b.t h.6.h.q r.r.y.r.k <.Q.k.e w.y.e.y.n e 6.k.[ l y.b.M.v [ Q.[.v.w.r.y.e.n { eX7X9.l y.e.",
"q.N.i.q g.6 n.N.q.e.u.N.k ' 8 b.N.y.b.B.n.q W q n.N.e.q.n.N.l $.( 0.G.e.q.y.N.n ( <.k N.u.r.M.i.k $.t e.V.y.q.t.N.n { 9.l N.n.e.",
"D.y.D.m.1 y.N.u.F.D.i.n.N.s n D.t.N.Z.b.N.n.: m.N.r.F.N.i.i.N.5 n D.t.V.D.N.y.N.n p N.u.i.V.C.i.V.5 8.D.y.F.N.V.y.D.n d N.u.m.N.",
"i.F.q.N.; m.q.F.m.y.G.u.i.u B q.m.F.b.V.e.m.# N.y.G.m.y.G.u.m.u V q.F.F.y.D.N.t.B u n.u.F.r.C.i.m.u V n.F.G.V G.N.y.m p m.i.G.y.",
"q.N.q.N.; n.q.V.V V u.i.m.u V q.D.y.8.B.y.m.# V.V D.V B n.u.n.u V q.F.V B q.N.t.B u m.i.n.0.M.u.m.u V V F.V V V N.t.m p i.i.u.V ",
"N.N.V n.; n.q.N.N.i.D.y.u.y B q.u.F.b.V.q.n.; m.V F.N.u.F.y.y.u N V m.F.t.D.i.q.M u u.y.F.b.Z.y.m.u M V D.F.V G.i.e.z i u.y.F.y.",
"n.z M j 1 j M z n.n.B z c 4 d M h b.C.c c j 4 j M c n.m.V z c 1 d N h u.n.y.h M d 4 c h V B.w.z c 0 f M h n.D.V h c s 4 M h V m.",
"g c f 9 <.e f M a g z h 4 } 7 0 m h l n g e f.9 f c g g z j q <./ p m h a h c 5 ( g.q x h j b h q <.( s c g g g c 0 7 ) 0 j z a ",
"i i > k.K.h.2 p i i i 1 ] d.2./ 5 i w s 9 h.k.j.9 5 i i i : ' 5.j.r s u i i 5 2 Y.Y.} 1 i i w 9 } f.k./ 5 5 i i 5 / 1.| 8 3 i i ",
"  . / _ ` ` ( X . . . , ` _ ( ` $   o o 2 +._ _ e .       > ] _ ] ` $ X . X % ` _ ` ] , . . o > _ _ _ _ $       % _ ( I _ , . . ",
"@ @ @ = = + @ @ @ @ + + + = + + @ @ : = @ @ = + @ @ @ @ @ + = = = = @ @ @ @ = + = = + @ = - = + + + + + @ @ @ @ + = = = + @ @ @ "
};
