/* XPM */
static char *result[] = {
/* columns rows colors chars-per-pixel */
"64 64 226 2 ",
"   c #4C2B0D",
".  c #4D2B11",
"X  c #4B331B",
"o  c #51391C",
"O  c #4C3620",
"+  c #397E3A",
"@  c #65421E",
"#  c #68411E",
"$  c #554826",
"%  c #4D512E",
"&  c #5B5D32",
"*  c #644221",
"=  c #654827",
"-  c #764C24",
";  c #7A5029",
":  c #645C39",
">  c #775F39",
",  c #4F7C34",
"<  c #666534",
"1  c #696634",
"2  c #6B623E",
"3  c #676938",
"4  c #75633C",
"5  c #7A673D",
"6  c #65763C",
"7  c #3A7E4B",
"8  c #545F40",
"9  c #4B7E4A",
"0  c #656943",
"q  c #7C6442",
"w  c #756846",
"e  c #6C7443",
"r  c #6A7A45",
"t  c #747646",
"y  c #82582E",
"u  c #855D34",
"i  c #8A5F37",
"p  c #855D3B",
"a  c #84623C",
"s  c #8B6239",
"d  c #946B3F",
"f  c #805E40",
"g  c #826641",
"h  c #846B43",
"j  c #8A6B42",
"k  c #956C42",
"l  c #976E45",
"z  c #87734A",
"x  c #9C7245",
"c  c #93764A",
"v  c #9D744A",
"b  c #8D7857",
"n  c #987D52",
"m  c #A07147",
"M  c #A1764B",
"N  c #A47B4E",
"B  c #A57D53",
"V  c #A97E51",
"C  c #35822F",
"Z  c #3C8333",
"A  c #3D853B",
"S  c #458D35",
"D  c #458838",
"F  c #438C3C",
"G  c #498D3B",
"H  c #4C9236",
"J  c #4E923D",
"K  c #52923B",
"L  c #5C993C",
"P  c #63853B",
"I  c #5DA03E",
"U  c #76AA3D",
"Y  c #3B8541",
"T  c #398845",
"R  c #458B44",
"E  c #458A47",
"W  c #498C44",
"Q  c #578E4B",
"!  c #449149",
"~  c #519746",
"^  c #549A43",
"/  c #5A9B43",
"(  c #5A9753",
")  c #668544",
"_  c #6C8244",
"`  c #6B8649",
"'  c #738646",
"]  c #728B4B",
"[  c #6E944E",
"{  c #769544",
"}  c #7A9646",
"|  c #7A9846",
" . c #74974B",
".. c #7C9B4C",
"X. c #789653",
"o. c #5DA347",
"O. c #62A545",
"+. c #68A846",
"@. c #62A44A",
"#. c #6AA54A",
"$. c #6BAC4C",
"%. c #72A444",
"&. c #75AD45",
"*. c #74AD4B",
"=. c #78A94A",
"-. c #6DB045",
";. c #75B145",
":. c #7BB446",
">. c #7DB946",
",. c #75B24B",
"<. c #7CB54B",
"1. c #7DBA4C",
"2. c #68AA52",
"3. c #7CA151",
"4. c #7DAC52",
"5. c #79A758",
"6. c #6CB157",
"7. c #75B452",
"8. c #7BB551",
"9. c #74B954",
"0. c #7DBB52",
"q. c #7DB859",
"w. c #7FC14D",
"e. c #7DC157",
"r. c #9E8159",
"t. c #A48256",
"y. c #AD8355",
"u. c #A6855A",
"i. c #AE865A",
"p. c #AE895B",
"a. c #B18757",
"s. c #B1865A",
"d. c #B48A5C",
"f. c #B88E5F",
"g. c #8DAD4F",
"h. c #84BA46",
"j. c #86BC46",
"k. c #81B64B",
"l. c #84BC4C",
"z. c #8ABE4D",
"x. c #86A95A",
"c. c #83B552",
"v. c #85BD52",
"b. c #8BBE52",
"n. c #84B85A",
"m. c #8DBD5B",
"M. c #92BD53",
"N. c #93BC5A",
"B. c #9B8766",
"V. c #AE8A61",
"C. c #A28D6B",
"Z. c #B68D61",
"A. c #B98E61",
"S. c #A6916C",
"D. c #B49066",
"F. c #BD9365",
"G. c #BD9669",
"H. c #A18F70",
"J. c #AA9674",
"K. c #8DA864",
"L. c #8ABA62",
"P. c #94BE63",
"I. c #C09567",
"U. c #C29867",
"Y. c #C19669",
"T. c #C3996B",
"R. c #8BC247",
"E. c #86C24C",
"W. c #8CC34D",
"Q. c #8DC84E",
"!. c #91C34E",
"~. c #95C84D",
"^. c #86C252",
"/. c #8CC351",
"(. c #89C758",
"). c #8BC45A",
"_. c #92C453",
"`. c #99C453",
"'. c #93C853",
"]. c #99C954",
"[. c #94C65B",
"{. c #9AC65C",
"}. c #95C95C",
"|. c #9AC95C",
" X c #9DD05D",
".X c #A3CB59",
"XX c #89C461",
"oX c #95C562",
"OX c #99C563",
"+X c #96C962",
"@X c #9BCA62",
"#X c #9CC96A",
"$X c #A5C966",
"%X c #A0C46A",
"&X c #ACD466",
"*X c #A3D16A",
"=X c #B3D367",
"-X c #ABCC79",
";X c #B1CD78",
":X c #AAD275",
">X c #B2D779",
",X c #D4DC59",
"<X c #DBE15D",
"1X c #D3DE68",
"2X c #CEDE72",
"3X c #D7E365",
"4X c #D9E673",
"5X c #D4E37E",
"6X c #A2B387",
"7X c #BCDC84",
"8X c #B8D889",
"9X c #BBDC94",
"0X c #C6DD8C",
"qX c #C1DD9D",
"wX c #CBE28A",
"eX c #D6E585",
"rX c #C6E298",
"tX c #D3E59B",
"yX c #C6DEAC",
"uX c #CBE6A4",
"iX c #D2E8A5",
"pX c #D3E6AC",
"aX c #CFE7B1",
"sX c #D4E6B3",
"dX c #D5E9B5",
"fX c #D5E6BA",
/* pixels */
"# # # @ * * * @ # # * # @ @ * @ * @ = * # * # # @ # # # # # # @ @ * @ # # # # # @ @ @ @ @ = = # # @ * * * * # # # # * * * * * # ",
". . o P }  .{ _ .       3 { { { { O O   X ' x.x.' 6 . . . . 1 | } | ' $       $ ' U { ] % O . . 3 ..{ } } o . . . $ } { } } &   ",
"p p p 3 8.8.2.% a p p p 0 =.z.b.r q w p a 6 c._.k.2 a p p p : =.^.^.6 5 p p u q ) 0.6.Q : w f f 2 c.W.W.6 > p p i q ) v.E.{ 4 p ",
"k k M j 0 7 8 j M k k v l w 3.] g N b k M a t c.e j M k k v l w 4.' h v k l k v q ) 9 w v b l m k w x.` a M k d x M 5 `  .w v x ",
"f.Z.m M l : l N m Z.A.V x v 4 h M k J.A.x v j 4 l M x f.f.N m v 4 j M x V.Z.d.k M h 4 v x C.D.N v v 4 h M l d.f.s.k N 5 4 v x u.",
"d.A.Y.V d.- A.V I.I.Z.Y.s.d.u N y.F.H.G.F.y.d.- d.y.F.F.d.I.s.A.y B V A.I.s.T.A.i.v i d.a.J.Z.G.y.Z.; V y.A.I.a.Y.Z.y.x s a.s.I.",
"V V I.V Z.- A.V A.V V A.d.A.u V y.I.B.V I.y.Z.; A.y.F.y.N Z.d.A.y V V I.V V a.I.a.v s f.f.C.t.F.d.F.; i.a.F.y.N s.I.i.M s d.A.d.",
"s.A.T.s.A.- F.y.Y.A.s.Y.d.Z.u V y.G.C.F.U.y.d.; A.i.U.A.d.T.d.A.y V s.I.Y.V I.I.a.M s f.f.J.p.T.a.F.; i.y.I.I.a.I.I.s.M s d.A.T.",
"I.I.d.A.a.> Z.I.s.Y.I.Z.A.F.5 B I.a.J.Y.a.G.V.4 Z.F.a.I.G.f.d.F.q t.I.d.G.F.I.a.Y.c h Y.d.J.G.f.f.F.4 u.G.a.I.G.A.d.I.n j G.Z.A.",
"y.a.F.V.0 W e Z.I.V i.Z.F.z 3.' t.G.H.i.F.d.e 5.t f.F.i.y.f.F.z 3.r t.I.y.y.a.I.t.X.6Xb F.S.u.Z.F.z 3.r y.G.a.a.s.I.n ] ..c G.d.",
"a.i.V.0 ( &.c.w s.i.V.i.z x._.v.r p.H.s.p.3 , <.4.w p.a.p.p.z 3.v.%.r t.p.p.V.B ' b.{.X.n C.V.d.h 3././.e t.d.a.s.r.' v.0.[ c p.",
"1 < 3 Q <.j.W.c.3 1 < & 9 c._./.v.e 0 1 3 T F 8./.c.3 1 < < ../.W.W.W.r 3 4 1 _ /.M.!.l.` 0 < < 3./.W.W.z.e 1 1 1 r @.o.T 8. .1 ",
"/.W.z.l.R.W./././.W.l.<.8._.W././.[.uX[.h.;.h.^._.]././.R.Q.Q._././.W.'.@XfX+XE.W.<.&.o.>.R.W.W.R./.W.W._.W.|._.)./.1.^ *.z.E.W.",
"!.W.W.W.W.Q.W.W.W.W.E.W._.z.R.^./.P.0X]./.W.W.].4XwX}./.~. X_.R.z.W.'.W.+XtX{.^.,.D Y ,.W.!.b././.'./.R.^.'.rX2X|./.^.l.b./.!.^.",
"W.R.(.W.W.W.W.W.W.W./.Q.W.W./.W.W.b.b.E.^.W.W.|.aXOX/.W.W._./.W.W.W.M./.l.N.z./.0.Z %.l.E.W./.W.W.W.W.z.k.^.#XpX|.!.W.W.W./.W.^.",
"W.R.W.!././.W./././.W.W.^.<.^.(.W.W.R.W._./.W.E.[././.W.l.^.W.W.E.E.l.h.o.v.!.R.W.<.E./.~.W.W.W.!.E.W._.W./.Q.}.W.W.W.W.W.7.W.XX",
"/.W.^.(.W./._.W././././.l.J h.^.<.W.W.W.[.^.W.W.R.^.l.<.E c.!.W.W.h.K <.+.z.W.W.W.'./.'.=X'.W.h.E.<.E././.W.W./.W.^.R./.h.K l.(.",
"/.>.0.^.W./.W.l.b.0.W.^.W.*.z./.W.R.W.R.W.W./.W.).k.Y 2.<.W.W./.E.>.,.l.<.z.W.W.'.=X].W._./.h.G O.D 1./././.R.Q.W.W.z.W.^.8.b.^.",
"1.F 7.v.N.OXl.K *.G k.W./.!.W.^.W.W.R.l.R.W.W.!.z.;.D ;.l.!.W._.W.W.l.z.E.l.|.$X/._.W.W.W.W.R.*.+ + <.W.W.!._.W.W.E.U R.W.'._./.",
"^.,.z.).7X,XN.k.E.*./.W._.W.!._._.W.v.%.W.W.W.W.W.b.k.!.z.W.~.=X_./.W.E./.}.iX1X`._.W././.!./.<.*.l.W./.!.W.W.W.W.W.z.W.W.Q.W.W.",
"W.W.W./.{.;X[.v.W.W.^.|.0X@X.X'./././.z.W.W./.W.W./.W././.W./.!.!.(.R.!.W./.+X-X/.!.E.R.Q.W./.W./._.W.W././.W.W.W.W./._./.'.W.W.",
"l./.W./.}.{./.W.W.W._.;X,X$X@X!././.h.R.R././.W./.W.z.;.W.W././.!.W.W.W.'._.W./.W.^.^.2.>.W./._.!.W.W.W./.Q.W.W./.W./.!.'.&X/._.",
"U z.}.}.7X1XN._.W./.!.).M.z./.W.R.;.K l.R.Q.!.W.W.~.z.W.W.W.W.W.W.W.W.W.Q./.W./.^.(.b./ <.W.W._.W.W.E.%.z././.W.W.^.'.W._._.W.!.",
"v.{.qX{.#XdX@X|.@X_.!.W.z.E.^.E.&.R *.W./.W././._.W./.W.W.W./.R.h.E.1.R.W./.W.^.h.m.z.:.l._.@X_./.R.E.W.R.!.W./.^.0.^.R.b.W.W.W.",
"E.m.qX}.z.L.}.sXsX}./././.W.Q.1.C @.<.>.E.1.XX'.W.W././.l.W./.k.S =.S h.R.'.W.W.W./.W.W./.#XdXOXW.W.W./.!.!.E.(.l.F ;./.W.W.W.W.",
"!.E.m.0.,.G l.m.P./.{.|.!.W.W.l.D <.>.G 7.T v.W.W./.^.W.U z.W./.0.1.S ;.].&X'./.W././.R.'.rX3X]./.}.'././.R.l./.^.;.l.W.!./.W.W.",
"W.W.1.T ~ :.E.z.z.}.sX@X!.W.!.^.l.l.W.<.#.5.z.W.!.W.!.R.j._././.l.W.l.W._.!.W.W.!./././.W.[.j.z.{.pX@X/.{.!.R._.!.W.!.!.W.W.W.W.",
"/.W.k.W ;.j./.W./.$X5X:X_._.W.W.!.@X_.j.[.:X'._.R.z.W.).W.!.W.'./._.W.z./.W.!.W.W.W.E.W.W./.l.b.[.eX>X'.'.Q.W.W.W./.<.E.0.l././.",
"W.W.W.l.E.W.W.^.W./.b.b.b.R.W.W.@XfX#X}.7X,XM.!.l.%.^.W.W.z._.W.W.W.W.%.R.W.!.W.^.W.|.].'.W.z./.b.b./.}.]._.z.z./.<.E $.T 1.W.W.",
"!.W.W./.(.W.!.W.z.W.h.O.l.7.l.W.|.tX%X/.[.%X)./.W.v.R.W.W.W.W.W.!.E.W.W.^./._././.).rXeX~.W.W.W.R.R.}.uXwXM.&.z.W.b.<./ 2.0.W.W.",
"W.W.'.W.W._.&X/.W.W.^.$.E.9.<.[._.m.b.!._.=X_.R.|.!.W././.W.R.!.W./.R._.W./.'.b.W.W.oXqX'.W./.W.l.^./.).-X'.E.W.R._.8.k.^.'.W.E.",
"W._.W.W./.R._././.W.W.l.E.^.|.iX*X/.W.z.W.'.!.[.uX*X_._.W.W././.W./.W.W.W.W.^.W.R./.#X9X).h.j.<.G k.[./.).W./.OX+XW.W._././.W.W.",
"W._.W.R.W.).W.E._./.W.W.W./..X1XtX[.z.%.E.W.W.~.3XiX@XW.h.W././.W.Q.W.z.'.^.^.0.E.{.aXeXv.H @.W =.[.qX{./.W.}.dXdX|.W.(.R.!././.",
"W.W.E.l.Q.0.(.W.R.W.W.R.W.l./.z.|.'.!._./.W._.W.z.oX1.>.Y 0.W.R.W.W.W.z._.^.0.F :.W.[.M.^.;.T +.<.b.rX{.v.W.Q.@X@XW.W./._.W.W.W.",
"W.W.l.J 6.E 1.W.W./.v.E./.'.W.E.W.E.{.tX{.!././.j.l.H +.D ,./.W.W.W./.&.l.b.v.*.E.W./._.z.h.*.z.z.W.n.0.O.l.!.W././.W.)./.W.W./.",
"!.W.R.<.2.$.v._.W.W.%.b.W._.W.!.W./.OXfXoXW.W.W.W.E.,./ 8.b.W.W.W./.b.z./.W.W.W.W.W.l./._.R.^._.!.E.9.w.$.;.z.W./.R.W.z.W.W./.W.",
"Q.W./.W.l.z._.W.W./.z._.R././.W.W.W.W.v.b.c.M.W.W._.E.l./.W.R./.W.E.h.R./././.l.E.l.@.^.W./.Q.!._.l.v.W.v.z.^.W.E.O.<.O.l.W.W.Q.",
"/./.E.W.W.W.R./.'.^.W.R.!.E.W.E.%.l.w.T 6.! v.E.W.W.E.^.W.W./.!./.z.W.W._.W.1.F v.(.b.^.W./.W.R.W.W.z.W.W.W./.R.W.e.h./ <.W./.^.",
"/./././._._.E.W.'./.E.W.^.!.!.W.z.W.^.0.6.6.^.R._.!._.W.W./.W././.W.Q.#X>X'.l.1.E.'.b./.W.W.W.W.W.W.!.W.W.W.W.E.E.l.z.z.W./.W._.",
"_.R./.W.W.R.R.^.W.!./.l.W.W.z.W.R.W.z.k.v./.W./.W.R.z.W._./.W./.R./.OXsXeX_.W.<.z./.^.W.W.W.W.W.W.W./.W.W.1.l.v.E.^.W.!.E.W.Q.!.",
"W.W.W.W.W./._.^.k.z.,.I l.W./.W./.W./.W.W.W./.!.W.W.%.z.~./.^.0.(.W.(.[.]./.^.).z.W./.W.W.E.W.<.W.W./.W.1.R *.D >.W.W.!.W.W./.!.",
"W.W.W.W.W./.'.l.R 2.E :.W.W.^.W.^._./.'./.W.W.W.W.R.z.z.W./.l.W 0.!.E.!.[.@X{.{.|.W.W.W.z.v.1.D <./.R./.W.1.8.+ &././././.W.W.W.",
"W.W././.z./././.;.E $.l.E.R.R.W.z.W.'.=X_.~.W.W.W.).'.!./.W.W.1.z.W.W.~.5XpX*XsXfX#X'.W.>.H 0.1.k.b.R.!.W.h.^.h.E.W.'././././.W.",
"Q.W.W._././.W.R.k.:.z.W.W.j.W.<.-.^.W.~.!.R.(.Q.W.(.0.W._.E.W./.@X@X!._.:X#X^.n.[.W.^./.<.L 0.b.E._._.!.^.^./.W.W.z._.R.W.W.l.W.",
"W.R.W.'./.W.W.W.W.W.W.W.l.K +.R >.W.W.W.W.~.W.W.l.v.R <./.W.!.{.pXfX{././.k.,.F 1.R./.W.W.z.W.W.R.R.l.^.E.R.^.W.l.%.z.W.l.&.! l.",
"W.E.W./._.W.W.W./.Q.!./.v.$.Y o.k./.W.!.W.W.W.l.G 0.0.z._._.R.z.[.{././.;.C C &.W././.Q.`.M.z.b._.l.L k.+.l.W.Q.W.v.W.0.A D ,.E.",
"!.W.R.W.W.W.W.W.R.W.W.W.W.<.;.l.W.^.W.W.W.E.W.;.D 1.l.W.E.W.^.!.b.`.{.^.;.A #.<.W.!./.W.j./.W.W.^.z.,.l.$.<.^.W.W./.W.n.A +.<.W.",
"W.W.W.!.W.W././._._.W.Q.W.R.W.W.W.!.W.W.W././.R.1.b._./.R.W.!.b.`.3XwX].^.v.z.z.^.R.W.l.%.z.W._.W.^.1.z.l.W./.!.!.!.#X8Xb.R.^./.",
"W.v.z._.W.W.W.'.&X'.(.v.9.0.(.E.W.R.W.R.W././.W.R.W././.R.W.!.b.OXpXOXW././.W./.!.W.W.!.b.R.W.!./.l.b.E.|.{.'.W.W.oXpX5X'.W._.W.",
"j.P l.)./.^.R./.'./.E.J T >.W.W.W./.)._._.W.W.W.b.!.!.W.h.E.v.(./.+X/.W./.W.W.R.W.^.W.W./.^.Q.W.z.=.z.'.8X3X{.b.W._.|.`.R././.Q.",
"j.) j.0.E.9.E.z./.oXv.L ,.@X/.W./..X|./.R.R.W.`._./.W.l.K ,.! 0./.E.W.W.W.W.l.E.1.0.).W.W.R.W.W.W.W.E.z.@XrX[./.W.l.W.M.E.E.W.W.",
"l.[ z.l.@.T *.).@XiX|.l.W.].].R.`.<XrX'./.b./.W.l.W.).z.0.q.4.b.E.Q./.R.!.k.W 2.R v.R.(.l.W.z.^.W.!.!.z.^.[.E.h.;.G 1._.W.R.W./.",
"j.X.z.b.7.<.z.).-XwX[.).[.>X5X{.M.;X[.W.W./.W.l.O.j.W.W.l.E.W.W.!._./.R.W._.*.E ~ <.W.l.o.8.~ l.W./.).@X/.l.+.J Y ,.@X>X].z.W./.",
"b.] l.W.z.^././.+XM.[.8X|.[.yXoXv./.E./.'./.n.^.l.^.b._.W.W.!._.W./././././.l.*.v.W./.W.l.7.T ;.b._.OXfX|.W.<.T #.m.pX5X].z.W.W.",
"k., l.R.!.W./.|.tX#XL.8X_.c.( 8.Z 1.Q.#X>X8.F 1.h.W.W./.W.'.&XQ.W./.E.R.!.W.W.E.R.!.W.W.z.v.h.W./.E.[.tX{./.b.l.W.b.+XN././.W./.",
"b.g.z.!.W././.~.3XuX{.b.z.b.v.8.Z ,.}.fXeX_.<.W.^./.W.W.!.R.'.W.W./.l.z.^.W.W.!./.^././.W.^.^.E.h.W.<.b.b.W./.W.W./.W.W.W./.W.W.",
"b.X.j./.W././.W.M.{.!.z.W.z.N.z.v.E.R.}./.W.E.W./././._.E.W.W././.l./ <.2.v.W.W.W././._.W.W.W.>.S ;.S >.W.!./.b.b.oX}.W./././.W.",
"v.X.z.W.W.W.Q.E.E.W.z.:.E.OXiX}.E.R.U v.W./.W.W./.W.R./.W.W.W./.W.^.q.h.$.>.W././.W.W._.W.W.!.^.0.k.D :.W.W.W.W.[.iXpX|./.W./.W.",
"/.X.b.!.R.E.W.1.^._.W.E.R.N.fX{.W.W.z.M.W.Q./.W./.W.W./.W.!.W.E.W.W.k.z.^.W.W././.W././.W.E.z.v.v.v.l./.W.W.!.W.W.|.@X/.Q.W.W.Q.",
"[.n.b.W.l.o.8.E 1./.^.W././.m.^.1.W./.W.W.|. XQ.W.!.W./.W.^.b.7.W./././.R.W.!.W.W.W.W.^.<.o.L E./.W.R./.W.W././.W./.l.W.1.^.W.W.",
"b.K.=.z.v.l.e.,./.R.W./._.k.W 7.R k.E._.W.W.~.W./.!././.l.9.^.v.W.W.W._.W.!.W.W.W.'.'.<.T F <.W.!.W./.W.Q.E.!./.W.w.! $.Y c.W./.",
"z._ k.W.W.W././.^.W./.!./.l.<.v.$.^.W.^.W./.W.W./.W.W.W.>.K v.l.R.W.W././.!./.R.W./.^.v.2.,.E._.W.W.!.W./././.W.W.W.8.~ @.l.W._.",
"h., k.R.W._./.W./.W.W.E.!.W.<.W.W.E./.W.W._./.W.W.!./.W./.8.^.W.E././.W.l.W./.'._.Q./.R.1.).W.W./.W.W.W./././.R.W.R.k.<.l./.R.E.",
"z.k.M.^.W.'.W.W._.W.W.>.W.!.^.W./.W.!.!.W.^.W.W./.W.W.R./.M._././.W./.R.z././.W.R././.R.W.z.W./.W.W.R./.W.Q./.W.W._.W.W.'.E.W.W."
};
