/* XPM */
static char *result[] = {
/* columns rows colors chars-per-pixel */
"64 64 222 2 ",
"   c #4C2B0D",
".  c #4E2C12",
"X  c #502B11",
"o  c #4C341B",
"O  c #4A3721",
"+  c #397E3A",
"@  c #65421E",
"#  c #69411E",
"$  c #71471E",
"%  c #544323",
"&  c #544B28",
"*  c #5C5E32",
"=  c #644221",
"-  c #654927",
";  c #764C25",
":  c #685E33",
">  c #795F3F",
",  c #577230",
"<  c #656433",
"1  c #696735",
"2  c #6D633B",
"3  c #64693A",
"4  c #686839",
"5  c #74633B",
"6  c #7B653E",
"7  c #756F3F",
"8  c #6B793E",
"9  c #7A5F41",
"0  c #5D6E45",
"q  c #696641",
"w  c #7D6340",
"e  c #776946",
"r  c #697A46",
"t  c #6B7C45",
"y  c #737344",
"u  c #757646",
"i  c #81572F",
"p  c #845B32",
"a  c #845D3C",
"s  c #886539",
"d  c #8C643A",
"f  c #966C3E",
"g  c #836B42",
"h  c #8A6A42",
"j  c #886A46",
"k  c #956C42",
"l  c #9A6F43",
"z  c #976F49",
"x  c #897348",
"c  c #8A764B",
"v  c #967146",
"b  c #9B7146",
"n  c #9D744A",
"m  c #8B7857",
"M  c #927953",
"N  c #9C7D53",
"B  c #A1764C",
"V  c #A47A4E",
"C  c #A47A51",
"Z  c #A87E51",
"A  c #35822F",
"S  c #3C8332",
"D  c #38833A",
"F  c #468D35",
"G  c #448738",
"H  c #438C3C",
"J  c #4A8C3B",
"K  c #4C9236",
"L  c #4E923D",
"P  c #52933C",
"I  c #5C993C",
"U  c #6A843D",
"Y  c #69A23A",
"T  c #74A93D",
"R  c #358545",
"E  c #3A8542",
"W  c #398A43",
"Q  c #418544",
"!  c #448B43",
"~  c #498B44",
"^  c #428D4A",
"/  c #4A8D49",
"(  c #5C8C4E",
")  c #479146",
"_  c #539846",
"`  c #5A9B42",
"'  c #688544",
"]  c #748B45",
"[  c #73854A",
"{  c #738C4C",
"}  c #769544",
"|  c #799645",
" . c #799845",
".. c #73944D",
"X. c #77994B",
"o. c #7B9E4C",
"O. c #798B55",
"+. c #789952",
"@. c #5BA146",
"#. c #62A445",
"$. c #6BA946",
"%. c #67A648",
"&. c #6AAB4D",
"*. c #72A544",
"=. c #75AD46",
"-. c #74AE4B",
";. c #79A94A",
":. c #6BB149",
">. c #75B145",
",. c #7BB446",
"<. c #7DB946",
"1. c #75B24B",
"2. c #7CB54B",
"3. c #77B94F",
"4. c #7DBA4C",
"5. c #68AA52",
"6. c #7BA854",
"7. c #6DB257",
"8. c #75B452",
"9. c #7BB551",
"0. c #74B954",
"q. c #7DBB52",
"w. c #7DB859",
"e. c #7DC157",
"r. c #8C9255",
"t. c #A28256",
"y. c #AD8355",
"u. c #A5835B",
"i. c #AE865A",
"p. c #AD885B",
"a. c #B18656",
"s. c #B1865A",
"d. c #B48A5D",
"f. c #B88E5F",
"g. c #84BB46",
"h. c #86BC46",
"j. c #81B64B",
"k. c #8BB44C",
"l. c #84BC4C",
"z. c #8ABE4D",
"x. c #82AE54",
"c. c #83B452",
"v. c #85BC53",
"b. c #8ABD52",
"n. c #84B85A",
"m. c #8DBC5A",
"M. c #92BD53",
"N. c #91BB5A",
"B. c #9F8865",
"V. c #A88D67",
"C. c #B68C61",
"Z. c #B98E62",
"A. c #A7916D",
"S. c #BD9365",
"D. c #BD956A",
"F. c #AA9673",
"G. c #B19872",
"H. c #97A86E",
"J. c #8ABA62",
"K. c #94BE63",
"L. c #C09567",
"P. c #C29867",
"I. c #C19669",
"U. c #C3986B",
"Y. c #8BC347",
"T. c #86C24D",
"R. c #8CC34D",
"E. c #8DC94F",
"W. c #91C34D",
"Q. c #95C84D",
"!. c #86C152",
"~. c #8CC351",
"^. c #8DC852",
"/. c #86C55B",
"(. c #8CC45A",
"). c #8FC95A",
"_. c #92C453",
"`. c #99C453",
"'. c #93C954",
"]. c #99CA55",
"[. c #94C65B",
"{. c #9AC65C",
"}. c #95C95C",
"|. c #9AC95C",
" X c #9DD05D",
".X c #A3CB59",
"XX c #89C461",
"oX c #95C561",
"OX c #9AC464",
"+X c #96C962",
"@X c #9BCA62",
"#X c #9BC96A",
"$X c #A4C966",
"%X c #A0C46A",
"&X c #ADD466",
"*X c #A3D16A",
"=X c #B3D367",
"-X c #ABCC79",
";X c #B1CD78",
":X c #AAD275",
">X c #B3D77A",
",X c #D4DC59",
"<X c #D3DE67",
"1X c #D7E365",
"2X c #D5E37B",
"3X c #BCDC84",
"4X c #B5D889",
"5X c #BBDD93",
"6X c #C6DD8C",
"7X c #C1DD9B",
"8X c #CAE38B",
"9X c #D6E687",
"0X c #C7E297",
"qX c #D3E59B",
"wX c #C6DEAC",
"eX c #CBE7A5",
"rX c #D3E7A4",
"tX c #D3E6AD",
"yX c #CFE7B1",
"uX c #D4E5B4",
"iX c #D5E6BA",
"pX c #D6E9B8",
/* pixels */
"~.T.R.~.R.~.R.T.E.R.R.~.R._.~.Y h.R._.~.~.W.R._.~.R.T.R.R.Y.Y.W.R.~.~.T.R.R.R.R.R.R.T.(.<.R.~.R.R.R.W.T.< p.y.L.C.Z Z.C.k a X # ",
"R.R.R.~.R.T.T.j.~.R.~.W.W.T.~.z.~.R.R.~.E.R.[.&X_.R.~.~.~.R.E.R._.R.R._.R.R.~.R.~.Y.~.4.! l._.b.~.(.R.R.4 d.S.s.U.S.L.B B a X # ",
"`._.R.R.l.q.$.J l.R.R.R._.W.R.R.~.R.R.R.T.R.T.`.R.T.~.~.W._.W.~.~.T.R.R.R.R.~.R.R.4.7.:.1.R.T.R.W.'.E.R.x.e C.S.s.s.Z B h 3 8 # ",
"R.R.~.~.3.R D >.R.R.R.R.R.z.R.R.R.z.z.l.@.g.R.~.l.T z.R.R.~.W.R.R.E.R.R.~.W.~.~.~.2.W 2.b.R.R.R.`.=X~.R.b.c.7 f.S.S.Z.z q v. .= ",
"R.^.R.M.j.` =.l.~.~.R.~.~.W.R.R.~.z.%.v.%.j.R.R.R.z.R.E.R.R.T.R.~.R.R._.].R.R.T.R.T.q.~.~.R.~.~.(.Q.~._._.R.c.: $ # ; < 9.b. .= ",
"R.~.~.R.R.v.R.R.~._.~.R.~.~.R.W.R.<.0.!.c.R.R.E.R.R.(.~.R.R./.~.v.T.W._.R.R.R.R.R.W.R.R.W.R.R.R.R.R.z.R.~.v.y C.S.Z.s.j r b.X.= ",
"W.W._.~.~.R.R.~.R.R.W.E.~.~.R.R.R.~.~.R.R.T.R.T.W.R._.`.~.b.(.q.~ -.Y.R.^.R.R.'.R.R._.~.R.~.R.R.l.R.8.z.n.y d.D.y.y.y.n h 3 ] @ ",
"R.R.R.R.R.R.R.R.R.~.R.R.R.~.R.R.~.`.}.E.R.R.~.R.~.R.[.4X}.l.~.!.=.z.R.W.R.R.R.~.~.R._.'.R.R.R.<.H >._ 4.8 y.S.p.I.S.S.b n a o # ",
"R.T.~.~.R.v.~.~.W.R.R.~.~.~.R.R._.1X8X'.^.R.R.~.R.R.n.4X`.R.T.R.T.T.R.R.R.~._.R.R.W.*X5X[.R.R.g.0.l.8.~.1 i.a.L.S.Z L.Z.k a   # ",
"~.E./.v.9.F 2.R.~.~.l.R.l.).~.~.$XqX@XR.l.z.4./.~.z.z.b.~.R.R.R.~.z.R.~.R.^.(.R.E.[.tX9X]._.R.l.j.z.b.~.1 s.y.I.s.Z d.Z.k a X # ",
"R.R.4.W _ 1.z.R.~.l./ $.^ @X_.R.R.'.R.l.#.$.G <.R.~._.b.R.R.~.R.z.*.R.R.~.^.R.R.R._.}._.R.R.R.W.R.R.~.R.1 i.C.Z.I.d.U.Z l >   # ",
"Y.W.j._ 2.z.R.R.R.R.,._ ) c.R.~.R.~.'.(.1.R F j.~.~.~.T.E.~.R.~.R.R.T.l.`.|.R.R.R._.R.l.R.R.R.(.~.R.R.R...M Z.f.f.C.d.l z 9 * @ ",
"R.R.R.l.R.R.R.~.~.R.j.3.l.~.R.~.~.}.0X}.l.>.<.R._.].R.R.R.E.R.~.~.R.E._.@XiX+XR.z.<.=.@.g.R.R.R.R.R.R.R.(...M L.d.d.s.n w ..} @ ",
"W.R.R.R.E.W.R.R.T.R.R.R.R.R.T.R.b.K.6X|.R.R.R.`.2X8X}.~.W. XQ.Y.Y.R._.R.+XqX[.~.0.S R 1.R.Y.b.~.R._.W.R.R.[.H.x d d d 6 X.z.| @ ",
"z.R.^.R.R.R.R.R.R.R.~.R.R.R.R.~.R.R.b.Y.~.R.^.|.tXOX~.T.R._.~.R.~.R.b.~.l.N.W.~.v.S *.l.R.R.~.R.R.R.R.z.j.v.O.N B B n g { z.} @ ",
"R.Y.R.~.~.R.R.~.~.^.R.R.R.3.R./.R.R.z.R.(.~.R.T.}.~.R.R.l.~.R.R.R.z.l.g.` v.R.R.z.<.z.~.W.R.R.R.W.T.R._.~.{ N L.s.s.y.B w ( } @ ",
"R.T.R./.R.R._.~.~.~.~.~.4.~ l.!.2.R.R.R._.~.R.R.R.T.l.2.^ j.W.R.R.g.P 2.%.R.~.z.R.].~.'.=X_.z.g.T.<.!.~.r t.S.d.S.S.C.k B e O = ",
"~.<.q.!.T.~.R.l.v.v.~.R.R.,.l.~.R.R.R.R.R.~.~.R.~.2.R 5.2.z.R.~.z.<.8.T.2.z.R.R.(.=X_.R._.R.l.J #.G 3.R.0 A.A.F.A.B.A.F.m e O - ",
"4.H 8.b.N.{.l.P -.J 2.W.~.R.R.~.R.Y.R.h.W.R.T.~.R.1., ,.l.W.R._.R.R.<.z.T.z.|.$XW._.R.^.R.R.R.=.+ + 4.R.< s.i.D.C.t.S.C.k a X - ",
"~.1.v.(.6X,XN.4.T.-.b.~._.R.W._.W.R.v.*.Y.T.R.R.E.!.0.W.R.W.Q.=XW.~.R.T.~.[.qX<XQ._.R.~.~.W.~.2.-.j.R.~.3 p.S.a.U.D.S.n B s X $ ",
"R.R.R.R.[.;X[.v.R.R.~.|.3X$X.X'.~.~.~.z.R.R.R.R.R.~.R.~.~.R._.W.R.~.R.R.W.R.+X:X_.R.R.T.R.R.~.R._._.R.T.j.e C.S.y.y.y.n j q ] @ ",
"z.~.R.(.[.{.~.R.R.R._.:X,X$X}.'.~.R.<.R.R.R.~.R.~.R.z.>.T.R.~.R.W.~.E.R._.^.~.(.R.~.!.&.4.R.~._.W.R.R.R.~.c.u d.Z.Z.C.v y K.| @ ",
"Y z.}.}.3X<XN._.~.~.W.(.M.z.~.R.R.>.P h.R.R.W.R.R.Q.z.R.R.R.R.R.R.R.R.Y.~.R.~.~.~./.v.` ,.R.R.W.R.R.l.*.z.~.6.5 ; ; ; 2 x.N.X.# ",
"z.|.0XoXOXpX@X|.|.~._.R.b.R.R.T.>.Q -.R.R.W.~.~._.R.R.R.R.~.R.R.<.R.j.T.~.R.R.~.<.b.z.2.T.^.@X_.~.R.R.R.W.k.y C.Z.Z.C.v u c.| @ ",
"R.m.wX'.R.J.}.uXuX[.R.R.(.R.R.4.S %.2.<.~.2.XX'.R.~.^.~.T.R.R.j.F ;.F g.R.Q.R.R.T._.R.R.R.#XpXOXR.R.T.R.b.y f.S.y.y.Z V d 3 [ @ ",
"R.R.v.q.1.J j.m.oX(.{.].W.R.R.l.G ,.<.J 8.W c.R.R.~.R.T.T b.R.~.q.<.F >._.&XQ.~.^.~.R.Y._.0X1X`.W.}._.~.3 p.S.a.P.L.S.k B g . # ",
"R.z.q.R _ >.z.R.b.|.uX@XR.R.R.~.l.z.T.2.&.6.l.R.R.R.R.R.h.~.~._.z.R.j.R.~.W.~.~.R.R.^.~._.[.z.R.}.tX@X'.2 y.y.I.S.y.S.f.f a . @ ",
"~.R.j._ >.l.~.R.~.OX2X>X_.R.R.R.R.@X~.z.[.:X_._.R.b.R.~.W.R.R._.~.~.~.R.~.R.R.R.R.R.T.T.R.~.j.z.`.9X>X_.4 s.y.I.a.V d.f.f a . @ ",
"R.R.R.l.T.R.~.T.R.~.b.b.b.R.R.~.|.iX#X'.3X,X`.R.l.*.R.R.R.z.~.R.R.R.R.*.T.R.W.R.~.~.}.`.~.T.R.~.~.z.~.}.5 s.d.Z.U.d.I.Z l a X # ",
"W.R.R.~.~.~.W.R.z.R.g.#.g.3.z.R.|.qX%XR.[.%X(.R.R.z.R.R.R.R.R.R.R.R.T.R.R.~.`.~.z.(.0X9XQ.R.R.R.R.R.}.eXH.M S.d.C.C.d.l z 2 : # ",
"R.R.'.R.~.~.&X~.R.R.~.&.4.q.,.[.[.m.b.W.`.=X_.R.[.W.R.~.~.R.R.R.R.R.T.W.R.~.(.R.R.R.oX7X'.R.R.z.l.!.!.m.-X+.c S.C.C.f.B e X.} @ ",
"R.W.R.R.R.R.~.~.~.R.R.4.T./.}.rX*XR.R.z.!.'.W.[.eX*X`.R.R.R.~.R.R.~.R.R.R.~.R.R.R.~.@X5X[.l.z.2.J l.}.R.[.b.o.h d d p 5 6.(. .= ",
"R.W.T.Y.~.~.R.!.W.~.R.R.T.~..X<XqX}.z.*.T.R.R.Q.<XrX|.R.<.~.~.R.R.E.R.R._.!.!.q.R.[.yX9Xv.K %./ -.N.qX}.~.!.{ N n n b g { ~.| = ",
"R.R.R.l.^.q./.R.R.T.R.R.R.z.~.z.}._.W._.~.R._.z.R.oX4.2.E 4.R.R.R.W.b.z._.T.q.H >.R.[.M.R.1.W $.2.b.7X[.!.] t.S.s.i.s.B w ' | = ",
"R.R.j.L 7.^ 4.R.W.~.v.T.~._.R.T.R.R.{.qX{.R.~.~.h.l.K %.Q 2.~.R.R.z.~.=.z.v./.=.R.R.R.W.z.g.-.z.R.R.n.q.0 t.L.d.S.S.d.k n > & @ ",
"W.R.z.g.&.&.!.W.R.z.*.~.R._.R.W.R.~.+XiXOXR.R.R.R.R.2.` 2.z.R.R.R.~.~.z.R.z.~.R.R.R.l.(.~.R.R.b.z.!.0.4.* i.a.D.I.a.U.d.f a   # ",
"^.R.~.R.l.R.R.W.R.R.R.~.T.R.~.R.R.R.R.v.b.c._.T.R.~.T.l.~.R.R.R.R.T.g.R.~.~.~.l.R.T.@.!.R.~.R.W.W.z.v.R.< i.y.S.Z Z a.C.k a   = ",
"~.~.T.R.R.R.R.R.~.~.R.R.R.R.R.T.*.l.q.W 7.^ v.R.R.R.T.~.R.R.R.R.R.z.R.R._.R.4.H 4./.b.~.R.R.R.R.R.R.z.R.< i.s.L.I.Z U.C.k p   # ",
"~.R.R.~.R.M.R.R.'.R.R.T.~.R.R.R.z.R.R.q.7.7.T.W.R.R._.R.R.~.R.~.R.R.~.@X>X(.j.<.T.(.b.~.W.R.R.R.R.R.Q.R.t u.D.s.L.L.Z.z B > % # ",
"_.R.~.R.R.T.R.~.R.W.R.l.R.R.z.R.T.R.z.j.v.~.R.b.R.R.R.R.~.~.~.R.R.~.@XuX9X'.z.l.z.^.~.R.R.R.R.R.R.R.~.R.v.t u.L.d.Z y.B g r } @ ",
"R.R.R.~.R.R.~.(.4.~.1.I l.R.~.R.R.W.W.R.R.R.~._.R.z.*.z.W.R.~.q.~.~.~.}.`.^.~.~.R.R.R.R.~.T.z.2.R.R.~.W.q.^ r N Z Z C h [ !.| @ ",
"R.R.R.R.R.~.~.l.~ %.~ 1.R.R.~.z.~.~.~._.~.R.E.R.R.R.z.z.R.(.l.) q.R.R.W.}.@X[.oX@XR.~.R.b.v.<.H j.R.T.R.z.<.+.5 p p i 6 x.z. .@ ",
"R.Q.~.~.R.~.~.R.>.Q %.z.R.Y.W.R.T.R.'.=XQ.W.R.R.R._.(.W.R.R.~.4.R.b.R.Q.2XyX*XiXiX@X(.T.<.K 3.q.j.z.R.R.b.o.x S.Z.Z.Z.n e 6. .= ",
"R.R.R.~.~.R.R.R.l.2.z.R.T.h.R.<.$.~.R.E.R.R.^.~.~.^.q.R.W.R.R.~.@X|.~.'.:XOX~.n.oXR.~.W.<.I l.b.R.~._.~.+.c S.Z.d.d.s.l z 2 * @ ",
"R.R.R.'.~.R.R.R.R.W.R.R.l.P $.^ ,.R.W.R.R.W.R.R.l.v.) <.~.R._.`.tXiX|.~.~.j.>.H 4.R.R.R.R.z.z.R.R.R.j.~.3 V.A.F.G.A.G.B.M e O - ",
"R.R.R.R._.R.R.R.R.E.R.~.!.=.E @.j.~.R.R.E.R.R.l.~ q.4.z._.~.R.z.[.[.~.~.1.A S $.R.R.R.'.`.M.R.R.R.l.I j.* V.u.D.V.Z V.C.h a . - ",
"R.R.R.R.R.R.R.R.R.R.R.R.R.2.>.4.R.~.R.R.R.T.R.,.G <.l.T.R.R.~.W.b.`.{.~.1.D %.j.R.R.R.T.z.R.R.~.^.z.1.l.* p.d.f.U.f.U.Z n a X # ",
"R.R.W.R.R.R.~.~._._.R.R.T.R.R.R.R.R.R.R.R.~.R.Y.4.b._.R.R.R.W.z.`.1X8X`.T.j.z.R.~.T.T.z. .T.R.R.R.R.2.T.X.v L.d.d.d.s.z z : : @ ",
"R.j.R.W.R.R.~.'.&X_.^.q.q.q./.R.R.R.R.R.R.~.R.R.R.T.W.~.R.R.R.z.OXtXOXR.~.R.R.R.R.E.R.R.z.R.R.R.b.v.!.R.[.r.c L.Z.Z.d.n e X.} @ ",
"h.U l.~.R.!.R.R.'.E.!.L W 1.T.E.W.z.R._.R.R.R.M.b.W.W.R.g.z.v./.~.}.~.R.(.R.R.R.R.!.R.~.~.R.^.R.z.*.z._.3X<X6.e p p p 6 6.z.| = ",
"l.' j.e.v.0.!.R.~.oXl.I >.{.~.R.~.$X|.~.R.R.R._.(.~.R.l.P 1./ q.~.E.R.R.R.R.j.T.l.q.~.R.R.T.R.R.R.R.R.z.@X7XO.N C B B g ] R.} @ ",
"g...l.l.#.W 1.b.@XeX|.z.R.].].R.`.1X8X'.W.R.R.R.l.~.~.z.q.w.9.b.R.R.R.R.z.g.~ 7.! 9.R.~.l.R.z.~.R.R.R.z.b.[ t.D.d.a.s.B 6 ' } @ ",
"z...z.z.1.2.z.(.:X8X[.oX[.>X2X{.M.;X`.E.R.~.!.z.Y T.R.R.z.T.R.R.R._.~.R.R._.-.Q _ c.R.l.#.9._ 4.R.~.(.OXt t.S.a.S.S.Z.k n > % # ",
"b.{ l.R.z.~.~.(.[.M.[.4X}.[.wXOXv.(.!.~._.~.e.T.<.~.R.~.~.T.W.R.R.~.~.R.~.~.l.-.v.R.R.R.l.7.W >.~._.oXiX2 p.s.S.L.a.L.s.k a . # ",
"l., l.R.~.R.~.}.qX#XJ.4X_.j.( 0.S <.~.#X>X9.J 4.l.z.~.~.R.'.&XQ.R.~.T.R.~.R.R.R.R.R.R.R.z.v.<.z.~.R.[.qX4 d.y.I.y.Z s.f.f a . # ",
"b.x.R.W.R.~.~.Q.1XrX[.M.R.z.n.q.S >.}.iX9X_.1.R.!.~.T.W.Y.W.(.R.R.~.g.z.T.R.R.R.R.~.~.~.T.~.~.R.j.R.<.b.1 s.s.S.L.y.I.d.f a X # ",
"b.+.g.~.R.R.~.R.b.oXW.R.z.z.M.~.l.z.T.}.(.T.R._.~.~.~.~.R.T.R.~.R.l.` 2.5.z.T.^.R.R.R._.T.R.R.<.J >.F <.t p.D.a.L.L.Z.k B 6 O # ",
"v.+.z.R.E.R.~.T.R.R.z.>.T.OXrX[.T.Y.T z.R.~.R.R.R.R.R.~.W.R.R.R.R.~.w.j.&.,.T.~.(.R.W._.R.R.R.!.0.,.F ;.T.t t.S.y.y.Z B g r  .# ",
"b.6.b.W.R.l.R.4.R._.R.T.R.[.iXOXR.R.z._.R.E._.T.~.R.R.^.R.W.R.!.R.T.v.z.!.R.W.R.R.R.~.R.R.l.b.!.l.~.l.~.R.v.u t.Z Z Z j { R. .= ",
"N.x.~.R.h.@.9.^ 9.~.R.~.R.~.n.~.q.R.~.~.R.].].^.R.W.T.~.R.~.~.8.z.~.R.~.R.R.W.R.E.T.~.n.2.#.I T.~.R.R.W.R.R.6.w p p p 5 *.!. .= ",
"M.H.=.l.z.l.e.1.~.R.^.~.R.j./ 1.! j.R.~.R.R.W.R.(.W.R.~.T.0.!.v.R.R.R._.R.R.R.W.R.'.'.4.W D ,.R.W.~.~.R.E.;.x S.C.d.d.n q ..X.= ",
"z.' j.R.R.~.~.~.R.R.R.R.b.z.4.q.&.!.T.~.~._.R.R.R.R.R.R.,.P v.4.T.R.R.R.R.W.R.R.W.~.R.l.5.1.~._.R.R.R.R.+.c Z.Z.f.d.s.z z : 3 @ ",
"j., j.R.R._._.R.~.R.R.R.W.z.j.R.z.T.~.R.R.~.R.R.R.W.~.R.~.9.b.R.R.R.~.R.l.R.R.'.W.^.T.R.v.~.R.R.~.R.R.R.1 i.f.f.U.C.L.C l a . @ ",
"R.j.z.R.R.~.R.T.~.R.R.,.R.R.~.R.~.R.W.W.R.R.R.R.R.R.R.R.~.M.~.~.~.R.R.R.z.~.~.R.R.~.R.R.R.R.R.R.R.R.T.W.1 s.y.L.s.Z C.Z.l a   # "
};
