/* XPM */
static char *result[] = {
/* columns rows colors chars-per-pixel */
"64 64 2 1 ",
"  c #643615",
". c #714827",
/* pixels */
"     .               ....                                       ",
"   ..                   ..              ..   ....               ",
"  ..                                      ...                   ",
"  .                                                             ",
"                                                              ..",
"                                                               .",
"                              ...                    .          ",
"                            ... ...                   .         ",
"             .                     .                  .         ",
"            ..                                        ..        ",
"          ....                                         ...      ",
"          ..                                          ..        ",
"          .                                                     ",
"           .                             ..                     ",
"           .                              .                     ",
"                                         ..                     ",
"                                        .                       ",
"                                        .                       ",
"                       .....                                    ",
"                         .....                                  ",
"                            ...                     ....        ",
"                                                     ...        ",
"                                                      ...       ",
"              ..                                        ..      ",
"             ..                                                 ",
"            ..                                                  ",
"          ...                                                   ",
"          ...                      ..                           ",
"           .                      ..                            ",
"                                ...           ..   .            ",
"                                               .....            ",
"                                                .               ",
"                                                                ",
"                                                                ",
"                                                                ",
"                                                                ",
"                                                                ",
"                                                                ",
"                        .                             ..        ",
"                        ..                           ...        ",
"            .           .                             ..        ",
"           ..          ..                             ...       ",
"          ..          ...                              ..       ",
"          .            .                               .        ",
"           .                                                    ",
"           .                           ...                      ",
"           .                        .....                       ",
"            .                         .. .                      ",
"           .                                                    ",
"                                                                ",
"                                                                ",
"                                                                ",
"                                                                ",
"                                                                ",
"                                                                ",
"                           .                                    ",
"          .               ..                .                   ",
"          ..              ..               ....                 ",
"          ..                ..               .....              ",
"         ..                                                     ",
"       ..                                                       ",
"                                                                ",
"                                                                ",
"                                                                "
};
