/* XPM */
static char *_a80bbeeb81640a8e2b97389d27dc797cK3yvuS4ZbxU29G5[] = {
/* columns rows colors chars-per-pixel */
"64 64 85 1 ",
"  c #582F16",
". c #5A2F1C",
"X c #5A3012",
"o c #5F3110",
"O c #653303",
"+ c #653403",
"@ c #633205",
"# c #653304",
"$ c #663405",
"% c #683307",
"& c #633308",
"* c #6B3309",
"= c #6C330B",
"- c #6F330F",
"; c #603115",
": c #753315",
"> c #773318",
", c #7B331C",
"< c #7D331E",
"1 c #4D2C27",
"2 c #502D22",
"3 c #542C28",
"4 c #43293C",
"5 c #663C2C",
"6 c #7F3420",
"7 c #623A33",
"8 c #623934",
"9 c #6F4317",
"0 c #6F4318",
"q c #704318",
"w c #70441A",
"e c #74431E",
"r c #6D4222",
"t c #3E2742",
"y c #3D2745",
"u c #392648",
"i c #4B2942",
"p c #44274E",
"a c #512A47",
"s c #462752",
"d c #462757",
"f c #462851",
"g c #4D285D",
"h c #522C52",
"j c #672B5A",
"k c #813323",
"l c #813423",
"z c #833425",
"x c #853427",
"c c #863428",
"v c #88342B",
"b c #89342C",
"n c #8F3432",
"m c #933437",
"M c #943438",
"N c #97353C",
"B c #9B353F",
"V c #9B3541",
"C c #9D3443",
"Z c #9D3545",
"A c #9B3D44",
"S c #872F5E",
"D c #A03646",
"F c #A5364B",
"G c #A2354C",
"H c #A5354F",
"J c #AA3651",
"K c #AB345B",
"L c #AF355B",
"P c #B03559",
"I c #B4365C",
"U c #B73660",
"Y c #B13466",
"T c #B83661",
"R c #BD3667",
"E c #B13468",
"W c #B5356B",
"Q c #BA356B",
"! c #BE3669",
"~ c #BD366C",
"^ c #BE3868",
"/ c #C0376A",
"( c #C3376D",
") c #C3386E",
"_ c #C4386E",
/* pixels */
"OOO#$9$OOOOOOOOOOOOO$0www$OOOOOOOOOOOOOO#$OOO$$$#OOOOOOOOOOOOOOO",
"OO$09$OOOOOOOOOOOOOOO$#$q9$OOOOOOOOOOOOO90$#$9qq9OOOOOOOOOOOOOOO",
"O#wq$OOOOOOOOOOOOOOOOOOOOOOOOOOOOOOOOOOOOOwwq$OOOOOOOOOOOOOOOOOO",
"OOq$OOOOOOOOOOOOOOOOOOOOOOOOOOOOOOOOOOOOOO$$+OOOOOOOOOOOOOOOOO#$",
"OO$OOOOOOOOOOOOOOOOOOOOOOOOOOOOOOOOOOOOOOOOOOOOOOOOOOOOOOOOOOO0w",
"OOOOOOOOOOOOOOOOOOOOOOOOOOOOOO$$$OOOOOOOOOOOOOOOOOOOO$OOOOOOOO$0",
"OOOOOOOOOOOOOOOOOOOOOOOOOOOOO#qq0$OOOOOOOOOOOOOOOOOO$9OOOOOOOOO$",
"OOOOOOOOOOOOOOOOOOOOOOOOOOO$qwq$wwq$OOOOOOOOOOOOOOOOOOw#OOOOOOOO",
"OOOOOOOOOOOO$9OOOOOOOOOOOOOOO#OO##$9$OOOOOOOOOOOOOOOOOw$OOOOOOOO",
"OOOOOOOOOOOOww#OOOOOOOOOOOOOOOOOOOO#OOOOOOOOOOOOOOOOOOw0OOOOOOOO",
"OOOOOOOOOOwww0#OOOOOOOOOOOOOOOOOOOOOOOOOOOOOOOOOOOOOOO$wq9$OOOOO",
"OOOOOOOOOOwq$$OOOOOOOOOOOOOOOOOOOOOOOOOOOOOOOOOOOOOOOOqq$$OOOOOO",
"OOOOOOOOOO0$OOOOOOOOOOOOOOOOOOOOOOOOOOOOOOOOOOOOOOOOOOOOOOOOOOOO",
"OOOOOOOOOO$9OOOOOOOOOOOOOOOOOOOOOOOOOOOO$90$OOOOOOOOOOOOOOOOOOOO",
"OOOOOOOOOO$qOOOOOOOOOOOOOOOOOOOOOOOOOOOOO#q$OOOOOOOOOOOOOOOOOOOO",
"OOOOOOOOOOOOOOOOOOOOOOOOOOOOOOOOOOOOOOOO$99$OOOOOOOOOOOOOOOOOOOO",
"OOOOOOOOOOOOOOOOOOOOOOOOOOOOOOOOOOOOOOOO9$$OOOOOOOOOOOOOOOOOOOOO",
"OOOOOOOOOOOOOOOOOOOOOOO#####OOOOOOOOOOOO9#OOOOOOOOOOOOOOOOOOOOOO",
"OOOOOOOOOOOOOOOOOOOOOO#90ww0$#OOOOOOOOOO#OOOOOOOOOOOOOOOOOOOOOOO",
"OOOOOOOOOOOOOOOOOOOOOOOOOwr785&OOX1&OOOOOOOOOOOOOOOOOOOOOOOOOOOO",
"OOOOOOOOOOOOOOOOOOOOOOOOOOosggh; u1@OOOOOOOOOOOOOOOO9wwqOOOOOOOO",
"OOOOOOOOOOOOOOOOOOOOOOOOOOO3dggat2OOOOOOOOOOOOOOOOOO$qww$OOOOOOO",
"OOOOOOOOOOOOOO##OOOOOOOOOOO#.ifpy&OOOOOOOOOOOOOOOOOOOOwww$OOOOOO",
"OOOOOOOOOOOOO$09$OOOOOOOO*zBFVk34>mZNk*OOOOOOOOOOOOOOO#$q9#OOOOO",
"OOOOOOOOOOOOOqw#OOOOOOO#cLWW(_(Sj!((((Pz#OOOOOOOOOOOOOOOOOOOOOOO",
"OOOOOOOOOO#$wq$OOOOOOO#mYW((___~Q((((((RnOOOOOOOOOOOOOOOOOOOOOOO",
"OOOOOOOOOOqww$OOOOOOOOvEQ)___________)((!xOOOOOOOOOOOOOOOOOOOOOO",
"OOOOOOOOOOwwq#OOOOOOO-KW)_____________(((P-OOOOOOOOOOOOOOOOOOOOO",
"OOOOOOOOOO$9$OOOOOOOObE(_______________((/cOOO+OOOO+OOOOOOOOOOOO",
"OOOOOOOOOOOOOOOOOOOOOZW)_______________(((COO#qq$O$qOOOOOOOOOOOO",
"OOOOOOOOOOOOOOOOOOOO#HW________________(((H#OOOqwqqqOOOOOOOOOOOO",
"OOOOOOOOOOOOOOOOOOOO#GW________________)((FOOOO$q$$$OOOOOOOOOOOO",
"OOOOOOOOOOOOOOOOOOOOON(_____________)___(/MOOOOOOOOOOOOOOOOOOOOO",
"OOOOOOOOOOOOOOOOOOOOOl/______________)_((!<OOOOOOOOOOOOOOOOOOOOO",
"OOOOOOOOOOOOOOOOOOOOO-U_____________)))((I-OOOOOOOOOOOOOOOOOOOOO",
"OOOOOOOOOOOOOOOOOOOOO#D)____________)))(/VOOOOOOOOOOOOOOOOOOOOOO",
"OOOOOOOOOOOOOOOOOOOOOO6/_____________)((!,OOOOOOOOOOOOOOOOOOOOOO",
"OOOOOOOOOOOOOOOOOOOOOO#J____________((((H#OOOOOOOOOOOO$#OOOOOOOO",
"OOOOOOOOOOOOOOOOOOOOOOO,^___________(((R,OOOOOOOOOOOO$q0OOOOOOOO",
"OOOOOOOOOOOOOOOOOOOOOOO#A)_______(((((/B#OOOOOOOOOOO$qwwOOOOOOOO",
"OOOOOOOOOOO$q#OOOOOOOOO$eD(_____((((((H*OOOOOOOOOOOOO$ww$OOOOOOO",
"OOOOOOOOOO$0w#OOOOOOOO#0w%mU(((TPR((RC=OOOOOOOOOOOOOOOwwwOOOOOOO",
"OOOOOOOOOOwqOOOOOOOOOOqwqOO-<x<-%>cc:#OOOOOOOOOOOOOOOO$wqOOOOOOO",
"OOOOOOOOOO9$OOOOOOOOOO$9$OOOOOOOOOOOOOOOOOOOOOOOOOOOOO#9$OOOOOOO",
"OOOOOOOOOO$0OOOOOOOOOOOOOOOOOOOOOOOOOOOOOOOOOOOOOOOOOOOOOOOOOOOO",
"OOOOOOOOOO$qOOOOOOOOOOOOOOOOOOOOOOOO##$ww0OOOOOOOOOOOOOOOOOOOOOO",
"OOOOOOOOOO$qOOOOOOOOOOOOOOOOOOOOOOO#qwwww$OOOOOOOOOOOOOOOOOOOOOO",
"OOOOOOOOOOO$9#OOOOOOOOOOOOOOOOOOOOOOO$0q$9OOOOOOOOOOOOOOOOOOOOOO",
"OOOOOOOOOO$9$OOOOOOOOOOOOOOOOOOOOOOOOO$$O$OOOOOOOOOOOOOOOOOOOOOO",
"OOOOOOOOOOOOOOOOOOOOOOOOOOOOOOOOOOOOOOOOOOOOOOOOOOOOOOOOOOOOOOOO",
"OOOOOOOOOOOOOOOOOOOOOOOOOOOOOOOOOOOOOOOOOOOOOOOOOOOOOOOOOOOOOOOO",
"OOOOOOOOOOOOOOOOOOOOOOOOOOOOOOOOOOOOOOOOOOOOOOOOOOOOOOOOOOOOOOOO",
"OOOOOOOOOOOOOOOOOOOOOOOOOOOOOOOOOOOOOOOOOOOOOOOOOOOOOOOOOOOOOOOO",
"OOOOOOOOOOOOOOOOOOOOOOOOOOOOOOOOOOOOOOOOOOOOOOOOOOOOOOOOOOOOOOOO",
"OOOOOOOOOOOOOOOOOOOOOOOOOOO#OOOOOOOOOOOOOOOOOOOOOOOOOOOOOOOOOOOO",
"OOOOOOOOOO#OOOOOOOOOOOOOOO$9#OOOOOOOOOOOOOOO#OOOOOOOOOOOOOOOOOOO",
"OOOOOOOOOO9$OOOOOOOOOOOOO$qw$OOOOOOOOOOOOOOOq#OOOOOOOOOOOOOOOOOO",
"OOOOOOOOOOwqOOOOOOOOOOOOO$00$$OOOOOOOOOOOO$9qww$$$OOOOOOOOOOOOOO",
"OOOOOOOOOOwwOOOOOOOOOOOOOO$$90OOOOOOOOOOOOO$$qwqq9#OOOOOOOOOOOOO",
"OOOOOOO#$q0$OOOOOOOOOOOOOOOOOOOOOOOOOOOOOOOOOOOOOOOOOOOOOOOOOOOO",
"OOOOOOO99$#OOOOOOOOOOOOOOOOOOOOOOOOOOOOOOOOOOOOOOOOOOOOOOOOOOOOO",
"OOOOOOOOOOOOOOOOOOOOOOOOOOOOOOOOOOOOOOOOOOOOOOOOOOOOOOOOOOOOOOOO",
"OOOOOOOOOOOOOOOOOOOOOOOOOOOOOOOOOOOOOOOOOOOOOOOOOOOOOOOOOOOOOOOO",
"OOOOOOOOOOOOOOOOOOOOOOOOOOOOOOOOOOOOOOOOOOOOOOOOOOOOOOOOOOOOOOOO"
};
