/* XPM */
static char *result[] = {
/* columns rows colors chars-per-pixel */
"64 64 234 2 ",
"   c #231C16",
".  c #383B2F",
"X  c #502E0D",
"o  c #5F3003",
"O  c #653303",
"+  c #683707",
"@  c #653609",
"#  c #66390C",
"$  c #6B3B0C",
"%  c #673C12",
"&  c #6C3E11",
"*  c #713F12",
"=  c #6E4216",
"-  c #6F4318",
";  c #6F491E",
":  c #724415",
">  c #704419",
",  c #73491C",
"<  c #7B4C1E",
"1  c #564F26",
"2  c #6C4721",
"3  c #744D23",
"4  c #784E25",
"5  c #755123",
"6  c #7A5225",
"7  c #74512B",
"8  c #7B552B",
"9  c #7C5B2E",
"0  c #6C5336",
"q  c #765637",
"w  c #7C5C32",
"e  c #6E6449",
"r  c #825324",
"t  c #865A26",
"y  c #835528",
"u  c #835A2B",
"i  c #8B5C31",
"p  c #AB572C",
"a  c #A95333",
"s  c #B9583C",
"d  c #836236",
"f  c #8D6232",
"g  c #8F6934",
"h  c #83653C",
"j  c #87663D",
"k  c #976636",
"l  c #936A3B",
"z  c #9A6C3A",
"x  c #9C743D",
"c  c #A56C3A",
"v  c #A3753D",
"b  c #AA773C",
"n  c #AC793C",
"m  c #B67D3F",
"M  c #BA5541",
"N  c #876947",
"B  c #896D43",
"V  c #906F4D",
"C  c #887042",
"Z  c #8E744B",
"A  c #9C7142",
"S  c #93734A",
"D  c #997548",
"F  c #937C4E",
"G  c #947B52",
"H  c #9B7C56",
"J  c #A16F46",
"K  c #AA7642",
"L  c #A27946",
"P  c #AB7B43",
"I  c #AD7D4B",
"U  c #B17644",
"Y  c #B37B43",
"T  c #BA7948",
"R  c #A37954",
"E  c #C67747",
"W  c #CD6756",
"Q  c #D3795A",
"!  c #B7853E",
"~  c #C3863C",
"^  c #C48A3E",
"/  c #98834D",
"(  c #9A8556",
")  c #9B835A",
"_  c #9E895C",
"`  c #AD824B",
"'  c #AB8849",
"]  c #B38245",
"[  c #BE8546",
"{  c #B3844D",
"}  c #BB844B",
"|  c #B48A4D",
" . c #BC8B4C",
".. c #A98756",
"X. c #A58C5C",
"o. c #AB8B5A",
"O. c #B28753",
"+. c #B38A54",
"@. c #B18B5B",
"#. c #B88B58",
"$. c #AC9158",
"%. c #BA9457",
"&. c #968C6E",
"*. c #909073",
"=. c #969C7C",
"-. c #A28661",
";. c #AE8A63",
":. c #B18B62",
">. c #A39364",
",. c #A3946A",
"<. c #AA9A6B",
"1. c #B69967",
"2. c #AB9D71",
"3. c #B6A46A",
"4. c #AEA579",
"5. c #B4AA78",
"6. c #BAB17C",
"7. c #C38242",
"8. c #C68A44",
"9. c #C78947",
"0. c #CB8A49",
"q. c #D08E46",
"w. c #D48B4B",
"e. c #CE9447",
"r. c #CC924C",
"t. c #D4944D",
"y. c #D2994B",
"u. c #C38D54",
"i. c #CA8A55",
"p. c #D9895A",
"a. c #C59254",
"s. c #CB9454",
"d. c #C49C54",
"f. c #CD9B56",
"g. c #C9995C",
"h. c #D89557",
"j. c #D49B53",
"k. c #DA9B54",
"l. c #D29C5D",
"z. c #DD9D5C",
"x. c #C7A457",
"c. c #DBA255",
"v. c #D6A459",
"b. c #DCA45C",
"n. c #DDAC5C",
"m. c #E5A45A",
"M. c #E3A55E",
"N. c #E4AB5C",
"B. c #E9AE5C",
"V. c #E4B25E",
"C. c #EAB05C",
"Z. c #D89E64",
"A. c #E79E65",
"S. c #C7A96C",
"D. c #D4A763",
"F. c #DCA563",
"G. c #DCAC63",
"H. c #D0A368",
"J. c #DEA66C",
"K. c #CBB56B",
"L. c #D3B36C",
"P. c #DAB16A",
"I. c #C4AD79",
"U. c #D5A974",
"Y. c #C8B679",
"T. c #DBB471",
"R. c #D9BA72",
"E. c #D3BD7B",
"W. c #E4A662",
"Q. c #E4AD63",
"!. c #E9AC63",
"~. c #E8A568",
"^. c #E5AD6A",
"/. c #EBAC69",
"(. c #F1A96C",
"). c #E4B163",
"_. c #EAB062",
"`. c #E5B36D",
"'. c #EBB56D",
"]. c #E7B773",
"[. c #D6C279",
"{. c #E2C17C",
"}. c #A39793",
"|. c #BBAB85",
" X c #B0AF8F",
".X c #BDB384",
"XX c #BDB88B",
"oX c #B2B3A7",
"OX c #CFB288",
"+X c #C3BC8B",
"@X c #CAB98B",
"#X c #C2BC94",
"$X c #C8C38C",
"%X c #D4C383",
"&X c #D9CC8A",
"*X c #D9CB8C",
"=X c #DED28C",
"-X c #C7C396",
";X c #CAC193",
":X c #CBCA93",
">X c #CECC9A",
",X c #D3C496",
"<X c #D5CD92",
"1X c #D7CC9B",
"2X c #D4D394",
"3X c #D5D59C",
"4X c #D8D699",
"5X c #DAD59C",
"6X c #DBDA9C",
"7X c #E6CA89",
"8X c #E4D28B",
"9X c #E3D69A",
"0X c #E1DC9D",
"qX c #CDCBA4",
"wX c #D5D4A2",
"eX c #D9D6A4",
"rX c #D6DBA4",
"tX c #DCDCA4",
"yX c #DAD6AC",
"uX c #DDDCAA",
"iX c #C9CFB7",
"pX c #CAD0B6",
"aX c #DAD4B6",
"sX c #DEDBB4",
"dX c #E4DBA3",
"fX c #E5D8A4",
"gX c #E1DDAB",
"hX c #E1DCB1",
"jX c #D6E1AB",
"kX c #DCE1AA",
"lX c #DFE0B2",
"zX c #E0E0A6",
"xX c #D5D6C6",
"cX c #E6E9E2",
/* pixels */
"O O O O O - O O O O O O O O O O O O O O O - > > , @ O O O O O O O O O O O O O O @ O O O o O O O O O O O O O O O O O O O O O O O ",
"O O O = = O O O O O O O O O O O O O O O O O O O * - O O O O O O O O O O O O O O * > O O O > > > - O O O O O O O O O O O O O O O ",
"O O - > O O O O O O O O O O O O O O O O O O O O O O o O O O O O O O O O O O O O O O > * > O O O O O o O O O O O O O O O O O O O ",
"O O > O O O O O O O O O O O O O O O O O O O O O O O O O O O O O O O O O O O O O O O O O O O O O O O O O O O O O O O O O O O O O ",
"O O O O O O O O O O O O O O O O O O O O O O O O O O O O O O O O O O O O O O O O O O O O O O O O O O O O O O O O O O O O O O * > ",
"O O O O O O O O O O O O O O O O O O O O O O O O O O O O O O O O O O O O O O O O O O O O O O O O O O O O O O O O O O O O O O @ * ",
"O O O O O O O O O O O O O O O O O O O O O O O O O O O O O O > > * @ O O O O O O O O O O O O O O O O O O O & O O O O O O O O O O ",
"O O O O O O O O O O O O O O o O % 2 O O O O O O O O O O > > * @ > > * O o O O O O O O O O O O O O O O O O O > O O O O O O O O O ",
"O O O O O O O O O O O O O * @ O - 0 # @ O O O O @ O O O O O O O O O O * O O O O O O O O O O O O O O O O O O > @ o O O O O O O O ",
"O O O O O O O O O O O O > > O O > e 7 @ O O @ # 2 - @ O O O O O O O O @ O O O O O O O O O O O O O O O O O O > > O O O O O O O O ",
"O O O O O O O O O O & > - * O O * V N % @ + , w H G - O O O O O O O O O O O O O O O O O O O O O O O O O O O + > : > O O O O O O ",
"O O O O O O O O O O > > @ @ O O & N H 7 q N G ..o.o.S - @ O O O O O O O O O O O O O O O O O O O O O O O O O * * O O O O O O O O ",
"O O O O O O O O O O : O O O O 3 d j H H H o.$.| | ' o.S - O O O O O O O O O O O O O O O O O O O O O O O O O O o O O O O O O O O ",
"O O O O O O O O O O O : & N G 4.;X@X1.X.;...#. . . .` ..V - O O O O O O O O O O O & > O O O O O O O O O O O O O o O O O O O O O ",
"O O O O O O O O O O + 4 ) -XyXeXtXtX6._ o...O.} v.F. .` ..S d # O O O O O O O O O @ > O O O O O O O O O O O O O O O O O O O O O ",
"O O O O O O O O O O $ d }.qXuXtX4X2X<X2.o...] } F.^.f.] O...X.N # O O O O O O O O * > O O O O O O O O O O O O O O O O O O O O O ",
"O O O O O O O O O O + = Z $X3X3XzXkXtX5X@X%.! j.!.`.G. .| #.;.-.w o O O O O O O = @ O O O O O O O O O O O O O O O O O O O O O O ",
"O O O O O O O O + = , D 6.2XrX6XfX9X3X2X[.x.8.M.!.W.z.u.| $.o.G 3 O O O O O O O = O O O O O O O O O O O O O O O O O O O O O O O ",
"O O O O O O O O w G <.:X6X4X=X[.*X|.&.&.<.d.k._.).j.r.8.] ..D 6 O O O O O O O O O O O O O O O O O O O O O O O O O O O O O O O O ",
"O O O O O O O O 9 <.$X<X2X[.L.3.1XpX*.e G a.k.Q._.j.r.u.` ..w # O O O O O O O O O O O O O O O O O O O O O O O O O o O O O O O O ",
"O O O O O O O O O 5 / X.S.].U.e }.iXxXe N u.k.B.Q.t.r.9.O.;.Z # o O O O O O O O O O O O O O O O O O O o * > > > O O O O O O O O ",
"O O O O O O O O O O $ : J J.R *.}.oXxXH R i.h.B.c.r.f.Y @.;.-.q @ O O O O O O O O O O O O O O O O O O O @ * > > O O o O O O O O ",
"O O O O O O O O O O O $ z U.0 oXcXiXiXOXU.h.k.B.N.M.a.I @.:.;.V o O O O O O O O O O O O O O O O O O O O O O > > * O O O O O O O ",
"O O O O O O O O O O O = A U.0 }.oX=.aXOXZ.N.N.B._.N.d.d.@.@.;.V o O O O O O O O O O O O O O O O O O O O O O O O > * O O O O O O ",
"O O O O O O O O O O * k a.T.0   . =. X6.^.).V.V.C.x.x.K.' @.:.Z o # O O O O O O O O + O O O O O O O O O O O O O @ O O O O O O O ",
"O O O O O O O O O O r s.F.^.R X   1 $.L.].).V._.n.x.K.Y.X.o.o.C o O O O O O O O O # = $ $ = O O O O O O O O O O O O O O O O O O ",
"O O O O O O O O O O t  .v.G.`.{ x ' R.].].V.V.).P.R.6X6.j G G 3 @ O @ @ @ O $ > 6 F _ ( ( ) 8 = * O O O O O O O O O O O O O O O ",
"O O O O O O O O O @ , l 1.l.b._.n.n.`.'.'._.).T.7X9X0X6.7 3 2 @ O O O - - $ F 2.6.3X6X6X4X3X.X4.) > O O O O O O O O O O O O O O ",
"O O O O O O O O O O @ ; r J i.f.N.Q./.^.'.b.j.T.=XfXtX>XG $ O O O O > > 9 &.;X3X3X5X3X4X3X5XwXwXqX,.d $ O O O O O O O O O O O O ",
"O O O O O O O O O O O O O : 4 t ..#.1.#.u.f.d.E.4XtXeXeX_ & + , i y 4 N .X1X3X3X3X3X6X6XtXeXeXeXeXwX-XG $ O O O O O O O O O O O ",
"O O O O + O O O O O O O O O O + - , , , r | L.[.4XwXuXtXX.5 g u.Z.{ x 1.,X1X2X2X1XwX3X2XeXuXuXuXtX3X6X-XB + O O O O O O O O O O ",
"O O O O O O O O O O O O O O O O @ O O + < #.E.&X9XgXuXtX3.%.H.^.z.Z.D.g.E.<X<X5.4. XXXwXtXeXuXlXuX3XrXrX,.: O O O O O O O O O O ",
"O O O O O O O O O O O O O O O O O O O $ A L.=XdXgXlXjX2X[.P.~.w.p E ~.v.$.$.( - $ & h <.:XtXwXuXuXkX3XtX>XC O O O O O O O O O O ",
"O O O O O O O O O O O O O O O O O O O & A L.=XzXlXuXrX2X{.).~.s M Q ~.W.P : O O O O O # ( >XuX3XuXgXrXeX>XS @ O O O O O O O O O ",
"O O O O O O O O O O O O O O O O O O O $ L P.8XdXjXtX6X=XP._.A.W W W Q ^.H.t + O O O O O 3 5.rX3XuXgXuX3XwX2., O O O O O O O O O ",
"O O O O O O O O O O O O O O O O O O O O f %.[.6X3X6X9X&XT.'.m s M a a g.l.r O O O O O O # F :XkXeXgXuX3XuX;Xw O O O O O O O O O ",
"O O O O O O O O O O O O O O O O O O # , D ' +.[.=X8X8X{.G.b.9.p W p.E Z.l.6 O O O O O O + C :XtX3XuXgX3XyX;X9 O O O O O O O O O ",
"O O O O O O O O O O O O O O O O O O 6 <.;X1XI.$.L.R.].].j.y.n.h.~.(./.J.I = O O O O O O + j :XtX3XtXuXuXeX;Xw O O O O O O O O O ",
"O O O O O O O O O O O O O O O O O O - >.wXlX1XS.G.G.Q.~.M.e.c.).Q././.Z.i $ O O O O O @ 5 4.rXtX3XtXkXeXuXwX2.3 O O O O O O O O ",
"O O O O O O O O O O O O O O O O O O $ G ,XwX5X{._.Q.s.K n m s.Q.).!.W.U : O O O O O O @ w XXkXtX6XgXgXwXtXtXXX8 O O O O O O O O ",
"O O O O O O O O O O o O > O O O O O $ d <.Y.L.G.).Q.| : * k T k.n.V.B.b $ O O O O O O O 9 XXkXuXeXkXtX3XtXeX2.3 O O O O O O O O ",
"O O O O O O O O O O O > > O O O O O O $ t ] [ z.).Q.O., O * k [ y.N.N.i.f - O O O O @ O w XXkXtXwXuXtX3X6X$Xh , > O O O O O O O ",
"O O O O O O O O O O > > O o O O O O O O : U 7.k.).G.@., O + : c 8.t./.Q.D./ & O O O O & X.2X0X4XuXkXjX3XtX;X9 > > O O O O O O O ",
"O O O O O O O O O O * @ O O O O O O O O : K 7.k.).^.O.: O O O t T i.W.Q.).g.y O O O @ , 5.0X0X3XuXkXrXrXrX$X9 - O O O O O O O O ",
"O O O O O O O O O O O - O O O O O O O O : n ~ c.).Q.a.t + O O * J 0.t.B.B.Q.I % O O O , 5.6X3XyXsXlXeXtXkX$X8 O O O O O O O O O ",
"O O O O O O O O O O O > O O O O O O O O : n ! v.).!.W.v $ O O $ D 0.q.m.B.V.{ 3 > = O ; 6.6XrXsXsXgX6X4X2X>.= O O O O O O O O O ",
"O O O O O O O O O O O > O O O O O O O # i 8.^ c.).!.m.n * + O $ A r.8.c.B.N.u.6 - O O ; 5.rXrXrXhXeX5X0X$Xd O O O O O O O O O O ",
"O O O O O O O O O O O O = O O O O O O & z 7.y.n.^.!.m.n $ O O $ z 0.8.b.C.).D.D @ = O = >.2XrXjXgX5XdXeX>.$ O O O O O O O O O O ",
"O O O O O O O O O O O * O O O O O O O $ c E k.!././.W.b $ + O $ c w.0.b.Q./.^.I o O O O 5 5.9XfXfX5XtX#Xh + O O O O O O O O O O ",
"O O O O O O O O O O O O o O O O O O O r T ~ k._.!.!.W.b $ + + r T w.0.Z./.!.~.s.6 o O O , / I.&X@X%X+XB $ O O O O O O O O O O O ",
"O O O O O O O O O O O O O O O O O O $ k ~ w.m.B.V.Q.N.n : O + g 0.w.0.z.Q._.!.F.A o O , / 1.o./ l u 4 + O O O O O O O O O O O O ",
"O O O O O O O O O O O O O O O O O + 4 I ~ w.!._.V.Q.M.n $ O : z 8.q.t.Q.)._.Q.F.z o & H I.I.I.I.>.6 $ O O O O O O O O O O O O O ",
"O O O O O O O O O O O O O O O O O + 6 I 8.k./.Q.V.Q.l.i $ O 8 D ! ! y.!.Q.).).D.l o + N .X@X@X,X:X+XZ $ O O O O O O O O O O O O ",
"O O O O O O O O O O O O O O O O O O & y Y M.M.Q.W.M.{ > O O : 6 t ] z.B.!.N.G.` , o O > <.+X;X:X+X+X2., O O O O O O O O O O O O ",
"O O O O O O O O O O O O O O O O O O O & i K U P P K u @ O O O O * z U U Y n v , O O O O d B G ,.9 8 4 + O O O O O O O O O O O O ",
"O O O O O O O O O O O O O O O O O O O O + $ $ + $ $ # > O O O O @ $ $ $ $ $ $ O O O O O @ O @ & O O O O O O O O O O O O O O O O ",
"O O O O O O O O O o * @ O O O O O O O O O O O O O O * > O O O O O O O O O O O O O O O O > O @ O O O O O O O O O O O O O O O O O ",
"O O O O O O O O O O 2 > O O O O O O O O O O O O O @ > > O O O O O O O O O O O O O O O & > > > @ O O O O O O O O O O O O O O O O ",
"O O O O O O O O O O * > O O O O O O O O O O O O O O O O * * O O O O O O O O O O O O O O @ * > * : * O O O O O O O O O O O O O O ",
"O O O O O O O O O * * @ O O O O O O O O O O O O O O O O O @ O O O O O O O O O O O O O O O O @ O O O O O O O O O O O O O O O O O ",
"O O O O O O O * * O O O O O O O O O O O O O O O O O O O O O O O O O O O O O O O O O O O O O O O O O O O O O O O O O O O O O O O ",
"O O O O O O O O O O O O O O O O O O O O O O O O O O O O O O O O O O O O O O O O O O O O O O O O O O O O O O O O O O O O O O O O ",
"O O O O O O O O O o O O O O O O O O O O O O O O O O O O O O O O O O O O O O O O O O O O O O O O O O O O O O O O O O O O O O O O ",
"O O O O O O O O O O O O O O O O O O O O O O O O O O O O O O O O O O O O O O O O O O O O O O O O O O O O O O O O O O O O O O O O "
};
