/* XPM */
static char *b9e75dc499c44122aaf87d0d3119bb98QFREDYGIi8Ong5kw[] = {
/* columns rows colors chars-per-pixel */
"64 64 204 2 ",
"   c #31481C",
".  c #35531F",
"X  c #0A5F3E",
"o  c #165E30",
"O  c #175D27",
"+  c #0C642B",
"@  c #0F6325",
"#  c #156223",
"$  c #15632C",
"%  c #1B642D",
"&  c #1A6626",
"*  c #0E693F",
"=  c #0B6738",
"-  c #146534",
";  c #14653B",
":  c #13693C",
">  c #176A3A",
",  c #236D2C",
"<  c #236D25",
"1  c #2E7226",
"2  c #24712B",
"3  c #29732A",
"4  c #256E37",
"5  c #206431",
"6  c #2B7434",
"7  c #347935",
"8  c #357829",
"9  c #506335",
"0  c #59723C",
"q  c #0C6742",
"w  c #0C6A43",
"e  c #136742",
"r  c #146B44",
"t  c #166949",
"y  c #1A7147",
"u  c #657B4C",
"i  c #3B802D",
"p  c #3B833C",
"a  c #3C8A3D",
"s  c #3E8937",
"d  c #448634",
"f  c #41863D",
"g  c #438C3B",
"h  c #4D8D36",
"j  c #5B8C36",
"k  c #5E8D3B",
"l  c #4B9033",
"z  c #5F9235",
"x  c #608E3C",
"c  c #61913A",
"v  c #659939",
"b  c #639734",
"n  c #58A53F",
"m  c #6DA13F",
"M  c #3F8642",
"N  c #3D8941",
"B  c #358140",
"V  c #448A41",
"C  c #488A40",
"Z  c #459246",
"A  c #4F9B48",
"S  c #4D944A",
"D  c #589444",
"F  c #69864C",
"G  c #6A9D41",
"H  c #788D5A",
"J  c #76915C",
"K  c #57A14C",
"L  c #5BA24B",
"P  c #5CA146",
"I  c #5BA354",
"U  c #5DA853",
"Y  c #66A84B",
"T  c #6AAA4D",
"R  c #72A743",
"E  c #7AAE42",
"W  c #7AAE4B",
"Q  c #77AF42",
"!  c #7CB245",
"~  c #7CB34B",
"^  c #7CBB4E",
"/  c #64A551",
"(  c #62A859",
")  c #7DAD51",
"_  c #7BA35A",
"`  c #75B452",
"'  c #7BB452",
"]  c #77BA54",
"[  c #7BBC53",
"{  c #74BC5B",
"}  c #79BB5B",
"|  c #72B75A",
" . c #74B961",
".. c #7CBE64",
"X. c #75C05C",
"o. c #FAED3F",
"O. c #81B444",
"+. c #84BC47",
"@. c #83B64C",
"#. c #85BB4C",
"$. c #8ABE4D",
"%. c #89BB4A",
"&. c #90BF4D",
"*. c #85A85A",
"=. c #81B451",
"-. c #86BC52",
";. c #8BBE52",
":. c #82BE5C",
">. c #8EBC5B",
",. c #8BB65D",
"<. c #91BE56",
"1. c #90BE5B",
"2. c #80BC64",
"3. c #93BA66",
"4. c #91AF73",
"5. c #9DB17C",
"6. c #A0BF73",
"7. c #8DC246",
"8. c #87C24C",
"9. c #8CC34E",
"0. c #8AC747",
"q. c #91C34D",
"w. c #90C84C",
"e. c #85C453",
"r. c #8DC451",
"t. c #84C956",
"y. c #8EC855",
"u. c #84C55A",
"i. c #8AC45A",
"p. c #85C95E",
"a. c #8BCA5A",
"s. c #91C553",
"d. c #9AC454",
"f. c #92C954",
"g. c #94C658",
"h. c #92C959",
"j. c #98C25E",
"k. c #A9CC5F",
"l. c #A5D05D",
"z. c #85C663",
"x. c #85CA64",
"c. c #8BCB63",
"v. c #87C666",
"b. c #95C265",
"n. c #95C568",
"m. c #A0C46D",
"M. c #B2D96A",
"N. c #A2C573",
"B. c #EDE945",
"V. c #FAEE42",
"C. c #F6EA47",
"Z. c #F8F045",
"A. c #EAE554",
"S. c #F2F05F",
"D. c #F8E854",
"F. c #C4DE75",
"G. c #D3DF7A",
"H. c #C6E176",
"J. c #CEE27B",
"K. c #C9E278",
"L. c #D8E079",
"P. c #E2E361",
"I. c #F8EF76",
"U. c #F9F37E",
"Y. c #F5F27C",
"T. c #ACD287",
"R. c #B8D98A",
"E. c #AECD91",
"W. c #B3CD9C",
"Q. c #B9D894",
"!. c #BEE396",
"~. c #CFDE9B",
"^. c #CCE081",
"/. c #EFF48E",
"(. c #F5F285",
"). c #EDF394",
"_. c #FBF594",
"`. c #CBE7A7",
"'. c #D4E7AD",
"]. c #D0EAAE",
"[. c #D0E6A5",
"{. c #CFE2B5",
"}. c #CFE9B9",
"|. c #DDF6BF",
" X c #E8F1A0",
".X c #FCFAB6",
"XX c #D0E9C1",
"oX c #DEF6C6",
"OX c #E3F5C3",
"+X c #E5F4CC",
"@X c #ECF4C1",
"#X c #FBFCCA",
"$X c #E6F4D3",
"%X c #EEFED9",
"&X c #F3FEDB",
"*X c #FCFCD6",
"=X c #F1FEE4",
"-X c #FAFDE4",
";X c #F6FEED",
":X c #FCFAEB",
">X c #F5FBF5",
",X c #FDFCF4",
"<X c #FBFCFC",
"1X c #F7F6F7",
/* pixels */
"9.9.9.9.9.9.9.9.y.9.9.y.y.9.f.j 9.9.9.9.y.9.9.r.9.$.r.9.9.9.9.9.r.9.9.9.q.9.9.9.9.9.9.y.9.9.r.f.9.9.9.r.R 9.9.y.9.y.r.9.9.9.8.9.",
"9.9.f.r.9.8.9.9.y.y.9.y.9.9.9.9.r.9.9.9.9.9.9.J.s.r.9.9.9.9.9.9.9.9.$.r.9.9.y.9.r.0.r.q.= r.r.9.9.9.9.9.y.9.9.y.y.f.9.y.9.9.9.9.",
"d.y.9.9.^ 9.] < r.9.9.9.d.9.9.r.9.9.9.r.y.9.$.y.9.9.9.9.9.d.9.9.r.9.9.9.9.9.9.9.9.u.{ L $.y.9.9.r.9.9.r.y.9.9.y.9.9.9.y.9.9.9.9.",
"9.9.9.9.r.q $ 9.9.9.9.9.9.9.9.9.9.r.q.$.g 7.9.r.8.z 9.9.9.9.9.9.y.9.9.9.9.9.9.9.9.! w ;.@.8.9.r.9.G.9.y.y.9.9.9.9.8.9.L q.9.r.9.",
"y.y.y.9.+.S #.#.y.s.9.9.y.9.y.y.y.9.A q.I +.9.9.9.9.9.9.y.y.y.9.y.9.9.9.l.8.9.9.9.y.#.f.y.9.y.y.y.y.9.y.9.9.9.9.9.K 9.a @.y.y.r.",
"9.r.9.r.r.9.9.9.9.f.9.9.r.9.9.9.9.! { 9.~ 9.9.9.9.9.9.9.9.9.r.y.u.9.9.9.9.9.9.9.9.9.9.9.9.9.9.y.9.9.9.9.9.9.9.9.~ c.r.~ 9.9.9.y.",
"y.q.s.y.y.9.9.f.9.9.9.s.r.9.9.9.9.y.r.9.9.9.r.9.y.9.9.9.9.r.c.t.; ! 9.9.9.9.9.y.9.9.9.9.9.r.9.9.9.y.| $.r.9.9.y.9.r.9.9.r.9.9.r.",
"9.9.9.9.9.9.9.$.9.y.y.9.9.9.r.9.9.1.s.9.9.9.y.y.y.y.&.'.r.! r.t.! 9.9.9.9.9.9.y.y.y.y.9.8.9.9.9.$ 9.6 r.9.9.9.9.9.9.9.9.9.9.9.9.",
"9.r.r.8.r.f.s.9.y.9.9.9.r.r.9.9.<.C.OX9.9.9.9.9.y.9.W {.9.9.9.9.9.9.9.9.9.9.y.s.9.9.s.}.r.9.9.! u.#.' r.9.9.9.r.9.y.9.9.^.9.9.j ",
"9.9.a.9.c.O 8.9.9.9.9.9.9.a.9.s.s.&X@.9.9.9.9.v.9.9.$.! 9.9.9.9.9.9.9.9.9.f.s.9.9.9.=X/.w.9.9.9.~ -.9.r.9.9.9.9.9.y.9.f.f.9.9.9.",
"9.8.8.y S +.$.9.9.y.t r.: H.r.9.9.9.9.r.V 7.$ 8.8.9.s.y.9.9.9.9.9.c 9.8.9.s.9.9.9.9.9.#.y.9.9.s.9.9.r.9.9.9.9.r.9.9.q.r.7.] 9.y.",
"9.9.-.p 9.@.9.9.9.y.9.a B @.s.9.9.9.9.r.r.w i -.r.f.r.#.9.9.9.9.9.y.9.$.s.q.9.9.9.9.q.9.9.9.$.f.9.9.y.9.9.9.9.M.y.y.Z T w #.9.9.",
"9.9.8.8.y.9.9.9.9.9.~ +.9.y.9.9.9.8.+X9.@.~ r.9.r.8.9.9.9.9.9.9.9.9.y.f.8.<X9.r.9.9.7.a 9.9.$.9.9.9.9.9.y.9.9.$.s.r.9.p W #.r.9.",
"9.9.9.9.y.9.9.9.9.9.9.y.f.9.9.9.9.4. X9.9.9.9.9.S.OX9.r.9.M.9.9.9.$.h.9.1..X;.9.X.1 : $.8.9.;.r.9.9.9.9.9.9.oXP.s.9.r.r.9.y.9.9.",
"$.9.9.r.y.9.9.9.9.9.9.9.9.9.9.9.9.9.! 8.y.9.9.9.;X~ 9.y.9.9.9.9.9.$.9.9.9.~ s.9.s.# ~ @.9.9.9.9.9.9.9.y.R r.-.-Xy.9.9.9.9.9.9.r.",
"8.9.9.9.y.9.r.9.y.9.9.9.9.] 9.v.8.9.9.9.s.9.9.9.9.9.9.9.9.9.9.9.9.r.9.r.g r.9.9.9.9.9.y.9.9.9.9.9.9.9.9.y.9.f.9.9.9.9.9.q.| 9.x.",
"9.9.9.u.y.9.9.9.y.9.r.9.9.4 9.i.Q 9.9.r.f.$.9.9.9.e.8.f.; 9.9.9.9.9.< 9.L r.9.9.9.y.r.9.J.9.9.9.9.9.e.9.y.9.9.y.9.9.9.y.r.3 9.i.",
"i.8.{ e.y.9.9.r.r.v.r.9.9.~ 9.r.9.9.y.$.r.9.9.r.9.9.: U 9.$.9.9.9.! } 7.~ 9.9.9.r.J.r.y.9.9.9.% 8.- 9.r.y.9.9.9.9.y.8.9.r.' $.r.",
"r.= ] r.-.n.q.6 9.$ #.9.9.9.9.9.9.8.9.9.9.9.9.9.9.@.5 8.@.y.9.q.9.8.! 9.9.@.9.N.-.9.9.9.9.9.9.9.- , -.9.y.9.g.8.9.9.v 9.9.h.f.9.",
"r.~ 9.9.[.o.*.8.8.~ 9.9.9.r.9.9.s.9.8.c 9.9.9.9.9.9.9.s.r.9.9.K.9.9.r.9.9.9.=XB.9.9.9.y.9.9.9.W ~ 9.s.r.y.9.9.9.9.9.9.9.r.y.8.9.",
"9.9.9.9.-.W.r.#.y.9.9.y.].r.M.s.r.9.9.9.9.9.9.9.y.9.9.s.9.9.9.9.9.9.9.9.9.9.-.W.9.9.9.9.9.9.9.r.f.f.9.9.9.9.9.9.9.9.9.s.y.9.9.9.",
"9.9.9.r.g.9.r.8.9.r.9.Q.o.6.f.s.9.9.9.9.9.9.9.9.9.s.8.m 9.9.9.9.9.9.y.9.s.f.9.9.8.9.9.U 8.9.9.r.s.8.9.9.9.y.9.9.9.9.f.y.9.F.9.9.",
"b r.8.f.`.A.3.y.9.r.y.9.*.9.9.9.9.9.1 9.9.9.9.r.$.h.9.9.9.9.9.9.9.9.9.$.y.9.y.y.0.v.9.f ! 9.r.f.9.9.r.z 9.y.9.9.9.9.f.9.9.9.9.9.",
"y.g.OX9.@.<Xr.9.9.y.9.9.9.r.9.9.9.; r.9.9.9.9.s.s.9.9.9.9.9.9.9.r.9.9.9.9.9.9.9.! z.9.~ 9.y.s.9.9.9.r.9.9.y.9.y.9.p.r.9.9.9.9.9.",
"9.) +X8.9.r.r.:X:X9.9.r.9.9.9.r.$ ` ! 9.r.8.v.f.9.9.r.y.9.9.9.9.@ q.2 9.9.9.9.9.9.r.9.9.8.r.<Xy.9.9.9.9.9.9.8.a.e.+ ! 9.r.9.9.9.",
"9.9.^ r.e.$ 9.W =.9.$.k.9.9.r.9.& 9.9.$ h.w r.9.9.y.r.y.z 9.9.r.y.8.3 ~ 9.J.y.9.y.y.9.9.8.|.D.;.9.9.9.9.9.9.@.r.r.! y.9.9.9.9.9.",
"9.9.y.e V 7.r.r.9.9.1X9.8.9.9.9.9.9.-.q.K ~ 9.9.9.9.9.9.9.9.9.s.~ 9.9.9.9.9.9.9.9.9.9.9.9.9.W 9.$.,X9.9.k.9.9.s.9.9.9.9.9.9.8.9.",
"9.9.#.p $.~ 9.9.f.n.I.R.9.y.y.9.9.9.9.@.9.Q.9.9.9.9.9.9.y.y.y.f.9.s.y.y.9.9.9.9.9.9.9.9.y.9.~ 9.r.U.Q.9.f.y.9.9.9.9.9.9.9.[ y.y.",
"9.9.r.8.y.9.9.9.$.r.~ r.9.9.r.9.9.<Xg.9.].o.3.9.9.z 9.9.9.$.r.9.r.9.9.x 9.9.9.9.9.9.8.9.9.9.8.9.9.W 8.9.s.9.9.9.r.9.t 9.q 8.9.9.",
"9.9.9.9.y.9.9.9.9.9.9.l 9.( 8.9.s..Xb.9.9.4.9.9.9.9.9.y.r.9.9.9.9.9.9.9.9.y.y.s.8.-.OX).9.9.y.9.9.9.f.$X).$.v r.9.r.q.M ( $.9.9.",
"9.9.d.9.y.9.F.9.9.9.9./ 9.} E 9.$.W r.q.y.G.9.9.9.9.9.y.9.9.9.9.9.9.9.9.9.9.s.$.9.9.W {.e.9.9.9.9.r.9.E W.8.s.y.9.9.) @.s.s.9.9.",
"9.9.9.9.9.$.9.9.y.9.r.' 8.r.9.=Xf.9.9.9.y.9.9.8.=X9.s.y.9.9.9.9.9.9.9.9.9.r.r.9.8.9.8.`.9.9.9.9.% y.9.9.9.9.9.r.r.9.8.s.s.9.9.9.",
"9.9.9.9.f.y.8.9.y.9.9.9.9.9.g.A.&X9.9.k 9.9.9.9.B.&Xs.9.9.q.9.9.9.9.9.9.h.:.9.u.9.9.>X/.8.3 e.> 9.;.@X9.9.9.9.-X-X9.9.y.9.9.9.9.",
"9.9.9.q.y.i.z.9.y.9.9.9.9.$.s.! 9.9.9.9.y.9.y.9.! r.9.9.: 9.r.9.9.9.9.9.s.e.t.- ! 9.9.@.9.-.* ~ ~ O.+X9.y.y.s.y.r.r.9.9.9.9.9.9.",
"9.9.9., u.q $.9.y.r.9.9.y.f.8.9.9.9.;..Xj.9.9.9.9.9., [ , ~ r.9.9.9.s.G $.#.e.! 9.9.r.9.9.@.! 9.9.9.T 8.Z 9.9.9.r.s.9.y.9.9.9.9.",
"9.9.#.9.I ~ e.9.9.9.k 9.9.9.9.9.9.9.8.<X#.9.9.9.9.-.9.M 9.9.9.9.9.r.s.9.r.9.9.9.9.9.9.y.9.9.9.9.9.9.{ 9.I W 9.r.r.9.9.r.8.9.9.9.",
"f.9.y.$.9.9.9.9.9.9.9.9.y.y.y.y.w.9.9.+.9.<.i.9.9.y.-.9.y.y.y.9.y.r.E 9.9.y.9.q.9.9.N y.9.y.y.y.y.+.' 9.-.r.9.9.9.g 9.A q.y.y.9.",
"9.9.9.9.9.9.9.9.y.y.9.9.9.9.9.9.k 9.9.* r.r 8.9.9.9.9.r.9.9.9.9.9.8.9.9.9.9.9.+ 9.p.d.y.9.9.9.9.9.9.9.r.9.8.9.9.8.a.8.f ~ 9.9.9.",
"9.9.9.y.9.9.9.9.f.9.9.9.9.9.9.9.9.9.-.f.(  .r.9.9.y.r.9.9.9.9.9.9.9.9.9.R.9.! r.y.h.-.9.9.9.9.9.9.9.d.8.9.9.9.9.r.~ 8.r.9.9.9.f.",
"y.9.9.9.9.9.9.r.r.9.9.9.9.9.9.9.9.9.9.~ r.9.9.9.9.9.9.y.9.s.9.9.9.r.r.<X_.8.9.W #.r.r.9.9.9.9.9.9.9.9.9.9.r.9.s.9.8.9.r.9.r.y.s.",
"9.9.9.9.9.9.s.s.#.r.-.d 9.9.9.9.9.r.y.9.9.9.9.9.9.9.x 9.s.s.9.p.i.e.9.9.#.9.y.s.9.9.9.9.9.r.9.9.9.9.r.9.9.; 9.- 8.9.9.9.9.y.9.9.",
"9.9.9.9.9.9.h.9.% x.: 9.9.9.9.9.r.9.9.9.9.9.9.y.9.9.9.9.r.9.r.; e.q.9.9.s.f.f.%.9.9.9.9.9.e.r.# 9.f.$.9.9.9.z.% ! y.9.r.r.9.9.9.",
"r.9.9.9.9.r.9.y.y.o W #.9.9.9.$.9.9.9.L.9.9.9.9.9.9.f.f.9.9.9.9.9.9.9.8.Y.>Xy.:X,Xr.r.9.8.2 e.u.@.9.9.9.r.! r.9.9.9.y.s.s.9.9.9.",
"9.9.9.f.;.8.9.9.@.+.9.9.9.9.9.y.P y.9.9.9.9.y.9.r.h.9.r.9.9.9.9.s.9.9.9.T.@.9.@.#.9.y.9.+.d r.;.9.9.g.r.9.9.9.9.9.9.f.9.9.9.9.9.",
"9.9.9.f.s.9.9.9.9.9.9.s.9., 8.- 7.9.9.9.y.9.9.9.8.f.e 8.9.9.9.9.*X1X9.9.9.9.r.- r.9.9.y.9.$.$.9.9.9.9.r.9.8.9.9.9.k r.q.9.9.t 9.",
"9.8.$.9.9.9.9.9.y.9.9.9.9.r.q / @.r.9.9.9.9.9.s.7 p.r.%.9.y.9.$.$.$.9.9.^ 2 # 8.9.9.9.9.d.y.r.9.9.9.8 q.A 9.y.y.9.9.r.i.2 2 e.9.",
"9.9.9.9.9.9.9.9.9.9.9.9.9.! ! 8.9.9.9.9.y.9.9.~ $ y.~ 9.9.9.9.9.9.q.9.9.~ - ! ! 9.9.9.9.y.y.9.9.9.9.] q.K ~ 9.9.9.9.9.#.- ! W 9.",
"y.8.9.9.y.9.9.9.9.q.r.y.8.8.9.9.9.9.9.r.9.9.9.9.9.9.y.9.9.9.9.$.$.C.OX9.9.9.9.9.9.9.9.y.k r.9.9.9.9.` 9.9.9.9.q.9.q.-.].9.9.9.9.",
"9.>.9.9.9.9.9.9.K.9.c.9.i.] 9.9.9.$.9.9.y.9.9.9.9.9.9.9.9.9.9.$.r.>X~ 9.9.9.9.9.9.9.9.y.r.9.9.9.9.9.9.9.9.b.s.9.8.r.;XY.8.9.9.9.",
"9.9 9.9.9.9.w.9.f.r.9.s q ! 9.9.9.q.9.f.9.9.9.9.9.9.9.y.9.9.f.c.9.r.r.9.9.9.9.9.9.9.9.y.9.9.9.9.9.D y.9.}.V.>.r.9.r.9.%.9.y.9.y.",
"9.0 r.X.9.{ t.9.9.r.$.h ! M.9.9.r.m.q.r.9.9.9.d.9.9.9.9., 8.y -.9.9.9.9.9.9.9.9.r.] 9.y.9.9.9.9.y.9.9.+.-.$X9.9.9.9.9.9.8.9.9.9.",
"9.F 9.8.L * ~ r.9.&X9.9.9.q.9.8.;.V.+X9.y.9.y.9.r.9.9.#.s...~ 9.9.9.9.9.9.9.% h.: 9.9.9.9.9.9.9.9.9.s.9.9.9.9.9.q.% 9.r.9.$.8.9.",
"9.F 9.#.` %.r.r.E.).9.9.y.!.U.s.$.W.+.9.9.9.9.9.g 9.9.s.~ 9.9.9.9.9.9.9.9.9.$.e S @.r.9.a r.a y.9.f.9.9.y.9.n C : q.q.R.f.#.9.9.",
"9.H 9.9.9.r.9.9.9.! q.XX9.~ <Xs.y.7.9.9.9.9.x.r.r.9.9.f.9.8.9.9.9.y.9.9.9.f.#.W y.9.9.r.8.} ; ! r.s.r.<X9.9.y.; ~ ~ <X(.7.8.r.9.",
"r.. 9.9.9.9.y.r.&Xr._ ~.9.9.4 s.# 9.9.r.Q.~ $ 9.~ 9.9.9.r.9.H.9.9.r.9.9.s.$.9.9.9.9.9.y.~ i.y.r.9.9.-.#X-.9.r.r.9.r.y.@.y.y.9.9.",
"9.;.9.9.9.9.y.s.V.%X9.+.9.#.g.e.$ ~ 9.<X_.8.~ r.r.9.y.9.9.9.r.q.9.9.9.$.y.r.9.y.9.9.r.y.9.9.9.9.9.y.8.~ 9.9.y.r.9.r.9.9.9.9.9.9.",
"9.u 8.9.s.9.y.9.W r.9.9.9.$.! 9.9.9.9.9.#.9.y.9.9.y.9.9.9.9.9.9.9.8.7 9.K r.y.y.y.y.9.9.9.9.9.9.+ r., 8.9.y.9.r.$.,.r.q.9.9.9.9.",
"e.J r.9.y.9.y.9.9.9.9.R 9.1.#Xq.9.9.v 9.9.9.9.9.9.9.9.r.9.9.9.9.9.r.2.9.P ! 9.y.9.9.9.9.9.9.9.e.i.9.3 ! 9.9.9.y.9.#X-X9.9.r.9.9.",
"f.H 9.9.9.8.8.r.y.9.9.9.9.! <Xr.9.9.9.9.9.s.y.$.9.9.9.r.9.9.9.9.9.r.~ 9.9.9.9.9.9.9.9.9.9.9.s.9.~ 9.9.9.9.9.9.9.9.r.y.9.8.9.9.9.",
"9.*.y.y.9.a r.; #.y.9.9.y.9.#.9.r.9.y.9.9.f.M.9.9.y.9.9.9.9.y./ 9.s.9.9.9.9.9.r.y.9.r.:.9.Y p 9.y.9.9.y.9.r.y.9.9.9.9.9.9.i.9.9.",
"9.5.v 9.#.9.z.~ h.9.9.y.r.9.e 9.; 9.9.f.r.8.9.9.r.9.9.y.9. .r.e.8.9.9.9.9.9.9.9.9.f.f.9.q 2 9.y.9.9.9.9.9.r.9.9.9.9.r 9.X 9.9.r.",
"9.0 r.9.y.r.9.y.9.9.r.9.9.@.9.u.Y r.8.9.9.9.9.9.9.9.y.9.@.6 s.=.r.9.9.y.9.9.9.9.8.f.9.#.( 8.9.9.9.9.9.f.9.r.9.9.9.y.r.N / #.r.f.",
"9.  r.9.9.9.y.-.9.9.9.9.9.9.! 9.9.y.s.r.y.9.9.9.9.9.9.9.g.=.y.9.9.9.9.9.~ 9.9.f.s.9.9.9.8.9.9.y.9.9.f.r.9.9.r.9.9.9.~ +.9.y.8.9.",
"r.9.9.9.9.s.9.9.y.9.9.! 9.9.9.9.r.9.9.9.y.9.r.r.9.9.9.9.s.q.9.9.9.9.9.9.9.8.f.9.8.9.9.9.9.9.9.9.9.#.9.9.y.9.9.y.9.9.9.9.f.8.9.9."
};
