/* XPM */
static char *result[] = {
/* columns rows colors chars-per-pixel */
"64 64 190 2 ",
"   c #653303",
".  c #683707",
"X  c #673708",
"o  c #683708",
"O  c #6B3A0B",
"+  c #6E3F10",
"@  c #70400F",
"#  c #6F4216",
"$  c #6F4318",
"%  c #724314",
"&  c #714419",
"*  c #76491B",
"=  c #7A4C1C",
"-  c #7F521F",
";  c #7B4E21",
":  c #7E5122",
">  c #7C5428",
",  c #81531F",
"<  c #825524",
"1  c #845827",
"2  c #82572A",
"3  c #855A2C",
"4  c #8A5E2B",
"5  c #895E33",
"6  c #8C612D",
"7  c #92642E",
"8  c #95682E",
"9  c #8D6232",
"0  c #8D653A",
"q  c #8F683B",
"w  c #926632",
"e  c #956A35",
"r  c #9A6D35",
"t  c #916738",
"y  c #966C3A",
"u  c #996E3C",
"i  c #9C7234",
"p  c #9C723B",
"a  c #A27337",
"s  c #A2763B",
"d  c #AB793C",
"f  c #977244",
"g  c #9E7643",
"h  c #9F7947",
"j  c #9A7649",
"k  c #9F784B",
"l  c #A17742",
"z  c #A47B44",
"x  c #AA7E42",
"c  c #A47E4C",
"v  c #A97F49",
"b  c #A17F54",
"n  c #B1813E",
"m  c #C0903F",
"M  c #CD9439",
"N  c #D2973D",
"B  c #D39B3D",
"V  c #DA9D3D",
"C  c #E7AA3C",
"Z  c #EDAD3E",
"A  c #F1AE3F",
"S  c #EFB13D",
"D  c #F0B23C",
"F  c #AD8345",
"G  c #AC834C",
"H  c #B08345",
"J  c #B48847",
"K  c #BE8C45",
"L  c #B1864D",
"P  c #B4894C",
"I  c #BA8C4D",
"U  c #B4934B",
"Y  c #BD924E",
"T  c #A88453",
"R  c #AC8A55",
"E  c #AE8D5B",
"W  c #B48B55",
"Q  c #B88F53",
"!  c #B88F59",
"~  c #BA9353",
"^  c #B4925D",
"/  c #BC945C",
"(  c #BC9961",
")  c #C08F4A",
"_  c #C29242",
"`  c #CE9940",
"'  c #C09149",
"]  c #C99749",
"[  c #C7994E",
"{  c #C99B4D",
"}  c #D59D43",
"|  c #D89F47",
" . c #D59E4A",
".. c #C39553",
"X. c #C49A55",
"o. c #CB9E55",
"O. c #C49B5D",
"+. c #CC9F58",
"@. c #D09C52",
"#. c #D6A046",
"$. c #DBA345",
"%. c #DDA847",
"&. c #D5A34A",
"*. c #DAA34B",
"=. c #DDA94D",
"-. c #CFA156",
";. c #CBA25C",
":. c #CEAB5C",
">. c #D4A454",
",. c #D9A553",
"<. c #DCA953",
"1. c #D3A45B",
"2. c #DAA758",
"3. c #DAAE5D",
"4. c #E1A745",
"5. c #E5AB45",
"6. c #ECAD44",
"7. c #E3AC4C",
"8. c #EBAD4B",
"9. c #F1AE45",
"0. c #F1AF4C",
"q. c #E7B247",
"w. c #EDB145",
"e. c #E4B24C",
"r. c #EDB24A",
"t. c #F1B145",
"y. c #F2B44B",
"u. c #F4B94E",
"i. c #F9BB4D",
"p. c #E1A751",
"a. c #E3AD52",
"s. c #E9AF52",
"d. c #E5B154",
"f. c #ECB352",
"g. c #E4B15B",
"h. c #ECB65B",
"j. c #E6BD59",
"k. c #EEB95D",
"l. c #F3B752",
"z. c #F5BB54",
"x. c #F9BC54",
"c. c #F4BD5B",
"v. c #FABE5B",
"b. c #C49E63",
"n. c #CBA464",
"m. c #C9A569",
"M. c #D1A764",
"N. c #D4AC65",
"B. c #D2AB6D",
"V. c #DEB665",
"C. c #DBB867",
"Z. c #D5B26D",
"A. c #DDB36B",
"S. c #DEBA69",
"D. c #CDAC73",
"F. c #D4AF71",
"G. c #D5B273",
"H. c #DCB471",
"J. c #DFB972",
"K. c #D3B27B",
"L. c #DFBC7A",
"P. c #E3B662",
"I. c #E5BF66",
"U. c #EBBC65",
"Y. c #E3BA6C",
"T. c #EBBD6A",
"R. c #F3BD62",
"E. c #FBBF60",
"W. c #F6BE68",
"Q. c #F8BD6B",
"!. c #E5BC73",
"~. c #EBBE72",
"^. c #F5C156",
"/. c #FAC255",
"(. c #F6C15C",
"). c #FBC45E",
"_. c #FCC85E",
"`. c #EEC16B",
"'. c #F5C263",
"]. c #FCC663",
"[. c #FDC863",
"{. c #F5C46B",
"}. c #FCC66A",
"|. c #F5C96C",
" X c #FCC86B",
".X c #EBC374",
"XX c #EAC77C",
"oX c #F3C572",
"OX c #F5CA73",
"+X c #FAC971",
/* pixels */
"          $                               # $ $ &                                             X                                 ",
"      # $                                       $ $                             + #     X + $ $ $                               ",
"    $ $                                                                             & & $                                       ",
"    &                                               X                                                   X O X                   ",
"                                                  # ; +                                               . = 0 *               # # ",
"                                                % f b 2 O           o + * O         . .               * T E -                 $ ",
"    O + X X X           O = # X             . O q D.K./ y : 3 > 2 3 f T E h ; + % > 9 w 2 & o O + * ; p m./ : X                 ",
"    : q 5 9 3 * X     X 3 ^ R 1 * 6 u p u 9 p L ;..XXX~.B.O.^ Q b.M.J.!..XJ.O.W P O.B.Z.n.W z v G Q ..3.`.m.^ 1 O X             ",
"    : R m.B.B.! y % O @ y Z.J.;.X.N.V.S.C.C.V.`.|.].].}.}.g.,.T.oXQ.].}. X X{.T.`.'.'.|.`.U.U.I.`.U.(._.|.~..XX.g 6 #           ",
"    = ^ .XoXQ.~.N.F r x ;.I..XoX{.].].'.].].[.[.].[.].[. Xh.,.R.}.].].].].].].[.[.}.[.].}.].].].].].(.).]. X}.j.:.g #           ",
"    * ~ {.].].{.`.`.C.`.oX}. X}.).).v.].].].).).].}.].[.}.h.%.U.].).).).].].)._.).}. X X].]._.^.^.].c.R.].].x.e.;.u X           ",
"    * ! T. X].]._.[.|.|. X X X].v.).].].E.{.].}.].|.].[.}.h.*.k.E.].].).].[.)._.).}. X X].^.^.^.c.v.).].).).l. .i #             ",
"    @ z !.+X}.].).).].Q.Q.{.}.).^.(.}.}.{.}.|. X'.|.).[.].h.*.h.c.].)._.].].]._.).}. X].E.v.[._.c.v.v.].).x.y.K -               ",
"    X 9 B.oX X].].].].].W.R.).).c.c.[.].].].}.].[.].).]. Xk.#.d.c.).).)._.].].].].].}.].].].[.(.z.c.v. Xv.i.7.I =               ",
"      % G !.|.].}.].].].^.^.^.c.(.]._._.].[. X].].).].].].h. .h.E.(.].).].[.].).].).[.[.[.|.[.'.)._.].Q.v.t.%.J *               ",
"      O y !. X].).}. X].).).).(.(.(.].[.[.[.[.].].].).[.].h. .c.].].}.).[.}.}.].).]._.].].].].].].[.].v.c.r.e.J *               ",
"      O l .X+X}.].}.}.].].].].].).].].].[.[.].].].].]._.[.c.| R.].].[.).).].}.].].].].].[.].].].].].].).z.8.f.X.1 .             ",
"      O g Y. X[._.[.}.].).].[.[.].[.[.).[.].].].].].).[.].c.*.R.].].[.[.).].].[.].[.).].].[.).].).].].).l.y.r.+.5 .             ",
"      O u S.'.[.[.[.].[.[.].].).].].].].].].].[.].[.].].}.h. .h.].].].)._.].}.).].[.[.].].].[.[.].].].).z.y.8.>.9               ",
"      X y !.|.[.[. X}.[.[.[.[.].[.[.].[.[.[.[.).).[.[.].[.c.*.R.].).].)._.].].].[.).].[.).].).].).].].].z.y.q.+.4 .             ",
"      O u !.oX].}.[. X}.[._.].[.[.[.[.[.].[.].].].].].].].R. .c.].[.[.)._.).].[.].[.].].].[.).[.].].].v.l.9.8.1.w .             ",
"      O 9 A.{.R.c.].}.].).].].].}.[.].].[.].[.].].].].[.].R. .h.].].].)._.).].).].].[.).].].].].].].].v.l.9.6.+.4               ",
"      O w Y.}.c.c.c.E.].].].].].[.[.].[.].[.].[.].].].].'.R. .h.[.).]._.).[.].].).).[.].].].].).].].).z.9.8.r.+.t .             ",
"    O t M.|.}.x.x.c.E.].}.].].].[.].].[.[.).).].].].].].].R. .k.].).}._.(.v.).).].[.[.[.[.).[.].).).v.y.y.r.e.3.f &             ",
"    % E XX|.]././.).].].}.].].].].[.].[.].).(.(.].).].[.[.c. .h.[.].).(./.x.].].).[.[.].).(.).].].).z.l.u.r.7.o.5 o             ",
"    + c L.oX[.[.).[.{.].).].].).].[.].[.].).c.c.c.).).[.}.R.} h.[.c.h.f.z.(.].].].[.].).v.^.c.).).].^.z.z.q.e.Y =               ",
"    . ; W ~. X}.].}.}.].).[.[.].].[.].].).].(.c.).).).].[.c.} h.].c.k.z.x.).].].].).].).(.c.c.).].].)._.r.q.d.F %               ",
"      o e !.oX X}.{.].).).}.[.].].[.].].].].].).].[.[.).[.R.} h. X).^.).).).].].).].[.].).c.^.].].).).^.w.r.a.x %               ",
"      + p !.+X X X X[.[.}.}.}.].[.[.[.].].].].[.].[.].).[.R.} h. X[.).(.).).[.].].].[.).c.k.^.).].[.].z.t.9.<.z +               ",
"    O t m..X[.].].].[.).).}.}. X}. X}.].].].'.].].].].}. XR.} h.}.].].].).).].[.].[.[.].(.(.].[.[.[.].z.8.9.<.l O               ",
"    + j K..X]._.].].].).].].}. X X X X X X[.}.].]. X X X XQ.*.h.|.].].].].).).R.R.R.R.R.c.k.k.h.h.f.f.7.V N _ r O               ",
"    . ; E M.*.$.4.| | %.%.7.a.a.d.d.f.d.a.a.a.a.a.a.a.7.s.p.m | a.*.=.%.$.%.%.*.,.*.&.*.*.&. . .*.*.*.$.V V _ r O               ",
"      O w / &.#.$.*.| *.=.<.a.7.<.7.<.7.=.<.=.=.*.7.*.%.=.=.n  .<.<.=.=.7.a.d.d.h.h.h.h.R.R.c.U.R.W.W.h.f.8.,.x %               ",
"        1 F.`.(.].Q.Q.R.].].].].].'.].'.].].}.]. X X{.'.{.W.$.g.|.}.].(.].'.}.}.[.[.].{. XE.}. X].].}.).y.r.a.~ :               ",
"        1 G.|.[.].{.{.].)._.}.].[.[.'.[.].}.[.}.}.}.].]. XW.B d.}. X'.|.[.].).].].].].[.].].].].].(.).].z.t.q.{ 6 .             ",
"      X 6 G.OX'.].].].)._.].].}.].[.].].].[.].[.[.].].'.].c.B d.].].[.[.].[.).[.].].[.[.].].].].].).v.x.i.S w.,.e o             ",
"        1 F.OX X}.}.].}.].].].].].].].].].[.].].).[.].(.c.c.} d.'.).[.).[.].[.].[.].).].).].].).].).z.t.y.S D =.e O             ",
"      O u L.OX X}.Q.].}.}.].]. X X}.}.].[.].].).)._._.).).c.} <.].[.].).].].).)._.)._.)._.)._._.[._.z.r.t.A D $.a O             ",
"    X > b.XX X}.}.}.).[.}.}.}.}. X X[. X].[.[.].).[.[.].].R.| a.]. X].[.[.).[.[.[.).].).].].).).].[.).l.r.6.Z %.d %             ",
"    X 0 D.OX[.).).)._._.].}.].}. X[.}.}.].].].[.[.[.).].].E.} a.'.[.[.].[.].}.].}.].}.}.].}.}.}.}.}.].v.y.6.A *.r +             ",
"    X 1 ( .X[.].].].).).).).].].].}.}.].].].).].].].].].].]. .a. X].[.[.].].].].].].}.[.].}.]. X}.}. X).0.0.0.@.4 .             ",
"      * W `.].].E.'.c.'.)._.].].].}.[.].].).v.v.].].].).].].@.a.}._._.[.).].].).].].}.].].[.[.].].].).^.l.0.s...5 .             ",
"      * R `.[.(.E.v.c.(.).).}.].].}.].].].).c.c.].].[.).].'.*.a.'._.).[.^.c.).).).].).[.].].[.].].].c.l.l.0.8...5 .             ",
"      # z T.].).).c.c.c.).].].].].].].].).).c.z.^.].[.[.].]. .a.'.[.(._.c.l.).)._.)._.).).[.[.).).].v.s.8.0.8.I *               ",
"      + l T.].(.v.x.v.).].].].].).}.[.].].(.(.c.(.].].].].'.*.p.'.]._.].(.z.(.).[._.)._.].[.[.].[.[.).c.q.8.8.d O               ",
"      + G ~.].).v.x.v.].].}.[.].].[.[.[.].].].).^.].[.).].{.*.p.'.].).].].(.(.].).].].]._.].].).].].].).l.6.7.d %               ",
"      o e Y.}.).v.v.).[.].}.].[.].).[.].].].].(.^.[.[.[.).'.*.,.'.).).[.].].).).).].].].].].).].].].).).l.q.q.K ,               ",
"        1 Y.}.).).)._.].).].].].[.].[.[.[.[.).].].).].[.].].*.a.R._._.].].).).).).^.c.).].].].].].].v.u.r.r.w.#.r +             ",
"      + g !.{. X].]._.).).).].].].].).].].].].].].[.[._.).].*.,.].)._.).).v.).].).z.l.v.).].).].).].).u.y.8.t.7.~ 1             ",
"    . + k H.oX}.}.}._.^.c.).].].].].].].).[.].).).[.).x.z.].*.} c./.x.).x.x.x.x.z.l.r.r.x.).).v.z.x./.i.0.s.t.q.:.p O           ",
"      O 3 b.oX{. X[._.z.l.x.v.).E.].).).].).v.).[.)./.r.r.v.| N f.u.u.x.l.i.i.i.y.y.y.6.9.u.z.u.y.9.y.y.9.0.t.Z =.p O           ",
"        % G ~.|.].].^.r.8.y.l.v.z.l.v.).v.z.z.).).z.r.w.y.x.} N f.r.9.l.0.9.y.t.t.y.9.6.9.6.w.9.8.9.9.9.0.0.9.C =.p O           ",
"        + z P.'.).z.w.Z r.8.8.u.r.r.y.z.y.y.i.z.y.8.8.8.r.s.N M 8.r.w.t.t.8.9.0.t.9.6.w.6.S C Z 6.9.6.C 0.0.9.9.<.w             ",
"        % H d.y.l.y.6.Z y.y.6.t.6.5.6.q.t.D t.w.6.f.0.s.s.s.` N 7.r.w.w.9.t.t.9.8.9.w.w.w.w.C C C 6.6.6.6.4.6.6.,.4             ",
"        * ..g.y.e.8.6.t.y.q.w.y.5.4.5.q.w.S 6.6.7.p.,.,.2.2.] _ ,.7.7.8.S S Z 6.8.f.s.7.7.8.7.4.6.0.8.8.p.=.7.7.+.4             ",
"        * O.2.,.,.1.@.=.=.&.,.>.-.[ Y K [ @.,.>.) a 7 e w w 7 7 e a X.{ &.e.=.[ o.' s i P ~ H P ~ X.o.~ x 8 s J v >             ",
"        O t s p u 7 y p i 8 e w 6 < = = , 4 e r : + ; * O o o o O + < 4 i U U p 5 ; + O 2 ; + * , < < < * . + * * .             ",
"        . O # O O . ; ; O . o o         . . O o     $ $               . O < 9 =       % & & &     o                             ",
"                    & $                                 % $                 X X           $ & $ & +                             ",
"                  & #                                                                                                           ",
"              # #                                                                                                               ",
"                                                                                                                                ",
"                                                                                                                                ",
"          O                                                                                                                     "
};
